<svg width="24" height="24" viewBox="0 0 24 24" fill="none" xmlns="http://www.w3.org/2000/svg">
<circle cx="11.8503" cy="11.8503" r="11.8503" fill="#21232F"/>
<mask id="path-2-outside-1_51_2489" maskUnits="userSpaceOnUse" x="8" y="10" width="9" height="4" fill="black">
<rect fill="white" x="8" y="10" width="9" height="4"/>
<path d="M9.25645 12.7581V11.3348H15.1579V12.7581H9.25645Z"/>
</mask>
<path d="M9.25645 12.7581V11.3348H15.1579V12.7581H9.25645Z" fill="white"/>
<path d="M9.25645 12.7581H8.25645V13.7581H9.25645V12.7581ZM9.25645 11.3348V10.3348H8.25645V11.3348H9.25645ZM15.1579 11.3348H16.1579V10.3348H15.1579V11.3348ZM15.1579 12.7581V13.7581H16.1579V12.7581H15.1579ZM10.2564 12.7581V11.3348H8.25645V12.7581H10.2564ZM9.25645 12.3348H15.1579V10.3348H9.25645V12.3348ZM14.1579 11.3348V12.7581H16.1579V11.3348H14.1579ZM15.1579 11.7581H9.25645V13.7581H15.1579V11.7581Z" fill="black" mask="url(#path-2-outside-1_51_2489)"/>
</svg>
