<svg width="30" height="30" viewBox="0 0 30 30" fill="none" xmlns="http://www.w3.org/2000/svg">
<path d="M28.9563 21.7849L24.8298 17.6851C23.356 16.2209 20.8506 16.8067 20.2611 18.7101C19.819 20.0279 18.3453 20.76 17.0189 20.4671C14.0714 19.735 10.0922 15.9281 9.35537 12.8533C8.91324 11.5354 9.79749 10.0713 11.1239 9.63205C13.0398 9.04637 13.6293 6.55725 12.1555 5.09305L8.02899 0.993311C6.84999 -0.0316245 5.08148 -0.0316245 4.04986 0.993311L1.24973 3.77528C-1.55041 6.70367 1.54448 14.4639 8.47112 21.3456C15.3978 28.2273 23.2086 31.4486 26.1562 28.5201L28.9563 25.7382C29.988 24.5668 29.988 22.8098 28.9563 21.7849Z" fill="#263238"/>
</svg>
