<svg width="31" height="24" viewBox="0 0 31 24" fill="none" xmlns="http://www.w3.org/2000/svg">
<path d="M17.8892 15.7056C17.1335 16.2097 16.2557 16.4761 15.3507 16.4761C14.4457 16.4761 13.5679 16.2097 12.8122 15.7056L0.365331 7.40329C0.296619 7.35733 0.229178 7.30949 0.163086 7.25983L0.163086 20.8641C0.163086 22.4239 1.42823 23.6618 2.95933 23.6618H27.742C29.301 23.6618 30.5383 22.396 30.5383 20.8641V7.25977C30.4721 7.30956 30.4045 7.3575 30.3356 7.40353L17.8892 15.7056Z" fill="#263238"/>
<path d="M1.35259 5.92146L13.7995 14.2239C14.2707 14.5382 14.8107 14.6953 15.3507 14.6953C15.8907 14.6953 16.4308 14.5381 16.9019 14.2239L29.3488 5.92146C30.0937 5.42495 30.5383 4.59396 30.5383 3.69708C30.5383 2.15495 29.2844 0.900391 27.7431 0.900391H2.95838C1.41708 0.90045 0.163087 2.15501 0.163087 3.69857C0.162625 4.13852 0.271003 4.57175 0.478554 4.95961C0.686105 5.34748 0.986376 5.67792 1.35259 5.92146Z" fill="#263238"/>
</svg>
