<svg width="70" height="65" viewBox="0 0 70 65" fill="none" xmlns="http://www.w3.org/2000/svg">
<g id="Group">
<g id="Group_2">
<path id="Vector" d="M66.4445 0H2.88889C1.3 0 0 1.3 0 2.88889V14.4444H26L27.7189 10.4144C28.1811 9.36 29.2211 8.66667 30.3767 8.66667H38.9567C40.1122 8.66667 41.1522 9.36 41.6144 10.4144L43.3333 14.4444H69.3333V2.88889C69.3333 1.3 68.0333 0 66.4445 0ZM10.1111 10.1111H8.66667C7.87222 10.1111 7.22222 9.46111 7.22222 8.66667C7.22222 7.87222 7.87222 7.22222 8.66667 7.22222H10.1111C10.9056 7.22222 11.5556 7.87222 11.5556 8.66667C11.5556 9.46111 10.9056 10.1111 10.1111 10.1111ZM16.6111 10.1111H15.1667C14.3722 10.1111 13.7222 9.46111 13.7222 8.66667C13.7222 7.87222 14.3722 7.22222 15.1667 7.22222H16.6111C17.4056 7.22222 18.0556 7.87222 18.0556 8.66667C18.0556 9.46111 17.4056 10.1111 16.6111 10.1111ZM23.1111 10.1111H21.6667C20.8722 10.1111 20.2222 9.46111 20.2222 8.66667C20.2222 7.87222 20.8722 7.22222 21.6667 7.22222H23.1111C23.9056 7.22222 24.5556 7.87222 24.5556 8.66667C24.5556 9.46111 23.9056 10.1111 23.1111 10.1111Z" fill="#202430"/>
<path id="Vector_2" d="M38.9567 11.5411L30.3767 11.5556L27.9067 17.3334H0V62.1111C0 63.7 1.3 65 2.88889 65H66.4445C68.0333 65 69.3333 63.7 69.3333 62.1111V17.3334H41.4267L38.9567 11.5411ZM24.05 43.8389C24.6133 44.4167 24.6133 45.3267 24.05 45.89C23.7611 46.1645 23.4 46.3089 23.0244 46.3089C22.6633 46.3089 22.2878 46.1645 21.9989 45.89L15.4122 39.3034C14.8489 38.74 14.8489 37.8156 15.4122 37.2523L21.9989 30.6656C22.5767 30.1022 23.4867 30.1022 24.05 30.6656C24.6133 31.2289 24.6133 32.1389 24.05 32.7167L18.46 38.2778L24.05 43.8389ZM40.3289 27.1411L31.6478 50.4256C31.4311 51.0034 30.8822 51.3645 30.29 51.3645C30.1311 51.3645 29.9578 51.3356 29.7844 51.2778C29.607 51.2106 29.4445 51.1091 29.3063 50.9791C29.168 50.849 29.0569 50.693 28.979 50.5199C28.9012 50.3468 28.8583 50.1601 28.8527 49.9704C28.8472 49.7807 28.8791 49.5918 28.9467 49.4145L37.6278 26.13C37.9022 25.3789 38.74 25.0034 39.4911 25.2778C40.2278 25.5522 40.6322 26.39 40.3289 27.1411ZM45.2833 32.7167C44.72 32.1389 44.72 31.2289 45.2833 30.6656C45.8467 30.1022 46.7567 30.1022 47.3344 30.6656L53.9211 37.2523C54.4845 37.8156 54.4845 38.74 53.9211 39.3034L47.3344 45.89C47.0456 46.1645 46.67 46.3089 46.3089 46.3089C45.9333 46.3089 45.5722 46.1645 45.2833 45.89C44.72 45.3267 44.72 44.4167 45.2833 43.8389L50.8733 38.2778L45.2833 32.7167Z" fill="#202430"/>
</g>
</g>
</svg>
