<svg width="846" height="623" viewBox="0 0 846 623" fill="none" xmlns="http://www.w3.org/2000/svg">
<g style="mix-blend-mode:multiply" opacity="0.07">
<path d="M767 572.406C767 590.072 608.96 604.385 414 604.385C219.04 604.385 60.9998 590.072 60.9998 572.406C60.9998 554.739 218.984 540.353 414 540.353C609.015 540.353 767 554.739 767 572.406Z" fill="black"/>
</g>
<path d="M87.5394 352.945H130.095C144.455 352.945 155.225 356.798 162.405 364.504C169.585 372.209 173.175 383.505 173.175 398.39V416.515C173.175 431.401 169.585 442.696 162.405 450.402C155.225 458.107 144.455 461.96 130.095 461.96H116.435V536.825H87.5394V352.945ZM130.095 435.691C134.823 435.691 138.325 434.378 140.602 431.751C143.054 429.124 144.28 424.659 144.28 418.354V396.551C144.28 390.247 143.054 385.781 140.602 383.154C138.325 380.527 134.823 379.214 130.095 379.214H116.435V435.691H130.095ZM188.868 352.945H231.686C246.572 352.945 257.429 356.448 264.259 363.453C271.089 370.283 274.504 380.878 274.504 395.238V406.533C274.504 425.622 268.2 437.705 255.591 442.784V443.309C262.596 445.411 267.499 449.701 270.301 456.181C273.278 462.661 274.767 471.329 274.767 482.187V514.497C274.767 519.751 274.942 524.041 275.292 527.369C275.642 530.521 276.518 533.673 277.919 536.825H248.498C247.447 533.848 246.747 531.046 246.397 528.42C246.046 525.793 245.871 521.064 245.871 514.234V480.611C245.871 472.205 244.47 466.338 241.668 463.011C239.041 459.683 234.401 458.02 227.746 458.02H217.764V536.825H188.868V352.945ZM228.271 431.751C234.05 431.751 238.341 430.263 241.143 427.285C244.12 424.308 245.609 419.317 245.609 412.312V398.127C245.609 391.473 244.383 386.657 241.931 383.68C239.654 380.703 235.977 379.214 230.898 379.214H217.764V431.751H228.271ZM336.582 539.452C322.397 539.452 311.539 535.424 304.009 527.369C296.479 519.313 292.713 507.93 292.713 493.22V396.551C292.713 381.841 296.479 370.458 304.009 362.402C311.539 354.346 322.397 350.319 336.582 350.319C350.767 350.319 361.625 354.346 369.155 362.402C376.685 370.458 380.45 381.841 380.45 396.551V493.22C380.45 507.93 376.685 519.313 369.155 527.369C361.625 535.424 350.767 539.452 336.582 539.452ZM336.582 513.184C346.564 513.184 351.555 507.142 351.555 495.058V394.712C351.555 382.629 346.564 376.587 336.582 376.587C326.6 376.587 321.609 382.629 321.609 394.712V495.058C321.609 507.142 326.6 513.184 336.582 513.184ZM405.796 537.876C400.542 537.876 396.076 537.526 392.399 536.825V510.557C395.201 511.257 398.353 511.608 401.855 511.608C407.634 511.608 411.925 510.207 414.727 507.405C417.529 504.428 418.93 499.962 418.93 494.008V352.945H447.825V493.22C447.825 508.28 444.323 519.488 437.318 526.843C430.488 534.199 419.981 537.876 405.796 537.876ZM468.485 352.945H547.291V379.214H497.381V427.811H537.046V454.079H497.381V510.557H547.291V536.825H468.485V352.945ZM604.63 539.452C590.795 539.452 580.2 535.512 572.845 527.631C565.665 519.751 562.075 508.631 562.075 494.27V395.501C562.075 381.14 565.665 370.02 572.845 362.139C580.2 354.259 590.795 350.319 604.63 350.319C618.465 350.319 628.972 354.259 636.153 362.139C643.508 370.02 647.185 381.14 647.185 395.501V414.939H619.866V393.662C619.866 382.279 615.05 376.587 605.418 376.587C595.786 376.587 590.971 382.279 590.971 393.662V496.372C590.971 507.58 595.786 513.184 605.418 513.184C615.05 513.184 619.866 507.58 619.866 496.372V468.264H647.185V494.27C647.185 508.631 643.508 519.751 636.153 527.631C628.972 535.512 618.465 539.452 604.63 539.452ZM687.064 379.214H656.855V352.945H746.169V379.214H715.96V536.825H687.064V379.214Z" fill="white"/>
<path d="M213.096 309.581C213.096 296.447 215.197 285.239 219.4 275.957C223.603 266.501 231.134 256.081 241.991 244.698C252.674 233.315 260.029 223.595 264.057 215.54C268.26 207.484 270.361 199.078 270.361 190.322C270.361 182.441 269.048 177.012 266.421 174.035C263.969 170.883 260.292 169.307 255.388 169.307C245.406 169.307 240.415 175.349 240.415 187.432V207.134H213.096V189.271C213.096 174.385 216.773 163.002 224.129 155.122C231.484 147.066 242.166 143.038 256.176 143.038C270.186 143.038 280.869 147.066 288.224 155.122C295.579 163.002 299.257 174.385 299.257 189.271C299.257 200.479 296.542 211.424 291.114 222.107C285.86 232.789 276.666 245.048 263.531 258.883C254.95 267.989 249.171 275.432 246.194 281.211C243.217 286.815 241.729 292.857 241.729 299.336V303.277H296.63V329.545H213.096V309.581ZM361.091 332.172C347.081 332.172 336.398 328.232 329.043 320.351C321.688 312.295 318.01 300.825 318.01 285.939V271.492H345.329V288.041C345.329 299.949 350.32 305.903 360.302 305.903C370.285 305.903 375.276 299.949 375.276 288.041V246.799C375.276 234.716 370.285 228.674 360.302 228.674C350.32 228.674 345.329 234.716 345.329 246.799V248.375H318.01L323.264 145.665H399.443V171.934H349.007L346.643 215.802H347.168C352.597 206.871 360.915 202.405 372.123 202.405C382.631 202.405 390.599 205.995 396.028 213.175C401.457 220.355 404.171 230.775 404.171 244.435V285.939C404.171 300.825 400.493 312.295 393.138 320.351C385.783 328.232 375.1 332.172 361.091 332.172ZM465.742 332.172C451.557 332.172 440.699 328.144 433.169 320.088C425.639 312.033 421.874 300.65 421.874 285.939V189.271C421.874 174.561 425.639 163.178 433.169 155.122C440.699 147.066 451.557 143.038 465.742 143.038C479.927 143.038 490.785 147.066 498.315 155.122C505.845 163.178 509.611 174.561 509.611 189.271V285.939C509.611 300.65 505.845 312.033 498.315 320.088C490.785 328.144 479.927 332.172 465.742 332.172ZM465.742 305.903C475.724 305.903 480.715 299.862 480.715 287.778V187.432C480.715 175.349 475.724 169.307 465.742 169.307C455.76 169.307 450.769 175.349 450.769 187.432V287.778C450.769 299.862 455.76 305.903 465.742 305.903ZM560.674 247.85H525.474V227.36H560.674V191.898H581.164V227.36H616.364V247.85H581.164V283.838H560.674V247.85Z" fill="white"/>
<path d="M717.495 3.6189H562.393V109.293H717.495V3.6189Z" stroke="white" stroke-width="5.538" stroke-miterlimit="10"/>
<path d="M644.225 41.6998H579.52V47.409H644.225V41.6998Z" fill="white"/>
<path d="M703.221 17.8992H579.52V24.56H703.221V17.8992Z" fill="white"/>
<path d="M626.146 52.172H579.52V57.8813H626.146V52.172Z" fill="white"/>
<path d="M609.018 73.1165H579.52V79.7773H609.018V73.1165Z" fill="white"/>
<path d="M640.419 62.6443H579.52V69.3051H640.419V62.6443Z" fill="white"/>
<path d="M703.221 39.7957H668.014V75.0205H703.221V39.7957Z" stroke="white" stroke-width="5.538" stroke-miterlimit="10"/>
<path d="M108.652 235.651C115.427 211.641 135.419 216.646 140.459 220.377C149.227 226.86 149.412 237.628 150.649 245.736C152.495 257.556 158.476 263.281 166.008 261.324C163.294 270.207 155.208 266.994 148.12 263.078L108.652 235.651Z" fill="#272525"/>
<path d="M134.496 276.154L124.325 293.442L96.3212 322.217L95.6382 319.04L117.236 288.566L127.408 261.324L134.496 276.154Z" fill="#00FCFF"/>
<path d="M88.1063 354.612L76.495 421.23H68.0957L72.0277 356.957L88.1063 354.612Z" fill="#003737"/>
<path d="M140.459 252.181L128.22 259.403L121.298 253.733H117.919L117.772 249.725L110.24 235.818L124.546 231.976L128.94 238.237L130.786 237.591C130.786 237.591 130.786 232.53 132.983 232.881C135.179 233.232 135.438 236.15 134.46 238.736L138.152 242.633L140.459 252.181Z" fill="#FFC0B6"/>
<path d="M139.978 251.587L132.16 256.213L140.335 270.043L148.153 265.418L139.978 251.587Z" fill="#FFC0B6"/>
<path d="M141.733 254.6L132.927 257.553L132.521 256.87L140.348 252.255L141.733 254.6Z" fill="#F9ADA7"/>
<path d="M148.12 257.667L162.999 323.251L132.817 320.721L129.641 287.476L136.97 293.442L96.8012 324.488L95.6382 319.04L121.205 289.692L127.408 261.324L148.12 257.667Z" fill="#00FCFF"/>
<path d="M162.999 323.251C162.999 323.251 169.866 353.116 145 353.448L89.6202 352.802L54.4354 422.228L46.7007 418.959L77.8058 334.462L132.817 320.721" fill="#003737"/>
<path d="M76.4951 433.715H51.7034L68.0959 421.23H76.4951V433.715Z" fill="#E5E5E5"/>
<path d="M49.5804 433.715L26.7454 424.074L46.7006 418.958L54.4354 422.228L49.5804 433.715Z" fill="#E5E5E5"/>
<path d="M116.627 326.372L113.526 320.721L69.5171 330.288L70.8093 336.327L116.627 326.372Z" fill="#666666"/>
<path d="M70.8094 336.327L43.3225 301.273L50.0789 299.813L73.6154 329.42L70.8094 336.327Z" fill="#666666"/>
<path d="M96.8011 324.486L95.6381 319.04C95.6381 319.04 85.4482 321.181 83.196 327.365L96.8011 324.486Z" fill="#FFC0B6"/>
<path d="M134.386 238.81C134.386 238.81 134.386 262.819 148.12 270.059C158.218 275.286 165.546 265.848 166.008 261.324C166.008 261.324 148.988 275.12 143.726 243.039L134.386 238.81Z" fill="#272525"/>
<path d="M137.579 284.909C134.994 289.22 132.688 293.692 130.675 298.299C133.625 294.229 136.319 289.979 138.742 285.574C141.314 281.252 143.614 276.774 145.628 272.165C142.676 276.237 139.988 280.494 137.579 284.909Z" fill="#00CACC"/>
<path d="M320.515 310.669C320.515 310.669 300.947 296.725 291.81 313.625C282.672 330.524 308.553 367.333 308.553 367.333L320.238 363.639L313.925 328.049L320.515 310.669Z" fill="#AA705E"/>
<path d="M321.977 340.653L312.929 341.189L313.878 357.211L322.926 356.674L321.977 340.653Z" fill="#FFC0B6"/>
<path d="M313.242 347.143L322.103 343.451L321.955 340.941L313.021 343.599L313.242 347.143Z" fill="#F9ADA7"/>
<path d="M270.378 309.58C274.384 303.023 268.532 305.886 268.532 305.886C268.532 305.886 263.16 299.44 261.425 300.345C259.006 301.675 265.634 312.055 265.634 312.055L270.378 309.58Z" fill="#FFC0B6"/>
<path d="M367.09 309.82C363.49 303.023 369.139 306.292 369.139 306.292C369.139 306.292 374.917 300.198 376.523 301.269C378.849 302.746 371.576 312.683 371.576 312.683L367.09 309.82Z" fill="#FFC0B6"/>
<path d="M371.649 312.683L367.09 309.82L360.943 341.421L339.474 350.951L294.043 350.582L275.823 344.228L270.378 309.598L265.634 312.166L263.4 350.157L291.994 369.623L298.179 417.902H337.498L342.704 366.816L370.228 352.373L371.649 312.683Z" fill="#00FCFF"/>
<path d="M298.179 417.902C298.179 417.902 289.816 424.569 290.001 443.039C290.259 466.458 294.044 564.492 294.044 564.492H303.015L316.029 441.912L365.188 564.455H372.849L337.498 417.902" fill="#263238"/>
<path d="M308.128 350.822H327.087C327.087 350.822 324.779 366.65 318.448 366.65C310.584 366.65 308.128 350.822 308.128 350.822Z" fill="#FFC0B6"/>
<path d="M312.023 343.914L326.441 339.611L326.865 330.672L329.173 328.197L326.238 325.408L320.46 310.633L308.036 318.667L309.716 326.054L308.055 326.922C308.055 326.922 304.363 323.524 303.089 325.408C301.815 327.292 303.864 329.416 306.449 330.413C306.504 330.524 309.218 336.305 312.023 343.914Z" fill="#FFC0B6"/>
<path d="M294.043 564.455V575.851H295.723L296.923 571.067L299.914 575.851H316.657C313.472 575.19 310.475 573.823 307.888 571.851C305.3 569.879 303.187 567.352 301.704 564.455H294.043Z" fill="black"/>
<path d="M365.188 564.455V575.851H366.85L368.05 571.067L371.04 575.851H387.783C384.598 575.19 381.602 573.823 379.014 571.851C376.427 569.879 374.314 567.352 372.831 564.455H365.188Z" fill="black"/>
<path d="M30.8054 89.6741L19.7294 89.4709L19.8402 82.9882C18.4006 82.52 17.0146 81.9009 15.7051 81.1413L11.2378 85.4262L3.50306 77.4105L8.02575 73.0518C7.23878 71.6583 6.61915 70.1766 6.17975 68.6376L0.291016 68.5268L0.475616 57.4453L6.01361 57.5376C6.45598 55.8125 7.12646 54.1541 8.0073 52.6063L4.44452 48.9125L12.4562 41.1554L15.8159 44.6461C17.5446 43.6424 19.4102 42.8959 21.3539 42.4298V37.9972L32.4299 38.2003V42.6145C34.3926 43.183 36.2592 44.0421 37.9679 45.1632L40.9953 42.2266L48.7301 50.2607L45.4073 53.4744C46.2842 55.2235 46.9059 57.0894 47.2533 59.0152H51.8867L51.6837 70.0967H46.3487C45.7417 71.7762 44.9228 73.3713 43.912 74.8433L47.604 78.7034L39.5924 86.442L35.3466 82.0648C33.8996 82.731 32.3826 83.2328 30.8239 83.5608L30.8054 89.6741ZM23.163 86.0911H27.4272V80.5503L28.8856 80.3471C30.9855 80.055 33.0168 79.3922 34.8851 78.3894L36.0296 77.7614L39.7216 81.4553L42.8044 78.4817L39.3893 74.9726L40.3308 73.7905C41.7714 72.0484 42.8564 70.0404 43.5243 67.8804L43.8935 66.6245H48.3609V62.3766H44.2074L44.0412 60.8621C43.7689 58.4191 42.9892 56.06 41.7522 53.9361L41.0692 52.7541L43.8197 50.0945L40.8661 47.0286L38.2448 49.5589L37.0818 48.6724C35.05 47.1626 32.7225 46.099 30.2516 45.5511L28.8856 45.2556V41.5617H24.6213V45.2556L23.2368 45.5141C20.8155 45.9432 18.5128 46.8811 16.4804 48.2661L15.2805 49.0787L12.3454 46.0313L9.3918 48.9494L12.4192 52.1077L11.6808 53.2528C10.433 55.1677 9.5679 57.3065 9.13336 59.5508L8.87492 60.9729L3.8538 60.8805V65.1469H9.00414L9.28103 66.4952C9.71614 68.5685 10.5229 70.5458 11.6624 72.3315L12.4192 73.5135L8.39495 77.4105L11.3486 80.4764L15.3728 76.5979L16.5358 77.392C18.2165 78.5671 20.0912 79.4361 22.0738 79.9593L23.366 80.2917L23.163 86.0911ZM26.5042 75.2681C23.692 75.2607 20.9675 74.2876 18.7865 72.5114C16.6055 70.7351 15.1002 68.2635 14.5223 65.5099C13.9444 62.7563 14.329 59.8877 15.6118 57.3838C16.8945 54.8799 18.9977 52.8926 21.5695 51.7542C24.1412 50.6158 27.0257 50.3954 29.7405 51.1298C32.4552 51.8642 34.8356 53.5089 36.4836 55.7889C38.1315 58.0688 38.9471 60.8457 38.7939 63.6552C38.6407 66.4646 37.528 69.1363 35.6419 71.2233C34.4867 72.4999 33.0764 73.5196 31.5023 74.2164C29.9282 74.9131 28.2255 75.2714 26.5042 75.2681ZM26.5042 54.0839H26.0058C24.8427 54.1434 23.7027 54.4318 22.6511 54.9325C21.5995 55.4333 20.6568 56.1365 19.8771 57.002C18.3051 58.7479 17.4886 61.0459 17.6062 63.3928C17.7239 65.7397 18.7661 67.9443 20.5047 69.5242C22.2507 71.1026 24.5515 71.9231 26.9018 71.8053C29.252 71.6876 31.4594 70.6413 33.0391 68.8962C34.1694 67.62 34.9088 66.0453 35.169 64.3601C35.4291 62.6749 35.1989 60.9503 34.506 59.3924C33.8131 57.8345 32.6867 56.509 31.2612 55.5743C29.8358 54.6395 28.1716 54.1349 26.4673 54.1208L26.5042 54.0839Z" fill="#EDFBFC"/>
<path d="M73.4479 60.8805L64.2179 60.7143V55.7461C63.3302 55.4342 62.4716 55.0448 61.652 54.5825L58.2184 57.8885L51.9605 51.2581L55.4125 47.9336C54.9569 47.0449 54.5802 46.1178 54.2865 45.1632H49.7822L49.9299 35.9286H54.2126C54.5448 34.8384 54.9903 33.7861 55.5417 32.7888L52.8097 29.963L59.3814 23.5542L61.9474 26.2138C63.0686 25.597 64.2581 25.1135 65.4917 24.7732V21.3748L74.7217 21.5226V24.9394C76.0165 25.3382 77.2567 25.8966 78.4137 26.6016L80.7396 24.3484L87.0345 30.9419L84.4686 33.4168C85.0301 34.5929 85.4454 35.8334 85.7054 37.1106H89.2312L89.0651 46.3453H84.967C84.5556 47.4148 84.0295 48.4366 83.3979 49.3927L86.2407 52.3478L79.632 58.6458L76.3831 55.2659C75.4679 55.6706 74.5159 55.986 73.5402 56.2078L73.4479 60.8805ZM67.7623 57.3345H70.0698V53.3082L71.5281 53.105C73.0393 52.8842 74.5008 52.403 75.8477 51.6829L77.0107 51.0549L79.6505 53.7884L81.3119 52.1815L78.8013 49.5958L79.7428 48.4138C80.7813 47.1261 81.5531 45.6443 82.0134 44.0551L82.3826 42.7807H85.6131V40.472H82.5856L82.4195 38.9576C82.2153 37.1927 81.6498 35.4888 80.7581 33.9524L80.0751 32.7888L82.0688 30.9419L80.4627 29.2797L78.6167 31.1266L77.4353 30.2401C75.9793 29.1449 74.3045 28.3764 72.5249 27.9868L71.1404 27.6913V24.9579H68.8145V27.6913L67.43 27.9314C65.6859 28.2546 64.027 28.9336 62.5566 29.9261L61.3566 30.7388L59.2337 28.467L57.5723 30.0739L59.7691 32.3456L59.0307 33.4907C58.122 34.8753 57.4947 36.4254 57.1847 38.0526L56.9078 39.4562H53.2158V41.7649H56.9078L57.2031 43.0947C57.5119 44.589 58.0872 46.0154 58.9015 47.3057L59.6583 48.4877L56.7232 51.3504L58.3292 53.0126L61.2643 50.1684L62.4273 50.9626C63.6366 51.8097 64.9867 52.435 66.4147 52.8095L67.7253 53.1604L67.7623 57.3345ZM69.8113 49.4112C67.5449 49.3845 65.3753 48.4882 63.7504 46.9072C62.1255 45.3261 61.1695 43.1812 61.0797 40.9153C61.0127 39.7768 61.1706 38.6361 61.5443 37.5587C61.9181 36.4812 62.5004 35.488 63.258 34.6358C64.0328 33.7611 64.9731 33.0488 66.0246 32.5398C67.0761 32.0308 68.2179 31.7353 69.3842 31.6704C70.5505 31.6054 71.7181 31.7723 72.8196 32.1614C73.921 32.5505 74.9345 33.1542 75.8015 33.9374C76.6684 34.7206 77.3717 35.6679 77.8706 36.7246C78.3696 37.7813 78.6543 38.9264 78.7084 40.0939C78.7625 41.2613 78.5848 42.4279 78.1857 43.5262C77.7866 44.6246 77.1739 45.6329 76.3831 46.493C75.5523 47.4119 74.5383 48.1463 73.4063 48.6489C72.2744 49.1516 71.0497 49.4112 69.8113 49.4112ZM69.8113 35.1529C69.0485 35.1605 68.2958 35.3289 67.6024 35.6471C66.909 35.9654 66.2904 36.4263 65.7871 36.9998C65.311 37.5257 64.9433 38.1403 64.705 38.8086C64.4668 39.4769 64.3627 40.1856 64.3987 40.8942C64.4347 41.6028 64.6102 42.2973 64.9149 42.938C65.2197 43.5786 65.6478 44.1528 66.1747 44.6276C67.2415 45.5861 68.6439 46.0832 70.0759 46.0106C71.5078 45.9379 72.8528 45.3013 73.8171 44.2398C74.2926 43.7112 74.6593 43.094 74.8963 42.4236C75.1332 41.7531 75.2358 41.0425 75.1981 40.3324C75.1604 39.6223 74.9831 38.9266 74.6765 38.285C74.3698 37.6435 73.9398 37.0687 73.411 36.5935C72.4531 35.6492 71.174 35.1017 69.8298 35.0606L69.8113 35.1529Z" fill="#EDFBFC"/>
<path d="M635.579 91.3625C635.579 91.3625 631.607 79.9665 638.1 78.1256C646.427 75.7368 650.249 82.5415 652.346 85.2772C655.839 89.9045 672.07 88.8795 666.315 103.823C660.289 119.457 656.119 128.573 648.893 125.242C635.722 119.266 635.579 91.3625 635.579 91.3625Z" fill="#272525"/>
<path d="M623.461 137.177L595.232 134.107L568.751 111.019L563.543 112.62L591.392 148.359L622.537 158.249L629.848 206.821L679.522 205.416L673.544 146.254L699.824 136.057L716.837 98.2589L711.514 97.0268L690.279 123.658" fill="#FFC0B6"/>
<path d="M711.514 97.0268C705.874 91.6582 712.378 92.9237 712.378 92.9237C712.378 92.9237 715.993 85.0775 717.967 85.5525C720.673 86.2074 716.837 98.2589 716.837 98.2589L711.514 97.0268Z" fill="#FFC0B6"/>
<path d="M568.751 111.019C573.993 105.241 567.598 106.975 567.598 106.975C567.598 106.975 563.421 99.3966 561.49 100.033C558.829 100.877 563.543 112.62 563.543 112.62L568.751 111.019Z" fill="#FFC0B6"/>
<path d="M650.31 128.318L630.113 122.439L631.499 111.075L627.704 109.966L635.579 91.3625L651.484 101.563L649.053 108.962L651.333 109.636C651.333 109.636 654.422 104.502 656.491 107.052C657.84 108.72 656.208 113.51 653.611 114.579L652.593 123.039L650.31 128.318Z" fill="#FFC0B6"/>
<path d="M649.056 121.636L638.095 123.783L641.035 138.809L651.996 136.662L649.056 121.636Z" fill="#FFC0B6"/>
<path d="M624.448 346.733L624.236 351.584L599.671 350.505C606.659 344.511 616.546 344.908 616.546 344.908L624.448 346.733Z" fill="black"/>
<path d="M694.757 348.823L694.561 353.304L669.886 352.609C676.876 346.596 686.762 347.012 686.762 347.012L694.757 348.823Z" fill="black"/>
<path d="M680.592 125.026L685.255 141.721L673.544 146.254L679.522 205.416L629.848 206.821L622.537 158.249L602.655 151.922L605.2 135.192L623.461 137.177L680.592 125.026Z" fill="#00CACC"/>
<path d="M650.432 128.913L638.703 127.123L638.25 124.812L650.31 128.316L650.432 128.913Z" fill="#F9ADA7"/>
<path d="M616.565 344.909L624.448 346.734L654.417 223.392L686.836 347.015L694.72 348.822L679.522 205.416L629.848 206.821L616.565 344.909Z" fill="#263238"/>
<path d="M623.299 566.653H685.657V578.529L654.478 590.848L623.299 578.104V566.653Z" fill="#003737"/>
<path d="M670.723 479.183C670.723 479.183 676.261 457.334 668.877 446.492C668.877 446.492 667.031 453.363 663.247 454.138C663.85 453.533 664.276 452.775 664.481 451.945C664.686 451.115 664.661 450.246 664.41 449.429C664.41 449.429 661.253 452.458 650.325 452.458C634.948 452.458 634.948 460.584 634.948 460.584L637.44 480.014C637.44 480.014 663.838 485.758 670.723 479.183Z" fill="#272525"/>
<path d="M687.226 497.172L702.474 540.445L701.293 546.78L684.771 559.506L682.888 576.386L626.604 575.334L625.828 560.466L605.928 549.144L604.267 543.641L619.737 497.652L687.226 497.172Z" fill="#00CACC"/>
<path d="M659.647 497.966L659.5 488.953L646.891 488.307L647.057 498.132C647.057 498.132 652.965 511.559 659.647 497.966Z" fill="#FFC0B6"/>
<path d="M663.358 499.462H643.328L638.732 469.819H668.932L663.358 499.462Z" fill="#FFC0B6"/>
<path d="M640.393 477.299C640.393 477.299 636.554 475.748 636.554 478.886C636.554 482.837 641.593 485.55 641.593 485.55L640.393 477.299Z" fill="#FFC0B6"/>
<path d="M667.197 477.373C667.197 477.373 671.295 475.748 671.295 478.886C671.295 482.837 665.757 485.55 665.757 485.55L667.197 477.373Z" fill="#FFC0B6"/>
<path d="M655.678 487.365C655.161 484.81 654.33 482.328 653.205 479.977C653.28 482.571 653.677 485.146 654.386 487.642C654.501 488.192 654.649 488.735 654.829 489.267C654.829 489.267 654.829 489.267 654.644 489.267L653.814 489.415L652.337 489.692C651.646 489.813 650.971 490.011 650.325 490.283C651.014 490.404 651.711 490.466 652.411 490.468H653.924H654.755L656.38 490.357L655.678 487.365Z" fill="#F9ADA7"/>
<path d="M645.839 603.813L641.649 594.579L634.265 598.143L634.745 622.338C638.17 620.634 641.036 617.984 643.002 614.7C644.969 611.417 645.953 607.639 645.839 603.813Z" fill="#272525"/>
<path d="M685.399 560.41L711.963 552.358L724.571 559.025L723.15 576.109L645.895 603.869L641.704 594.634L676.889 576.054L685.399 560.41Z" fill="#003737"/>
<path d="M678.255 575.537C667.769 580.801 659.001 585.51 655.771 587.56C659.352 586.194 668.379 582.02 678.846 576.737C689.312 571.455 698.118 566.782 701.33 564.732C697.767 566.117 688.777 570.328 678.255 575.537Z" fill="#001F1F"/>
<path d="M627.028 560.835L600.464 552.783L587.856 559.45L589.259 576.534L666.533 604.293L670.723 595.077L635.52 576.497L627.028 560.835Z" fill="#003737"/>
<path d="M640.596 580.745C654.312 587.616 666.09 593.193 670.723 595.077C666.44 592.491 654.921 586.415 641.187 579.545C627.453 572.674 615.694 567.078 611.06 565.194C615.361 567.78 626.881 573.856 640.596 580.745Z" fill="#001F1F"/>
<path d="M666.625 604.293L670.815 595.059L678.199 598.623L677.701 622.818C674.276 621.115 671.411 618.464 669.448 615.181C667.485 611.897 666.505 608.118 666.625 604.293Z" fill="#272525"/>
<path d="M628.56 522.863C627.47 525.851 626.697 528.947 626.253 532.097C627.73 529.303 628.929 526.371 629.834 523.343C630.912 520.351 631.679 517.257 632.123 514.108C630.647 516.9 629.453 519.833 628.56 522.863Z" fill="#008D8E"/>
<path d="M676.981 520.369C677.84 523.273 678.99 526.082 680.415 528.754C680.011 525.749 679.287 522.795 678.255 519.944C677.4 517.036 676.243 514.226 674.803 511.559C675.227 514.562 675.957 517.514 676.981 520.369Z" fill="#008D8E"/>
<path d="M685.417 576.386H621.823L615.306 532.928L689.921 528.145L685.417 576.386Z" fill="#666666"/>
<path d="M657.875 552.783C657.875 553.824 657.566 554.841 656.988 555.707C656.41 556.573 655.588 557.247 654.627 557.646C653.666 558.044 652.608 558.148 651.587 557.945C650.567 557.742 649.629 557.241 648.894 556.505C648.158 555.768 647.657 554.83 647.454 553.809C647.251 552.788 647.355 551.73 647.753 550.768C648.151 549.806 648.826 548.984 649.691 548.406C650.556 547.828 651.573 547.519 652.614 547.519C654.008 547.524 655.343 548.08 656.329 549.066C657.314 550.052 657.87 551.388 657.875 552.783Z" fill="white"/>
<path d="M648.497 500.662L656.472 502.508C657.399 501.586 658.189 500.535 658.816 499.388H647.74C647.944 499.813 648.165 500.237 648.497 500.662Z" fill="#F9ADA7"/>
<path d="M310.288 75.7246C292.64 75.7246 278.334 50.6619 278.334 34.2982C278.334 17.9344 292.659 4.4334 310.288 4.4334C327.918 4.4334 342.242 17.8421 342.242 34.2982C342.242 50.7542 327.918 75.7246 310.288 75.7246ZM310.288 8.77368C295.059 8.77368 282.598 20.2246 282.598 34.2982C282.598 48.3717 295.243 71.3844 310.288 71.3844C325.333 71.3844 337.978 48.6118 337.978 34.2982C337.978 19.9845 325.518 8.77368 310.288 8.77368Z" fill="white"/>
<path d="M323.819 81.4874H296.757V69.6671H301.095V77.1472H319.481V69.6671H323.819V81.4874Z" fill="white"/>
<path d="M322.213 88.6488H298.363V79.3081H302.701V84.3107H317.875V79.3081H322.213V88.6488Z" fill="white"/>
<path d="M310.288 94.3561C307.963 94.3561 305.732 93.4323 304.088 91.7879C302.444 90.1435 301.52 87.9132 301.52 85.5876H305.932C305.932 86.7626 306.398 87.8895 307.229 88.7204C308.06 89.5512 309.187 90.018 310.362 90.018C311.537 90.018 312.664 89.5512 313.495 88.7204C314.326 87.8895 314.793 86.7626 314.793 85.5876H319.131C319.131 86.7453 318.901 87.8916 318.456 88.9603C318.011 90.029 317.358 90.9989 316.536 91.8141C315.714 92.6293 314.739 93.2737 313.667 93.71C312.594 94.1463 311.446 94.3658 310.288 94.3561Z" fill="white"/>
<path d="M314.626 57.1081H305.95V73.5272H314.626V57.1081Z" fill="white"/>
<path d="M310.251 59.7861L297.2 39.4145L299.637 37.8447L310.27 54.43L320.94 37.8447L323.358 39.4145L310.251 59.7861Z" fill="white"/>
<path d="M308.848 45.1215L305.082 34.5941L302.517 39.1006L299.101 39.9132L298.843 38.8604L301.815 38.1586L305.322 32.0084L308.922 42.0926L313.316 31.3804L314.829 39.71L316.62 37.8447L321.715 39.0821L321.475 40.1348L316.971 39.0452L314.146 41.9818L312.91 35.222L308.848 45.1215Z" fill="white"/>
<path d="M817.643 501.66C812.038 501.664 806.557 500.004 801.895 496.891C797.233 493.778 793.598 489.352 791.451 484.172C789.303 478.992 788.739 473.291 789.831 467.79C790.922 462.289 793.619 457.236 797.581 453.269C801.543 449.303 806.592 446.601 812.09 445.505C817.587 444.41 823.285 444.97 828.464 447.116C833.643 449.261 838.069 452.895 841.184 457.557C844.298 462.22 845.961 467.702 845.961 473.31C845.951 480.822 842.965 488.025 837.657 493.339C832.349 498.653 825.152 501.645 817.643 501.66ZM817.643 448.967C812.826 448.963 808.115 450.39 804.109 453.065C800.102 455.74 796.978 459.545 795.133 463.997C793.288 468.449 792.804 473.349 793.743 478.076C794.682 482.803 797.001 487.146 800.407 490.554C803.814 493.962 808.154 496.282 812.879 497.222C817.604 498.161 822.501 497.677 826.951 495.831C831.401 493.985 835.203 490.86 837.877 486.851C840.551 482.842 841.977 478.129 841.973 473.31C841.959 466.86 839.39 460.679 834.83 456.12C830.27 451.561 824.09 448.995 817.643 448.986V448.967Z" fill="#EDFBFC"/>
<path d="M832.885 487.728L831.946 488.668L835.835 492.558L836.774 491.618L832.885 487.728Z" fill="#EDFBFC"/>
<path d="M799.431 454.262L798.491 455.202L802.38 459.094L803.319 458.154L799.431 454.262Z" fill="#EDFBFC"/>
<path d="M835.83 454.257L831.941 458.148L832.88 459.088L836.769 455.197L835.83 454.257Z" fill="#EDFBFC"/>
<path d="M802.393 487.728L798.504 491.619L799.444 492.559L803.333 488.668L802.393 487.728Z" fill="#EDFBFC"/>
<path d="M844.041 471.407H836.103V475.395H844.041V471.407Z" fill="#EDFBFC"/>
<path d="M799.164 471.407H791.227V475.395H799.164V471.407Z" fill="#EDFBFC"/>
<path d="M819.637 446.991H815.649V454.929H819.637V446.991Z" fill="#EDFBFC"/>
<path d="M819.637 491.89H815.649V499.827H819.637V491.89Z" fill="#EDFBFC"/>
<path d="M828.128 474.658H817.089L804.906 462.764L806.77 460.861L818.178 471.998H828.128V474.658Z" fill="#EDFBFC"/>
<path d="M57.9032 315.01L58.073 85.4928" stroke="white" stroke-width="2.769" stroke-miterlimit="10" stroke-dasharray="9.23 9.23"/>
<path d="M679.427 476.03H786.137" stroke="white" stroke-width="2.769" stroke-miterlimit="10" stroke-dasharray="9.23 9.23"/>
<path d="M309.014 294.475L310.233 102.629" stroke="white" stroke-width="2.769" stroke-miterlimit="10" stroke-dasharray="9.23 9.23"/>
</svg>
