<svg width="31" height="36" viewBox="0 0 31 36" fill="none" xmlns="http://www.w3.org/2000/svg">
<path d="M22.3556 19.0996C21.4681 19.0996 20.7461 19.8216 20.7461 20.7091V22.3186H23.9651V20.7091C23.9651 19.8216 23.2431 19.0996 22.3556 19.0996Z" fill="#263238"/>
<path d="M29.0472 14.7629H30.2931C30.0658 11.3692 28.7121 8.27944 26.603 5.86578L25.7267 6.74249C25.528 6.94138 25.2675 7.04083 25.0069 7.04083C24.7463 7.04083 24.4858 6.94138 24.287 6.74249C23.8895 6.3447 23.8895 5.69979 24.287 5.302L25.1633 4.42529C22.7508 2.31519 19.6626 0.960852 16.2706 0.733398V1.97995C16.2706 2.54251 15.8147 2.9985 15.2525 2.9985C14.6902 2.9985 14.2345 2.54244 14.2345 1.97995V0.733398C10.8425 0.960852 7.75425 2.31519 5.3418 4.42543L6.21807 5.30213C6.61566 5.69992 6.61566 6.34484 6.21807 6.74263C6.12363 6.83733 6.01142 6.91244 5.88789 6.96364C5.76436 7.01484 5.63193 7.04112 5.49822 7.04097C5.3645 7.04115 5.23206 7.01488 5.10853 6.96368C4.98499 6.91248 4.87278 6.83736 4.77836 6.74263L3.90209 5.86585C1.79298 8.27951 0.439253 11.3692 0.211982 14.763H1.45791C2.02019 14.763 2.47595 15.219 2.47595 15.7815C2.47595 16.3441 2.02012 16.8001 1.45791 16.8001H0.211914C0.439253 20.1938 1.79292 23.2836 3.90203 25.6972L4.7783 24.8205C5.17582 24.4227 5.82048 24.4227 6.218 24.8205C6.61559 25.2183 6.61559 25.8632 6.218 26.261L5.34173 27.1377C7.56793 29.0849 10.3695 30.3886 13.4543 30.7571V26.0046C13.4543 23.9735 15.1059 22.321 17.1361 22.321H18.7094V20.7107C18.7094 20.6918 18.7106 20.6731 18.7108 20.6542C18.6552 20.6171 18.6034 20.5746 18.556 20.5273L14.5326 16.5019C14.3417 16.3109 14.2344 16.0518 14.2344 15.7817V7.73059C14.2344 7.16802 14.6902 6.71203 15.2525 6.71203C15.8147 6.71203 16.2705 7.16809 16.2705 7.73059V15.3596L19.4365 18.5273C20.102 17.639 21.1625 17.0632 22.355 17.0632C24.3652 17.0632 26.0006 18.6995 26.0006 20.7107V22.321H27.5739C27.9708 22.3209 28.3651 22.3854 28.7413 22.5119C29.6122 20.7717 30.1563 18.841 30.293 16.8001H29.0471C28.4848 16.8001 28.029 16.344 28.029 15.7815C28.0291 15.219 28.4849 14.7629 29.0472 14.7629Z" fill="#263238"/>
<path d="M27.5739 24.3584H17.1359C16.2285 24.3584 15.4902 25.097 15.4902 26.0049V27.579H29.2195V26.0049C29.2195 25.0971 28.4813 24.3584 27.5739 24.3584ZM23.3729 31.2264C23.3729 31.789 22.9171 32.245 22.3549 32.245C21.7927 32.245 21.3369 31.7889 21.3369 31.2264V29.6161H15.4903V33.8192C15.4903 34.727 16.2285 35.4657 17.136 35.4657H27.5739C28.4813 35.4656 29.2195 34.727 29.2195 33.8191V29.6161H23.3729V31.2264Z" fill="#263238"/>
</svg>
