<svg width="38" height="65" viewBox="0 0 38 65" fill="none" xmlns="http://www.w3.org/2000/svg">
<g id="Group">
<path id="Union" fill-rule="evenodd" clip-rule="evenodd" d="M0.572754 60.9576V52V21.8462V4.04238C0.572754 3.89211 0.58149 3.7433 0.598489 3.59646C0.701226 2.68943 1.10811 1.83864 1.75975 1.187C2.51725 0.429498 3.54387 0.00273057 4.61514 6.76403e-06H4.61812L4.62545 0H33.9559C35.0272 0.00272381 36.0538 0.429491 36.8113 1.18699C37.4631 1.83878 37.87 2.6898 37.9726 3.59707C37.9896 3.74371 37.9983 3.89232 37.9983 4.04238V21.8462V52V60.9576C37.9972 62.0294 37.571 63.0569 36.8131 63.8148C36.0553 64.5727 35.0277 64.9989 33.9559 65H33.9488L33.9456 65L4.62545 65L4.61514 65C3.54336 64.9989 2.5158 64.5727 1.75795 63.8148C1.00009 63.057 0.573846 62.0294 0.572754 60.9576ZM4.1168 9.64786L34.4543 9.64786V22.1206V51.5935V53.2288H4.1168L4.1168 9.64786ZM16.7076 3.80818C16.1398 3.81019 15.6951 4.26647 15.6951 4.82444C15.6951 5.38365 16.1418 5.83968 16.7113 5.83968H21.8636C22.4313 5.8376 22.876 5.38238 22.876 4.82445C22.876 4.26524 22.4293 3.80818 21.8597 3.80818H16.7076ZM23.0321 60.4364C22.9151 60.4841 22.7903 60.5094 22.6641 60.5109L22.6521 60.5109H15.9293L15.9285 60.5109H15.9189L15.91 60.5109C15.7828 60.5098 15.6569 60.4845 15.539 60.4364C15.4151 60.3859 15.3026 60.3112 15.2079 60.2167C15.1133 60.1221 15.0385 60.0097 14.9878 59.8859C14.9372 59.7621 14.9118 59.6294 14.913 59.4956C14.913 58.9378 15.3576 58.4815 15.9252 58.4794H22.6418C23.2113 58.4794 23.6581 58.9364 23.6581 59.4956C23.6593 59.6294 23.6339 59.7621 23.5832 59.8859C23.5326 60.0097 23.4578 60.1221 23.3631 60.2167C23.2685 60.3112 23.1559 60.3859 23.0321 60.4364ZM25.8808 34.0307C25.7574 33.9803 25.645 33.906 25.5503 33.8121C25.4555 33.7183 25.3801 33.6067 25.3284 33.4838C25.2767 33.3608 25.2498 33.2289 25.2491 33.0955C25.2484 32.9621 25.274 32.8299 25.3245 32.7065C25.3749 32.583 25.4492 32.4707 25.5431 32.3759L29.0799 28.8061L25.5431 25.2362C25.3652 25.0426 25.2694 24.7875 25.2756 24.5247C25.2819 24.2618 25.3898 24.0116 25.5766 23.8267C25.7635 23.6417 26.0148 23.5363 26.2776 23.5327C26.5405 23.5291 26.7946 23.6275 26.9865 23.8073L31.2311 28.0911C31.4197 28.2812 31.5256 28.5382 31.5256 28.8061C31.5256 29.0739 31.4197 29.3309 31.2311 29.5211L26.9865 33.8049C26.8927 33.8997 26.7811 33.9751 26.6581 34.0268C26.5352 34.0785 26.4033 34.1054 26.2699 34.1061C26.1365 34.1068 26.0043 34.0811 25.8808 34.0307ZM12.6843 23.5817C12.8078 23.6323 12.92 23.7069 13.0146 23.8011C13.1094 23.8949 13.1848 24.0054 13.2365 24.1284C13.2881 24.2513 13.3151 24.3833 13.3158 24.5167C13.3164 24.65 13.2908 24.7822 13.2404 24.9057C13.1899 25.0292 13.1157 25.1415 13.0218 25.2362L9.48601 28.8061L13.0218 32.3759C13.2113 32.5673 13.317 32.8262 13.3156 33.0955C13.3143 33.3649 13.206 33.6226 13.0146 33.8121C12.8232 34.0016 12.5643 34.1073 12.295 34.106C12.0256 34.1046 11.7679 33.9963 11.5784 33.8049L7.33482 29.5211C7.14618 29.3309 7.04033 29.0739 7.04033 28.8061C7.04033 28.5382 7.14618 28.2812 7.33482 28.0911L11.5784 23.8073C11.6721 23.7123 11.7837 23.6367 11.9067 23.585C12.0297 23.5333 12.1617 23.5063 12.2952 23.5057C12.4286 23.5052 12.5609 23.531 12.6843 23.5817ZM14.9584 35.9324L20.9198 20.9308C20.969 20.8068 21.0421 20.6937 21.135 20.598C21.2279 20.5023 21.3387 20.4258 21.4611 20.3729C21.5836 20.32 21.7152 20.2918 21.8486 20.2898C21.982 20.2878 22.1144 20.3121 22.2384 20.3612C22.3624 20.4104 22.4754 20.4835 22.5711 20.5764C22.6669 20.6693 22.7434 20.7801 22.7962 20.9026C22.8491 21.025 22.8774 21.1567 22.8794 21.29C22.8814 21.4234 22.8571 21.5558 22.8079 21.6798L16.8465 36.6814C16.7973 36.8054 16.7242 36.9184 16.6313 37.0142C16.5384 37.1099 16.4276 37.1864 16.3051 37.2393C16.1827 37.2921 16.051 37.3204 15.9177 37.3224C15.7843 37.3244 15.6519 37.3001 15.5279 37.2509C15.4039 37.2017 15.2909 37.1286 15.1951 37.0357C15.0994 36.9429 15.0229 36.832 14.9701 36.7096C14.9172 36.5872 14.8889 36.4555 14.8869 36.3221C14.8849 36.1888 14.9092 36.0563 14.9584 35.9324Z" fill="#202430"/>
</g>
</svg>
