<svg width="69" height="65" viewBox="0 0 69 65" fill="none" xmlns="http://www.w3.org/2000/svg">
<g id="Group">
<g id="Group_2">
<g id="Group_3">
<path id="Vector" fill-rule="evenodd" clip-rule="evenodd" d="M14.6658 15.9726H11.6881C11.8773 15.5481 11.9838 15.0775 11.9838 14.5815C11.9838 14.0871 11.8789 13.6165 11.6881 13.1905H15.8263C16.4988 13.1905 17.0743 13.6722 17.1951 14.3335L23.2888 48.0211C23.6306 49.9098 24.8213 51.9367 26.9787 51.9367H60.3197C61.0875 51.9367 61.7107 52.5599 61.7107 53.3278C61.7107 54.0957 61.0875 54.7189 60.3197 54.7189H26.9787C26.1091 54.7189 25.2569 54.5376 24.4684 54.1688C22.2332 53.1259 20.9772 50.8652 20.5528 48.5171L14.6658 15.9726ZM42.9656 9.11426C38.3377 9.11426 34.5238 12.6706 34.112 17.1951H51.8175C51.4073 12.6706 47.5934 9.11426 42.9656 9.11426Z" fill="#202430"/>
<path id="Vector_2" fill-rule="evenodd" clip-rule="evenodd" d="M32.4905 17.1935C32.9054 11.7771 37.4442 7.49743 42.9656 7.49743C48.4869 7.49743 53.0257 11.7771 53.4407 17.1935H60.9715V16.5974C60.9715 16.5847 60.9699 16.5799 60.9699 16.5799C60.9619 16.564 60.8872 16.4638 60.4246 16.2874L56.2434 14.6944C56.1279 14.65 56.024 14.5798 55.9397 14.4892C55.8554 14.3985 55.7929 14.2898 55.757 14.1714C55.4967 13.3054 55.1494 12.4681 54.7204 11.6722C54.6616 11.5632 54.6287 11.4421 54.6243 11.3183C54.6198 11.1945 54.644 11.0713 54.695 10.9584L56.5264 6.87424C56.7267 6.42751 56.7093 6.30191 56.7029 6.27965C56.7029 6.27965 56.6997 6.27489 56.6918 6.26853L54.7045 4.2797C54.7005 4.27508 54.6957 4.2713 54.6902 4.26858C54.6727 4.26381 54.5487 4.24473 54.0972 4.44663L50.0115 6.27807C49.7826 6.37981 49.5187 6.37186 49.2977 6.25263C48.5028 5.82339 47.6618 5.47522 46.8001 5.21609C46.6816 5.18018 46.5729 5.11769 46.4823 5.03338C46.3917 4.94907 46.3215 4.84517 46.2771 4.72961L44.6841 0.546886C44.5092 0.0906176 44.4091 0.0127183 44.3884 0H41.5602C41.5475 0 41.5427 0.00158952 41.5427 0.00158952C41.5268 0.00953845 41.4266 0.0842584 41.2502 0.546886L39.6556 4.72802C39.6112 4.84359 39.541 4.94748 39.4504 5.03179C39.3598 5.1161 39.2511 5.17859 39.1326 5.2145C38.2664 5.47405 37.429 5.82136 36.6334 6.25104C36.4125 6.37027 36.1486 6.37981 35.9196 6.27648L31.8339 4.44504C31.3871 4.24473 31.2616 4.26222 31.2393 4.26699C31.2393 4.26699 31.2345 4.27017 31.2282 4.27811L29.2393 6.26694C29.2347 6.27092 29.2309 6.27579 29.2282 6.28124C29.2234 6.29873 29.2044 6.42115 29.4063 6.87424L31.2377 10.9584C31.341 11.1873 31.3315 11.4512 31.2123 11.6722C30.783 12.4671 30.4349 13.3081 30.1757 14.1714C30.1398 14.2898 30.0773 14.3985 29.993 14.4892C29.9087 14.5798 29.8048 14.65 29.6893 14.6944L25.5081 16.2874C25.0518 16.4622 24.9739 16.5624 24.9612 16.5831V17.1919H32.4905V17.1935ZM56.8794 18.8104V26.9405L67.5818 26.923L68.6549 21.0758C68.7614 20.4971 68.4991 20.0361 68.2622 19.7499C67.7853 19.1776 66.9888 18.8088 66.2305 18.8088H61.8315C61.8141 18.8103 61.7982 18.8104 61.7807 18.8104C61.7632 18.8104 61.7473 18.8103 61.7298 18.8088H56.8794V18.8104ZM55.2641 26.9437V18.8104H52.7141C52.6966 18.8119 52.6807 18.8119 52.6632 18.8119C52.6458 18.8119 52.6299 18.8119 52.6124 18.8104H43.7732V26.9628L55.2641 26.9437ZM67.2845 28.5383L56.8794 28.5557V37.8989L65.5707 37.8846L67.2845 28.5383ZM65.2734 39.5014L56.8794 39.5157V44.4727L62.4261 43.9624C63.7186 43.8447 64.6518 42.8861 64.9253 41.4028L65.2734 39.5014ZM55.2641 37.9021V28.5589L43.7732 28.578V37.9212L55.2641 37.9021ZM55.2641 39.5173L43.7732 39.5364V45.6761L55.2641 44.6205V39.5173ZM42.1564 45.824V39.5396L30.667 39.5587V46.8796L42.1564 45.824ZM30.667 37.9434L42.1564 37.9228V28.5812L30.667 28.6003V37.9434ZM30.667 26.985L42.1579 26.966V18.8104H33.3187C33.3012 18.8119 33.2854 18.8119 33.2679 18.8119C33.2504 18.8119 33.2345 18.8119 33.217 18.8104H30.6686V26.985H30.667ZM1.78692 16.3684C0.801252 16.3684 0 15.5672 0 14.5815C0 13.5959 0.801252 12.7946 1.78692 12.7946H8.56895C9.55461 12.7946 10.3559 13.5959 10.3559 14.5815C10.3559 15.5672 9.55461 16.3684 8.56895 16.3684H1.78692ZM29.0502 26.9866V18.8104H24.2411C24.1819 18.8169 24.1222 18.8169 24.063 18.8104H19.6609L21.1426 27.0009L29.0502 26.9866ZM29.0502 28.6034L21.4351 28.6161L23.125 37.9561L29.0502 37.945V28.6034ZM29.0502 39.5618L23.4175 39.5714L24.8356 47.4154L29.0502 47.0291V39.5618ZM55.2625 59.8539C54.8095 59.8539 54.4422 60.2227 54.4422 60.6742C54.4422 61.1273 54.811 61.4945 55.2625 61.4945C55.7156 61.4945 56.0829 61.1257 56.0829 60.6742C56.0829 60.2227 55.714 59.8539 55.2625 59.8539Z" fill="#202430"/>
<path id="Vector_3" fill-rule="evenodd" clip-rule="evenodd" d="M55.2626 58.2404C56.6076 58.2404 57.6998 59.3341 57.6998 60.6775C57.6998 62.0209 56.606 63.1146 55.2626 63.1146C53.9176 63.1146 52.8255 62.0209 52.8255 60.6775C52.8255 59.3341 53.9192 58.2404 55.2626 58.2404ZM55.2626 56.3485C52.8779 56.3485 50.9368 58.2896 50.9368 60.6743C50.9368 63.059 52.8779 65.0001 55.2626 65.0001C57.6473 65.0001 59.5884 63.059 59.5884 60.6743C59.5884 58.2896 57.6473 56.3485 55.2626 56.3485ZM31.2076 60.6759C31.2076 60.4583 31.1211 60.2497 30.9673 60.0958C30.8134 59.942 30.6048 59.8556 30.3872 59.8556C30.1697 59.8556 29.961 59.942 29.8072 60.0958C29.6533 60.2497 29.5669 60.4583 29.5669 60.6759C29.5669 60.8935 29.6533 61.1021 29.8072 61.256C29.961 61.4098 30.1697 61.4962 30.3872 61.4962C30.6048 61.4962 30.8134 61.4098 30.9673 61.256C31.1211 61.1021 31.2076 60.8935 31.2076 60.6759Z" fill="#202430"/>
<path id="Vector_4" fill-rule="evenodd" clip-rule="evenodd" d="M30.3872 58.2404C31.7306 58.2404 32.8243 59.3341 32.8243 60.6775C32.8243 62.0209 31.7322 63.1146 30.3872 63.1146C29.0422 63.1146 27.9501 62.0209 27.9501 60.6775C27.9501 59.3341 29.0438 58.2404 30.3872 58.2404ZM30.3872 56.3485C28.0025 56.3485 26.0614 58.2896 26.0614 60.6743C26.0614 63.059 28.0025 65.0001 30.3872 65.0001C32.7719 65.0001 34.713 63.059 34.713 60.6743C34.713 58.2896 32.7735 56.3485 30.3872 56.3485Z" fill="#202430"/>
</g>
</g>
</g>
</svg>
