<svg width="62" height="65" viewBox="0 0 62 65" fill="none" xmlns="http://www.w3.org/2000/svg">
<g id="Group">
<g id="Group_2">
<path id="Vector" d="M40.6621 32.7715C40.3653 35.2034 39.2627 37.4658 37.5302 39.1979C35.3821 41.3472 32.3797 42.3591 28.6092 42.2067C25.9647 42.1014 24.7434 42.7932 24.5428 42.9189C23.7329 43.6286 22.7045 44.0171 21.6191 44.0171C20.4321 44.0171 19.3161 43.555 18.477 42.7158C17.0284 41.2673 16.7948 39.0329 17.7838 37.3304L18.4935 36.2056C18.7347 35.6178 19.061 34.4575 18.9848 32.5824C18.8337 28.8106 19.8455 25.8094 21.9936 23.6613C23.7532 21.903 26.0028 20.8137 28.4352 20.523C28.7799 18.8687 29.5229 17.3235 30.5998 16.0212H5.08462C2.28149 16.0212 0.000127005 18.3013 0.000127005 21.1045V46.3162H53.0414V21.2822L46.596 29.1813C45.0877 31.0225 42.993 32.2899 40.6621 32.7715ZM0.000127005 51.7498C0.000127005 54.5517 2.28149 56.8318 5.08462 56.8318H19.5344V61.1914H16.3316C15.2799 61.1914 14.4273 62.044 14.4273 63.0957C14.4273 64.1474 15.2799 65 16.3316 65H36.7093C37.761 65 38.6136 64.1474 38.6136 63.0957C38.6136 62.044 37.761 61.1914 36.7093 61.1914H33.5065V56.8318H47.9568C50.7599 56.8318 53.0413 54.5517 53.0413 51.7498V50.1248H0V51.7498H0.000127005Z" fill="#202430"/>
<path id="Vector_2" d="M21.2162 39.0807C21.2158 39.081 21.2154 39.0813 21.2151 39.0817C21.2149 39.0818 21.2147 39.082 21.2146 39.0823L21.2141 39.0828L21.2135 39.0834C21.2134 39.0838 21.2132 39.0838 21.2129 39.084L21.2127 39.0842L21.2121 39.0848L21.212 39.0849C21.2118 39.0851 21.2116 39.0853 21.2115 39.0856L21.2113 39.0857L21.2107 39.0863L21.2106 39.0864L21.2099 39.0871C21.0938 39.2071 21.0296 39.3681 21.0313 39.5351C21.033 39.7021 21.1005 39.8618 21.2191 39.9794C21.3377 40.097 21.4979 40.1631 21.665 40.1633C21.832 40.1636 21.9924 40.098 22.1114 39.9808C22.1503 39.944 24.0733 38.1663 28.8104 38.3567C31.4756 38.4641 33.519 37.8257 34.8846 36.4601C37.6831 33.6617 37.6831 29.1084 34.8846 26.3099C33.529 24.9543 31.7267 24.2077 29.8095 24.2077C27.8924 24.2077 26.09 24.9542 24.7344 26.3099C23.3689 27.6755 22.7307 29.7192 22.8379 32.3842C23.0293 37.1471 21.2315 39.0649 21.2171 39.0798L21.2162 39.0807ZM40.4971 28.8563C41.7501 28.4811 42.8624 27.7402 43.6913 26.7285L46.1245 23.7466L37.4566 15.0787L34.4872 17.504C33.4731 18.331 32.7299 19.4426 32.3531 20.6957C34.3158 21.1565 36.116 22.1556 37.5772 23.6169C39.0727 25.1124 40.0465 26.9342 40.4971 28.8563ZM60.0518 1.14351C59.371 0.459204 58.4595 0.0532339 57.4954 0.00487576C56.5313 -0.0434824 55.5838 0.269243 54.8378 0.881989L40.4212 12.6573L48.5446 20.7807L60.3146 6.35636C60.9269 5.61037 61.2392 4.663 61.1906 3.69915C61.142 2.73531 60.736 1.82415 60.0518 1.14351Z" fill="#202430"/>
</g>
</g>
</svg>
