<svg width="50" height="51" viewBox="0 0 50 51" fill="none" xmlns="http://www.w3.org/2000/svg">
<rect opacity="0.2" x="0.25" y="0.834961" width="49.4683" height="49.4683" rx="6.94292" fill="white"/>
<g clip-path="url(#clip0_84_1137)">
<path d="M39.2 14.2871H9.9096C9.76575 14.2871 9.62778 14.3443 9.52606 14.446C9.42433 14.5477 9.36719 14.6857 9.36719 14.8295V19.5936C9.37163 22.0564 10.1759 24.4511 11.6589 26.4174C13.1419 28.3836 15.2234 29.815 17.5902 30.4961C18.8754 31.9585 20.526 33.0532 22.3732 33.6682C22.3134 34.6699 22.014 35.6426 21.5002 36.5045C20.9863 37.3665 20.273 38.0925 19.4203 38.6215L18.4326 39.2382H17.5034C17.0718 39.2382 16.6579 39.4097 16.3528 39.7148C16.0476 40.02 15.8762 40.4339 15.8762 40.8655V41.9503C15.8762 42.0942 15.9333 42.2321 16.035 42.3338C16.1368 42.4356 16.2747 42.4927 16.4186 42.4927H32.691C32.8349 42.4927 32.9729 42.4356 33.0746 42.3338C33.1763 42.2321 33.2335 42.0942 33.2335 41.9503V40.8655C33.2335 40.4339 33.062 40.02 32.7569 39.7148C32.4517 39.4097 32.0378 39.2382 31.6062 39.2382H30.6771L29.6893 38.6209C28.8367 38.0919 28.1235 37.366 27.6097 36.5042C27.0959 35.6423 26.7964 34.6697 26.7364 33.6682C28.5858 33.0549 30.238 31.9593 31.5227 30.4945C33.8885 29.8128 35.9691 28.3814 37.4515 26.4155C38.9338 24.4497 39.7378 22.0557 39.7424 19.5936V14.8295C39.7424 14.6857 39.6853 14.5477 39.5836 14.446C39.4819 14.3443 39.3439 14.2871 39.2 14.2871ZM15.0349 25.3372C14.2708 24.5885 13.6637 23.6949 13.2494 22.7086C12.835 21.7224 12.6216 20.6633 12.6217 19.5936V17.5416H14.8206V23.237C14.8234 23.9424 14.8951 24.6458 15.0349 25.3372ZM10.452 19.5936V15.3719H14.8206V16.4568H12.0793C11.9354 16.4568 11.7974 16.5139 11.6957 16.6156C11.594 16.7174 11.5368 16.8553 11.5368 16.9992V19.5936C11.5374 21.0894 11.905 22.5622 12.6074 23.8829C13.3098 25.2035 14.3254 26.3317 15.5654 27.1684C15.7983 27.7735 16.0838 28.357 16.4186 28.9123C14.6396 28.0888 13.1329 26.7742 12.0759 25.1233C11.0189 23.4724 10.4555 21.5539 10.452 19.5936ZM26.0367 32.7493C25.9225 32.7811 25.8219 32.8493 25.7502 32.9436C25.6785 33.038 25.6397 33.1532 25.6396 33.2716C25.6379 34.4371 25.9138 35.5862 26.4446 36.6238C26.9754 37.6614 27.7457 38.5576 28.6918 39.2382H24.5548C24.411 39.2382 24.273 39.2954 24.1713 39.3971C24.0695 39.4988 24.0124 39.6368 24.0124 39.7806C24.0124 39.9245 24.0695 40.0625 24.1713 40.1642C24.273 40.2659 24.411 40.323 24.5548 40.323H31.6062C31.7501 40.323 31.888 40.3802 31.9898 40.4819C32.0915 40.5836 32.1486 40.7216 32.1486 40.8655V41.4079H16.961V40.8655C16.961 40.7216 17.0181 40.5836 17.1199 40.4819C17.2216 40.3802 17.3596 40.323 17.5034 40.323H22.3852C22.529 40.323 22.667 40.2659 22.7687 40.1642C22.8704 40.0625 22.9276 39.9245 22.9276 39.7806C22.9276 39.6368 22.8704 39.4988 22.7687 39.3971C22.667 39.2954 22.529 39.2382 22.3852 39.2382H20.4178C21.3639 38.5576 22.1343 37.6614 22.6651 36.6238C23.1958 35.5862 23.4718 34.4371 23.47 33.2716C23.4671 33.1522 23.4262 33.0369 23.3531 32.9424C23.28 32.8479 23.1786 32.7793 23.0637 32.7466C21.0046 32.1455 19.1949 30.8947 17.9049 29.1809C16.6148 27.4671 15.9135 25.382 15.9055 23.237V15.3719H33.2042V23.237C33.1956 25.3836 32.493 27.4698 31.2012 29.1842C29.9094 30.8987 28.0977 32.1493 26.0367 32.7493ZM38.6576 19.5936C38.6541 21.5538 38.0907 23.4722 37.0337 25.123C35.9766 26.7739 34.47 28.0883 32.691 28.9117C33.0269 28.3559 33.3128 27.7714 33.5454 27.1651C35.171 26.0562 36.401 24.4582 37.057 22.6029C37.0818 22.5354 37.093 22.4636 37.0899 22.3917C37.0868 22.3198 37.0694 22.2493 37.0387 22.1842C37.0081 22.1191 36.9648 22.0608 36.9114 22.0126C36.8579 21.9644 36.7955 21.9273 36.7276 21.9035C36.6597 21.8797 36.5877 21.8696 36.5159 21.8738C36.4441 21.8781 36.3738 21.8966 36.3092 21.9283C36.2446 21.9599 36.187 22.0042 36.1396 22.0583C36.0923 22.1125 36.0562 22.1755 36.0334 22.2438C35.6228 23.4041 34.9552 24.4565 34.0807 25.3226C34.2184 24.6349 34.2891 23.9355 34.2917 23.2343V17.5416H36.488V19.5936C36.4868 19.9705 36.4594 20.347 36.4061 20.7202C36.3859 20.8626 36.4232 21.0071 36.5097 21.1221C36.5961 21.237 36.7247 21.3129 36.8671 21.3331C36.8924 21.3368 36.918 21.3386 36.9436 21.3385C37.0742 21.3384 37.2003 21.2911 37.2989 21.2054C37.3974 21.1197 37.4618 21.0013 37.48 20.872C37.5405 20.4485 37.5715 20.0214 37.5728 19.5936V16.9992C37.5728 16.8553 37.5156 16.7174 37.4139 16.6156C37.3122 16.5139 37.1742 16.4568 37.0304 16.4568H34.289V15.3719H38.6576V19.5936Z" fill="#00FFFF"/>
<path d="M15.8762 31.1022C15.8762 30.9583 15.819 30.8204 15.7173 30.7186C15.6156 30.6169 15.4776 30.5598 15.3338 30.5598C15.1899 30.5598 15.0519 30.6169 14.9502 30.7186C14.8485 30.8204 14.7913 30.9583 14.7913 31.1022V36.2676L12.8229 35.48C12.6936 35.429 12.5498 35.429 12.4204 35.48L10.452 36.2671L10.4569 26.2204C10.4569 26.0766 10.3998 25.9386 10.298 25.8369C10.1963 25.7352 10.0583 25.678 9.91448 25.678C9.77063 25.678 9.63266 25.7352 9.53094 25.8369C9.42922 25.9386 9.37207 26.0766 9.37207 26.2204L9.36719 37.0688C9.36715 37.1574 9.38885 37.2447 9.43036 37.323C9.47188 37.4013 9.53195 37.4683 9.60533 37.518C9.67871 37.5677 9.76316 37.5987 9.85128 37.6082C9.93941 37.6178 10.0285 37.6055 10.1108 37.5727L12.6217 36.5681L15.1325 37.5727C15.2148 37.6056 15.3039 37.6179 15.392 37.6084C15.4802 37.599 15.5646 37.5681 15.6381 37.5184C15.7115 37.4686 15.7716 37.4016 15.8131 37.3232C15.8546 37.2448 15.8763 37.1575 15.8762 37.0688V31.1022ZM39.1952 25.678C39.0513 25.678 38.9133 25.7352 38.8116 25.8369C38.7099 25.9386 38.6527 26.0766 38.6527 26.2204L38.6576 36.2671L36.6897 35.48C36.5604 35.429 36.4166 35.429 36.2873 35.48L34.3183 36.2676V31.1022C34.3183 30.9583 34.2611 30.8204 34.1594 30.7186C34.0577 30.6169 33.9197 30.5598 33.7759 30.5598C33.632 30.5598 33.4941 30.6169 33.3923 30.7186C33.2906 30.8204 33.2335 30.9583 33.2335 31.1022V37.0688C33.2335 37.2126 33.2906 37.3506 33.3923 37.4523C33.4941 37.554 33.632 37.6112 33.7759 37.6112C33.8448 37.6114 33.9131 37.5983 33.9771 37.5727L36.488 36.5681L38.9988 37.5727C39.0811 37.6055 39.1702 37.6178 39.2584 37.6082C39.3465 37.5987 39.4309 37.5677 39.5043 37.518C39.5777 37.4683 39.6378 37.4013 39.6793 37.323C39.7208 37.2447 39.7425 37.1574 39.7424 37.0688L39.7376 26.2204C39.7376 26.0766 39.6804 25.9386 39.5787 25.8369C39.477 25.7352 39.339 25.678 39.1952 25.678ZM24.5548 11.0328C24.6987 11.0328 24.8366 10.9757 24.9384 10.8739C25.0401 10.7722 25.0972 10.6343 25.0972 10.4904V8.32074C25.0972 8.17688 25.0401 8.03891 24.9384 7.93719C24.8366 7.83547 24.6987 7.77832 24.5548 7.77832C24.411 7.77832 24.273 7.83547 24.1713 7.93719C24.0695 8.03891 24.0124 8.17688 24.0124 8.32074V10.4904C24.0124 10.6343 24.0695 10.7722 24.1713 10.8739C24.273 10.9757 24.411 11.0328 24.5548 11.0328ZM28.8941 12.6601C29.038 12.66 29.1759 12.6029 29.2776 12.5011L30.587 11.1917C30.6858 11.0894 30.7405 10.9524 30.7393 10.8102C30.738 10.668 30.681 10.5319 30.5804 10.4314C30.4798 10.3308 30.3438 10.2738 30.2016 10.2725C30.0594 10.2713 29.9223 10.326 29.82 10.4248L28.5107 11.7342C28.4348 11.81 28.3832 11.9067 28.3623 12.0119C28.3413 12.1171 28.3521 12.2261 28.3931 12.3252C28.4342 12.4243 28.5037 12.509 28.5929 12.5686C28.682 12.6282 28.7869 12.66 28.8941 12.6601ZM19.832 12.5011C19.9343 12.5999 20.0713 12.6546 20.2135 12.6534C20.3558 12.6521 20.4918 12.5951 20.5924 12.4945C20.6929 12.394 20.75 12.2579 20.7512 12.1157C20.7525 11.9735 20.6978 11.8365 20.599 11.7342L19.2896 10.4248C19.2396 10.373 19.1797 10.3316 19.1135 10.3032C19.0473 10.2748 18.9762 10.2598 18.9042 10.2592C18.8321 10.2586 18.7607 10.2723 18.694 10.2996C18.6274 10.3268 18.5668 10.3671 18.5159 10.418C18.465 10.469 18.4247 10.5295 18.3974 10.5962C18.3701 10.6629 18.3564 10.7343 18.357 10.8063C18.3577 10.8783 18.3726 10.9495 18.4011 11.0157C18.4295 11.0819 18.4708 11.1417 18.5226 11.1917L19.832 12.5011Z" fill="#00FFFF"/>
</g>
<defs>
<clipPath id="clip0_84_1137">
<rect width="34.7146" height="34.7146" fill="white" transform="translate(7.19531 7.77734)"/>
</clipPath>
</defs>
</svg>
