<svg width="50" height="51" viewBox="0 0 50 51" fill="none" xmlns="http://www.w3.org/2000/svg">
<rect opacity="0.2" x="0.316406" y="0.834961" width="49.4683" height="49.4683" rx="6.94292" fill="white"/>
<g clip-path="url(#clip0_84_1138)">
<path d="M20.251 21.3266C20.3138 16.4716 14.634 13.4838 10.7138 16.3382C10.6055 16.4168 10.5326 16.535 10.5109 16.667C10.4892 16.799 10.5204 16.9343 10.5977 17.0435C10.675 17.1527 10.7923 17.227 10.9241 17.2503C11.0558 17.2735 11.1915 17.244 11.3016 17.1679C14.5658 14.7924 19.287 17.2852 19.2342 21.3267C19.2342 24.128 16.9734 26.407 14.1945 26.407C10.473 26.4539 7.97083 22.2973 9.71289 19.0037C9.77427 18.8836 9.78544 18.7441 9.74395 18.6158C9.70245 18.4875 9.6117 18.381 9.49164 18.3196C9.37159 18.2582 9.23207 18.247 9.10378 18.2885C8.97549 18.33 8.86894 18.4208 8.80756 18.5408C6.71628 22.4968 9.72428 27.4798 14.1945 27.4238C17.5341 27.4237 20.251 24.6885 20.251 21.3266Z" fill="#00FFFF"/>
<path d="M12.4914 24.0115C12.5947 24.0115 12.6955 23.98 12.7805 23.9213C12.8654 23.8625 12.9305 23.7793 12.967 23.6827L13.2469 22.9425H15.1504L15.4273 23.6813C15.4746 23.8076 15.5701 23.9099 15.6928 23.9657C15.8156 24.0215 15.9555 24.0263 16.0817 23.979C16.208 23.9317 16.3103 23.8362 16.3661 23.7135C16.422 23.5907 16.4267 23.4508 16.3794 23.3246L14.7715 19.0327C14.7278 18.9177 14.6501 18.8187 14.5488 18.7489C14.4474 18.679 14.3273 18.6416 14.2042 18.6416C14.0836 18.6414 13.9657 18.6774 13.8657 18.7449C13.7657 18.8123 13.6881 18.9082 13.6431 19.0201L13.6387 19.0314L12.0161 23.3231C11.8989 23.633 12.1703 24.0115 12.4914 24.0115ZM14.203 20.4137L14.7695 21.9257H13.6313L14.203 20.4137ZM27.4745 14.8779C27.4745 14.339 27.2203 13.8588 26.8266 13.5512C27.5062 12.5842 26.7748 11.1759 25.5837 11.1935H24.3285C24.1936 11.1935 24.0643 11.2471 23.969 11.3424C23.8736 11.4378 23.8201 11.5671 23.8201 11.7019V16.0549C23.8201 16.308 24.0731 16.5633 24.3308 16.5633C24.3308 16.5633 25.4849 16.5581 25.803 16.5581C26.7246 16.558 27.4745 15.8043 27.4745 14.8779ZM25.5838 12.2102C26.2266 12.2312 26.2258 13.177 25.582 13.1967C25.3336 13.1978 25.0853 13.1982 24.8369 13.1978V12.2102H25.5838ZM24.8368 14.216C25.1589 14.2147 25.4809 14.2142 25.8029 14.2145C26.6696 14.2457 26.6692 15.5102 25.8029 15.5411C25.6256 15.5411 25.1894 15.5428 24.8368 15.5442V14.216ZM36.7899 15.2293C33.4503 15.2293 30.7334 17.9645 30.7334 21.3265C31.0385 29.4043 42.5425 29.4021 42.8465 21.3264C42.8465 17.9645 40.1295 15.2293 36.7899 15.2293ZM36.7899 26.4069C34.011 26.4069 31.7502 24.1278 31.7502 21.3265C32.0042 14.5957 41.5767 14.5975 41.8297 21.3266C41.8297 24.1277 39.5689 26.4069 36.7899 26.4069Z" fill="#00FFFF"/>
<path d="M38.5663 22.4978C38.4626 22.4116 38.329 22.37 38.1947 22.3823C38.0605 22.3946 37.9366 22.4597 37.8503 22.5633C36.9025 23.5914 35.1834 22.6435 35.2276 21.3265C35.2105 20.0144 36.7281 19.1924 37.8019 19.942C37.9134 20.0179 38.0504 20.0463 38.1829 20.0211C38.3154 19.996 38.4324 19.9192 38.5083 19.8077C38.5841 19.6962 38.6126 19.5592 38.5874 19.4267C38.5622 19.2943 38.4854 19.1773 38.374 19.1014C36.6418 17.8908 34.1835 19.2099 34.2109 21.3266C34.1507 23.5758 37.1029 24.9876 38.6318 23.2138C38.7181 23.1102 38.7596 22.9765 38.7473 22.8422C38.735 22.708 38.6699 22.5841 38.5663 22.4978ZM34.3948 34.4582C34.26 34.4582 34.1307 34.5117 34.0353 34.6071C33.94 34.7024 33.8864 34.8317 33.8864 34.9666C33.8864 36.0026 33.503 36.9929 32.8091 37.7523L31.8446 38.7932C31.7576 38.8871 31.7092 39.0103 31.7091 39.1383L31.707 41.978C31.707 42.0447 31.7201 42.1109 31.7456 42.1726C31.7711 42.2342 31.8085 42.2903 31.8557 42.3376C31.9029 42.3848 31.9589 42.4223 32.0206 42.4479C32.0822 42.4735 32.1483 42.4867 32.2151 42.4867H32.2154C32.3502 42.4867 32.4794 42.4332 32.5748 42.3379C32.6701 42.2426 32.7237 42.1134 32.7238 41.9787L32.7257 39.3381L33.5573 38.4406C34.4252 37.4907 34.9031 36.2569 34.9031 34.9664C34.9031 34.8997 34.89 34.8336 34.8644 34.7719C34.8389 34.7102 34.8015 34.6542 34.7542 34.607C34.707 34.5598 34.651 34.5224 34.5893 34.4968C34.5277 34.4713 34.4616 34.4582 34.3948 34.4582Z" fill="#00FFFF"/>
<path d="M31.9705 30.4753V29.2032C31.9871 27.9258 33.9107 28.0922 33.8835 29.3439L33.885 32.0145C33.885 32.1492 33.9386 32.2785 34.034 32.3738C34.1293 32.4691 34.2586 32.5226 34.3934 32.5226H34.3936C34.4604 32.5225 34.5265 32.5094 34.5882 32.4838C34.6498 32.4582 34.7058 32.4207 34.753 32.3735C34.8002 32.3262 34.8376 32.2702 34.8631 32.2085C34.8887 32.1468 34.9018 32.0807 34.9017 32.0139L34.9002 29.3436C34.9336 27.7594 33.1737 26.8029 31.8456 27.5732C31.4228 26.4147 29.871 25.9877 28.8644 26.6495C28.4137 25.6767 27.075 25.3436 26.1451 25.8243V19.939C33.7055 18.8422 33.1253 8.06025 25.4912 7.78125C19.4519 7.80945 17.1802 15.7651 22.2389 19.0226C22.1199 19.5518 22.227 28.9202 22.1956 32.5286L18.906 29.6137C18.1736 28.9644 16.9841 29.1849 16.3577 29.8526C15.6714 30.5841 15.6236 31.6226 16.2414 32.3778L16.2489 32.3867L22.196 39.3268V41.9784C22.196 42.1133 22.2496 42.2426 22.3449 42.3379C22.4403 42.4333 22.5696 42.4868 22.7044 42.4868C22.8392 42.4868 22.9685 42.4333 23.0639 42.3379C23.1592 42.2426 23.2128 42.1133 23.2128 41.9784V39.1388C23.2128 39.0175 23.1694 38.9001 23.0904 38.808L17.0251 31.73C16.6715 31.2933 16.8436 30.8208 17.0993 30.5481C17.3497 30.2812 17.8001 30.0838 18.2532 30.3938L22.3672 34.0391C22.4406 34.104 22.5311 34.1464 22.6279 34.1611C22.7247 34.1759 22.8237 34.1623 22.913 34.1221C23.0023 34.0819 23.0781 34.0168 23.1313 33.9345C23.1845 33.8523 23.2128 33.7564 23.2128 33.6585C23.2126 33.0941 23.2078 19.8318 23.2065 19.4804C23.2051 19.1292 23.3421 18.8713 23.6135 18.7135C23.9365 18.526 24.389 18.5256 24.7139 18.7126C24.9874 18.87 25.1266 19.1276 25.1281 19.4777V19.4785L25.1283 19.4807C25.1274 19.4794 25.1293 28.8607 25.1284 28.8607C25.1499 29.5327 26.1241 29.5327 26.1452 28.8607V27.5183C26.1452 26.9737 26.5626 26.6231 27.0908 26.6231C27.7923 26.6231 28.0412 27.1053 28.0412 27.5183V29.5592C28.0615 30.2302 29.0372 30.2319 29.058 29.5592V28.2204C29.058 27.5792 29.5485 27.3516 29.9685 27.3516C30.3345 27.3516 30.954 27.5494 30.954 28.2905V30.4753C30.9727 31.1451 31.95 31.1488 31.9705 30.4753ZM23.1028 17.8344C22.9646 17.9144 22.8375 18.0121 22.7245 18.125C18.5856 15.3752 20.5013 8.81889 25.4912 8.79802C31.8241 9.02659 32.3314 17.9753 26.0697 18.9249C25.9402 18.4608 25.6469 18.0764 25.2211 17.8313C24.5862 17.466 23.7349 17.4672 23.1028 17.8344Z" fill="#00FFFF"/>
</g>
<defs>
<clipPath id="clip0_84_1138">
<rect width="34.7146" height="34.7146" fill="white" transform="translate(8.125 7.77734)"/>
</clipPath>
</defs>
</svg>
