<svg width="50" height="50" viewBox="0 0 50 50" fill="none" xmlns="http://www.w3.org/2000/svg">
<rect opacity="0.2" x="0.25" y="0.00195312" width="49.4683" height="49.4683" rx="6.94292" fill="white"/>
<g clip-path="url(#clip0_84_1139)">
<path d="M27.7391 22.6208C27.7391 21.3329 26.6945 20.2852 25.4106 20.2852C24.1266 20.2852 23.082 21.3329 23.082 22.6208C23.082 23.7039 23.8209 24.6169 24.8195 24.88L24.8313 27.3548C24.8329 27.6816 25.0983 27.9371 25.4247 27.9371H25.4276C25.7553 27.9371 26.0196 27.6803 26.0182 27.3525L26.0064 24.8786C27.0026 24.6139 27.7391 23.7021 27.7391 22.6208ZM25.4107 23.7696C24.7811 23.7696 24.2689 23.2542 24.2689 22.6208C24.2689 21.9873 24.781 21.472 25.4107 21.472C26.0401 21.472 26.5523 21.9873 26.5523 22.6208C26.5523 23.2542 26.0401 23.7696 25.4107 23.7696Z" fill="#00FFFF"/>
<path d="M40.5496 21.9289C39.5271 21.9289 38.6639 22.5961 38.4033 23.5604H34.409C34.6433 22.4477 34.8137 21.3351 34.9462 20.1483H37.8444C38.1721 20.1483 38.4007 19.9056 38.4007 19.5779V13.9108C39.365 13.6517 40.0565 12.7885 40.0565 11.7659C40.0565 10.5391 39.0666 9.54102 37.8383 9.54102C36.6101 9.54102 35.597 10.5391 35.597 11.7659C35.597 12.7862 36.3237 13.6478 37.2138 13.909V18.9614H35.0689C35.1552 18.0713 35.2239 17.1126 35.2878 16.1675C35.3134 15.7887 34.9721 15.4999 34.6045 15.557C33.8998 15.6918 33.1873 15.7934 32.4684 15.7934C30.0807 15.7932 27.8867 14.7105 25.7968 12.5165C25.4996 12.2633 25.2074 12.2687 24.9201 12.5327C22.7007 15.1364 19.6211 16.2188 16.2356 15.5568C15.8666 15.4846 15.504 15.7886 15.5296 16.1676C15.5947 17.1277 15.6631 18.0713 15.7467 18.9614H13.7741V13.909C14.6642 13.6478 15.3986 12.7863 15.3986 11.7659C15.3986 10.5391 14.3963 9.54102 13.1681 9.54102C11.9399 9.54102 10.9453 10.5391 10.9453 11.7659C10.9453 12.7886 11.623 13.6517 12.5873 13.9108V19.5778C12.5873 19.9055 12.8404 20.1482 13.1681 20.1482H15.8668C15.9979 21.335 16.1652 22.4476 16.3959 23.5603H12.4364C12.1757 22.596 11.3125 21.9289 10.29 21.9289C9.06173 21.9289 8.0625 22.927 8.0625 24.1539C8.0625 25.3806 9.06173 26.3786 10.2899 26.3786C11.3125 26.3786 12.1756 25.7115 12.4363 24.7472H16.6789C16.9967 25.9366 17.4459 27.0398 17.9464 28.1593H13.1681C12.8404 28.1593 12.5873 28.402 12.5873 28.7297V34.6943C11.623 34.9545 10.947 35.8168 10.947 36.8384C10.947 38.0652 11.943 39.0632 13.1713 39.0632C14.3995 39.0632 15.4034 38.0652 15.4034 36.8384C15.4034 35.8168 14.7384 34.9545 13.7741 34.6943V29.3461H18.6257C20.1454 31.7198 22.318 33.3916 25.2097 34.4699C25.3462 34.5118 25.4922 34.5121 25.629 34.471C28.4939 33.3749 30.6512 31.6456 32.166 29.3461H37.2138V34.6943C36.3237 34.9545 35.5984 35.8168 35.5984 36.8384C35.5984 38.0652 36.6069 39.0632 37.8352 39.0632C39.0634 39.0632 40.0487 38.0652 40.0487 36.8384C40.0487 35.8168 39.365 34.9545 38.4007 34.6943V28.7298C38.4007 28.4021 38.1721 28.1594 37.8444 28.1594H32.8492C33.3593 27.0433 33.8074 25.9352 34.1245 24.7473H38.4032C38.6639 25.7116 39.527 26.3787 40.5496 26.3787C41.7779 26.3786 42.7771 25.3806 42.7771 24.1538C42.7771 22.927 41.7779 21.9289 40.5496 21.9289ZM36.8071 11.7659C36.8071 11.1934 37.2739 10.7278 37.8476 10.7278C38.4214 10.7278 38.8882 11.1934 38.8882 11.7659C38.8882 12.3383 38.4214 12.8039 37.8476 12.8039C37.2739 12.8039 36.8071 12.3383 36.8071 11.7659ZM12.1243 11.7659C12.1243 11.1934 12.5911 10.7278 13.1649 10.7278C13.7386 10.7278 14.2055 11.1934 14.2055 11.7659C14.2055 12.3383 13.7386 12.8039 13.1649 12.8039C12.5911 12.8039 12.1243 12.3383 12.1243 11.7659ZM10.2899 25.1918C9.71619 25.1918 9.24932 24.7262 9.24932 24.1539C9.24932 23.5814 9.71619 23.1158 10.2899 23.1158C10.8637 23.1158 11.3306 23.5814 11.3306 24.1539C11.3306 24.7262 10.8638 25.1918 10.2899 25.1918ZM14.2087 36.8384C14.2087 37.4108 13.7418 37.8764 13.1681 37.8764C12.5943 37.8764 12.1275 37.4108 12.1275 36.8384C12.1275 36.266 12.5943 35.8004 13.1681 35.8004C13.7418 35.8004 14.2087 36.266 14.2087 36.8384ZM38.885 36.8384C38.885 37.4108 38.4182 37.8764 37.8444 37.8764C37.2707 37.8764 36.8038 37.4108 36.8038 36.8384C36.8038 36.266 37.2707 35.8004 37.8444 35.8004C38.4182 35.8004 38.885 36.266 38.885 36.8384ZM16.7661 16.8443C19.9679 17.2569 23.2392 16.2595 25.3946 13.7927C27.7272 16.0544 30.7693 17.3872 34.0518 16.8398C33.497 24.4658 32.3539 30.5013 25.4143 33.2664C18.4706 30.5663 17.3247 24.5092 16.7661 16.8443ZM40.5496 25.1918C39.9759 25.1918 39.509 24.7262 39.509 24.1539C39.509 23.5814 39.9759 23.1158 40.5496 23.1158C41.1234 23.1158 41.5903 23.5814 41.5903 24.1539C41.5903 24.7262 41.1234 25.1918 40.5496 25.1918Z" fill="#00FFFF"/>
</g>
<defs>
<clipPath id="clip0_84_1139">
<rect width="34.7146" height="34.7146" fill="white" transform="translate(8.0625 6.94434)"/>
</clipPath>
</defs>
</svg>
