<svg width="50" height="50" viewBox="0 0 50 50" fill="none" xmlns="http://www.w3.org/2000/svg">
<rect opacity="0.2" x="0.316406" y="0.00195312" width="49.4683" height="49.4683" rx="6.94292" fill="white"/>
<path fill-rule="evenodd" clip-rule="evenodd" d="M38.2258 23.766C38.0839 23.7899 37.9574 23.8691 37.874 23.9863C37.7906 24.1035 37.7571 24.249 37.781 24.3908C37.8981 25.0851 37.9578 25.7848 37.9578 26.4705C37.9578 30.2934 36.2546 33.7442 33.5078 36.0419C33.2789 34.5378 32.6293 33.1291 31.634 31.9784C30.6388 30.8276 29.3384 29.9817 27.883 29.5384C28.4787 29.143 28.9675 28.6066 29.3057 27.9767C29.6439 27.3468 29.8211 26.643 29.8216 25.928C29.8216 23.5349 27.8754 21.5887 25.4823 21.5887C23.0891 21.5887 21.1429 23.5349 21.1429 25.928C21.1429 27.4338 21.9143 28.7595 23.0815 29.5384C21.6261 29.9817 20.3258 30.8276 19.3305 31.9784C18.3352 33.1291 17.6856 34.5378 17.4567 36.0419C16.0586 34.8704 14.9352 33.4056 14.1662 31.7516C13.3972 30.0975 13.0013 28.2945 13.0067 26.4705C13.0067 25.7848 13.0664 25.0862 13.1835 24.3908C13.1966 24.3201 13.1954 24.2474 13.1802 24.1771C13.1649 24.1068 13.1358 24.0403 13.0945 23.9813C13.0532 23.9224 13.0007 23.8722 12.9398 23.8338C12.879 23.7954 12.8111 23.7694 12.7402 23.7575C12.6692 23.7455 12.5966 23.7478 12.5266 23.7642C12.4565 23.7806 12.3904 23.8108 12.3321 23.853C12.2738 23.8951 12.2245 23.9485 12.1871 24.0099C12.1496 24.0714 12.1247 24.1396 12.1139 24.2108C11.9872 24.9573 11.923 25.7132 11.9219 26.4705C11.9219 33.1313 16.6799 38.754 23.2345 39.8388C23.3739 39.8569 23.5148 39.8201 23.6277 39.7362C23.7405 39.6524 23.8163 39.528 23.8392 39.3894C23.8622 39.2507 23.8304 39.1085 23.7505 38.9928C23.6707 38.8772 23.5491 38.797 23.4113 38.7692C21.639 38.4764 19.9513 37.8028 18.4645 36.7948C18.7238 33.114 21.7504 30.2674 25.4823 30.2674C29.2141 30.2674 32.2397 33.114 32.5011 36.7948C31.014 37.803 29.3259 38.4766 27.5532 38.7692C27.481 38.7785 27.4114 38.8023 27.3485 38.8392C27.2857 38.876 27.2309 38.9251 27.1875 38.9836C27.144 39.042 27.1128 39.1086 27.0956 39.1794C27.0785 39.2502 27.0758 39.3237 27.0877 39.3956C27.0995 39.4674 27.1258 39.5362 27.1648 39.5977C27.2038 39.6592 27.2548 39.7122 27.3148 39.7536C27.3747 39.7949 27.4424 39.8238 27.5137 39.8384C27.5851 39.8531 27.6586 39.8532 27.73 39.8388C34.2846 38.754 39.0426 33.1324 39.0426 26.4705C39.0426 25.7241 38.9776 24.9636 38.8506 24.2108C38.8391 24.1404 38.8137 24.073 38.776 24.0125C38.7382 23.952 38.6889 23.8996 38.6308 23.8582C38.5727 23.8169 38.507 23.7875 38.4375 23.7716C38.368 23.7558 38.296 23.7539 38.2258 23.766ZM22.2278 25.928C22.2278 24.1337 23.6879 22.6736 25.4823 22.6736C27.2766 22.6736 28.7368 24.1337 28.7368 25.928C28.7368 27.7224 27.2766 29.1825 25.4823 29.1825C23.6879 29.1825 22.2278 27.7224 22.2278 25.928ZM31.4228 12.8873C31.3916 12.7908 31.334 12.7051 31.2565 12.6397C31.1791 12.5743 31.0848 12.5319 30.9845 12.5174L27.5185 12.014L25.9683 8.87233C25.786 8.50349 25.1785 8.50349 24.9963 8.87233L23.446 12.014L19.98 12.5174C19.8798 12.5319 19.7857 12.5742 19.7083 12.6395C19.6309 12.7047 19.5733 12.7903 19.5421 12.8866C19.5108 12.9829 19.5071 13.086 19.5314 13.1843C19.5557 13.2826 19.607 13.3721 19.6795 13.4427L22.1876 15.8869L21.5953 19.3388C21.5781 19.4386 21.5893 19.5412 21.6274 19.6351C21.6656 19.7289 21.7293 19.8102 21.8112 19.8697C21.8932 19.9292 21.9902 19.9645 22.0912 19.9717C22.1923 19.979 22.2933 19.9577 22.3829 19.9105L25.4823 18.28L28.5816 19.9105C28.671 19.9584 28.7722 19.98 28.8734 19.9727C28.9747 19.9654 29.0717 19.9296 29.1533 19.8693C29.2354 19.8097 29.2991 19.7283 29.3373 19.6344C29.3755 19.5404 29.3865 19.4376 29.3692 19.3377L28.7769 15.8879L31.2861 13.4416C31.3586 13.3711 31.4099 13.2817 31.4342 13.1836C31.4585 13.0854 31.455 12.9824 31.4239 12.8862L31.4228 12.8873ZM27.8146 15.3076C27.7516 15.369 27.7045 15.4449 27.6773 15.5286C27.6501 15.6123 27.6436 15.7014 27.6584 15.7881L28.1141 18.4384L25.7339 17.1865C25.6559 17.1458 25.5692 17.1245 25.4812 17.1245C25.3932 17.1245 25.3065 17.1458 25.2284 17.1865L22.8494 18.4384L23.3039 15.7881C23.3187 15.7014 23.3123 15.6123 23.2851 15.5286C23.2579 15.4449 23.2107 15.369 23.1477 15.3076L21.2232 13.4319L23.8832 13.0457C23.9701 13.0329 24.0525 12.9993 24.1236 12.9477C24.1946 12.8962 24.2521 12.8282 24.2911 12.7495L25.4823 10.339L26.6723 12.7506C26.7113 12.8292 26.7688 12.8973 26.8399 12.9488C26.9109 13.0004 26.9934 13.034 27.0802 13.0468L29.7402 13.433L27.8157 15.3086L27.8146 15.3076Z" fill="#00FFFF"/>
<path fill-rule="evenodd" clip-rule="evenodd" d="M12.5023 21.6132C12.4849 21.7131 12.4958 21.8159 12.5339 21.9099C12.5719 22.0039 12.6356 22.0854 12.7176 22.145C12.7996 22.2046 12.8967 22.2401 12.9979 22.2474C13.099 22.2546 13.2002 22.2334 13.2899 22.186L15.7188 20.9081L18.1488 22.186C18.2381 22.2337 18.3391 22.2552 18.4401 22.2479C18.5411 22.2406 18.6379 22.2049 18.7194 22.1448C18.8015 22.0852 18.8653 22.0038 18.9034 21.9099C18.9416 21.8159 18.9526 21.7131 18.9353 21.6132L18.471 18.9087L20.4367 16.994C20.5096 16.9234 20.5612 16.8338 20.5856 16.7354C20.6101 16.6369 20.6065 16.5336 20.5752 16.4371C20.5439 16.3407 20.4862 16.2549 20.4086 16.1895C20.331 16.1242 20.2366 16.082 20.1362 16.0676L17.4198 15.6738L16.2048 13.2112C16.0226 12.8424 15.4151 12.8424 15.2328 13.2112L14.0178 15.6738L11.3014 16.0676C11.201 16.082 11.1066 16.1242 11.029 16.1895C10.9514 16.2549 10.8937 16.3407 10.8624 16.4371C10.8311 16.5336 10.8275 16.6369 10.852 16.7354C10.8764 16.8338 10.928 16.9234 11.0009 16.994L12.9666 18.9087L12.5023 21.6132ZM12.5457 16.9842L14.455 16.7065C14.542 16.6939 14.6247 16.6604 14.6959 16.6088C14.7672 16.5572 14.8248 16.4891 14.864 16.4104L15.7188 14.6779L16.5737 16.4104C16.6127 16.489 16.6702 16.557 16.7412 16.6086C16.8122 16.6602 16.8947 16.6938 16.9815 16.7065L18.8919 16.9842L17.5099 18.3305C17.4469 18.392 17.3997 18.4678 17.3725 18.5515C17.3453 18.6353 17.3388 18.7243 17.3536 18.8111L17.6802 20.7139L15.9716 19.8157C15.8935 19.775 15.8068 19.7537 15.7188 19.7537C15.6308 19.7537 15.5441 19.775 15.466 19.8157L13.7574 20.7139L14.0829 18.8111C14.0978 18.7244 14.0915 18.6354 14.0645 18.5517C14.0375 18.468 13.9906 18.3921 13.9277 18.3305L12.5457 16.9842ZM39.6632 16.0676L36.9468 15.6738L35.7318 13.2112C35.5495 12.8424 34.942 12.8424 34.7598 13.2112L33.5447 15.6738L30.8283 16.0676C30.7279 16.082 30.6336 16.1242 30.556 16.1895C30.4784 16.2549 30.4206 16.3407 30.3894 16.4371C30.3581 16.5336 30.3544 16.6369 30.3789 16.7354C30.4034 16.8338 30.455 16.9234 30.5278 16.994L32.4935 18.9087L32.0292 21.6132C32.0118 21.7131 32.0228 21.8159 32.0608 21.9099C32.0989 22.0039 32.1625 22.0854 32.2446 22.145C32.3266 22.2046 32.4237 22.2401 32.5248 22.2474C32.626 22.2546 32.7271 22.2334 32.8168 22.186L35.2458 20.9081L37.6758 22.186C37.7651 22.2337 37.8661 22.2552 37.967 22.2479C38.068 22.2406 38.1649 22.2049 38.2464 22.1448C38.3285 22.0852 38.3922 22.0038 38.4304 21.9099C38.4685 21.8159 38.4796 21.7131 38.4623 21.6132L37.998 18.9087L39.9637 16.994C40.0365 16.9234 40.0881 16.8338 40.1126 16.7354C40.1371 16.6369 40.1335 16.5336 40.1022 16.4371C40.0709 16.3407 40.0131 16.2549 39.9355 16.1895C39.858 16.1242 39.7636 16.082 39.6632 16.0676ZM37.0368 18.3305C36.9738 18.392 36.9267 18.4678 36.8995 18.5515C36.8722 18.6353 36.8658 18.7243 36.8806 18.8111L37.2071 20.7139L35.4985 19.8157C35.4205 19.775 35.3338 19.7537 35.2458 19.7537C35.1577 19.7537 35.071 19.775 34.993 19.8157L33.2844 20.7139L33.6098 18.8111C33.6248 18.7244 33.6185 18.6354 33.5915 18.5517C33.5645 18.468 33.5175 18.3921 33.4547 18.3305L32.0726 16.9842L33.9819 16.7065C34.069 16.6939 34.1517 16.6604 34.2229 16.6088C34.2941 16.5572 34.3518 16.4891 34.3909 16.4104L35.2458 14.6779L36.1006 16.4104C36.1396 16.489 36.1971 16.557 36.2681 16.6086C36.3392 16.6602 36.4216 16.6938 36.5085 16.7065L38.4189 16.9842L37.0368 18.3305Z" fill="#00FFFF"/>
<path d="M25.4838 40.0311C25.7834 40.0311 26.0262 39.7883 26.0262 39.4887C26.0262 39.1891 25.7834 38.9463 25.4838 38.9463C25.1843 38.9463 24.9414 39.1891 24.9414 39.4887C24.9414 39.7883 25.1843 40.0311 25.4838 40.0311Z" fill="#00FFFF"/>
</svg>
