<svg width="50" height="50" viewBox="0 0 50 50" fill="none" xmlns="http://www.w3.org/2000/svg">
<rect opacity="0.2" x="0.25" y="0.300781" width="49.4683" height="49.4683" rx="6.94292" fill="white"/>
<g clip-path="url(#clip0_84_1141)">
<path d="M40.3423 22.3792C40.2186 18.6059 38.6596 15.0221 35.9834 12.3592C33.1612 9.53644 29.4104 7.98242 25.4226 7.98242C17.3683 7.98242 10.7871 14.3932 10.5034 22.3792C9.8824 22.6543 9.35447 23.1036 8.98362 23.6727C8.61278 24.2418 8.41493 24.9062 8.41406 25.5854V29.5244C8.41507 30.4546 8.78502 31.3464 9.44274 32.0041C10.1005 32.6618 10.9922 33.0318 11.9224 33.0328C12.5242 33.0321 13.1012 32.7927 13.5268 32.3671C13.9523 31.9416 14.1917 31.3646 14.1924 30.7628V24.3466C14.1924 23.1711 13.2909 22.2127 12.1448 22.0988C12.5679 15.1412 18.3598 9.60967 25.4226 9.60967C28.9765 9.60967 32.3183 10.995 34.8335 13.5102C37.1431 15.8198 38.4948 18.8302 38.6982 22.0993C37.5532 22.2143 36.6533 23.1722 36.6533 24.3466V30.7622C36.6533 31.9474 37.5689 32.9118 38.7286 33.0122V34.6335C38.7276 35.5114 38.3783 36.353 37.7575 36.9737C37.1367 37.5944 36.295 37.9435 35.4171 37.9444H32.9649C32.7995 37.4624 32.4874 37.0442 32.0723 36.7487C31.6572 36.4531 31.16 36.295 30.6504 36.2965H28.1227C27.7598 36.2965 27.4116 36.3735 27.0927 36.5222C26.6656 36.7195 26.3039 37.0348 26.0502 37.4309C25.7964 37.8271 25.6613 38.2875 25.6607 38.758C25.6607 39.4165 25.9173 40.0348 26.3821 40.4975C26.61 40.7272 26.8811 40.9093 27.1799 41.0334C27.4787 41.1574 27.7992 41.2208 28.1227 41.22H30.6504C31.6983 41.22 32.6221 40.5425 32.9665 39.5716H35.4171C38.1406 39.5716 40.3558 37.3564 40.3558 34.6335V32.7225C40.9732 32.4459 41.4975 31.9968 41.8656 31.4292C42.2338 30.8617 42.4302 30.1999 42.4311 29.5234V25.5843C42.4311 24.1556 41.5708 22.9254 40.3423 22.3792ZM12.5646 24.3466V30.7622C12.5646 31.1164 12.2766 31.405 11.9219 31.405C11.4231 31.4044 10.945 31.2061 10.5924 30.8534C10.2397 30.5008 10.0413 30.0226 10.0408 29.5239V25.5849C10.0413 25.0862 10.2397 24.608 10.5924 24.2554C10.945 23.9027 11.4231 23.7044 11.9219 23.7038C12.2766 23.7038 12.5646 23.9924 12.5646 24.3466ZM31.4667 38.9326C31.4263 39.1194 31.3233 39.2868 31.1747 39.4071C31.0261 39.5273 30.841 39.5932 30.6498 39.5938H28.1222C27.8998 39.5938 27.691 39.5071 27.5315 39.3476C27.4539 39.2705 27.3923 39.1788 27.3504 39.0778C27.3085 38.9768 27.2871 38.8684 27.2874 38.7591C27.288 38.5379 27.3761 38.326 27.5326 38.1696C27.689 38.0133 27.901 37.9253 28.1222 37.9248H30.6498C30.8722 37.9248 31.0811 38.0111 31.24 38.1705C31.3973 38.3273 31.4841 38.5367 31.4841 38.7591C31.4846 38.8187 31.4781 38.8784 31.4667 38.9326ZM40.8039 29.5239C40.8033 30.0226 40.6049 30.5008 40.2523 30.8534C39.8996 31.2061 39.4215 31.4044 38.9228 31.405C38.7523 31.4049 38.5889 31.3371 38.4684 31.2166C38.3479 31.0961 38.2801 30.9327 38.28 30.7622V24.3466C38.28 23.9924 38.568 23.7038 38.9228 23.7038C39.4215 23.7044 39.8996 23.9027 40.2523 24.2554C40.6049 24.608 40.8033 25.0862 40.8039 25.5849V29.5239Z" fill="#00FFFF"/>
<path d="M30.6916 29.8048C31.6056 29.8038 32.482 29.4402 33.1283 28.7939C33.7746 28.1476 34.1382 27.2712 34.1392 26.3572V19.3324C34.1392 18.4135 33.7801 17.5478 33.1281 16.8958C32.4761 16.2438 31.611 15.8848 30.6916 15.8848H20.1546C19.2406 15.8858 18.3642 16.2493 17.7179 16.8957C17.0716 17.542 16.708 18.4183 16.707 19.3324V26.3572C16.708 27.2712 17.0716 28.1476 17.7179 28.7939C18.3642 29.4402 19.2406 29.8038 20.1546 29.8048H20.2192V31.6251C20.2181 31.8474 20.261 32.0677 20.3453 32.2733C20.4297 32.479 20.5539 32.6659 20.7108 32.8234C20.8677 32.9809 21.0541 33.1058 21.2594 33.1909C21.4648 33.2761 21.6849 33.3198 21.9072 33.3196C22.1293 33.3201 22.3492 33.2758 22.5539 33.1894C22.7585 33.103 22.9437 32.9763 23.0983 32.8168L26.1266 29.8048H30.6916ZM25.2181 28.414L21.9408 31.6734C21.9262 31.6886 21.9153 31.7 21.8844 31.6864C21.847 31.6712 21.847 31.6468 21.847 31.6251V28.9911C21.847 28.7754 21.7612 28.5684 21.6087 28.4158C21.4561 28.2632 21.2491 28.1775 21.0333 28.1775H20.1552C19.6726 28.177 19.2099 27.985 18.8686 27.6437C18.5274 27.3025 18.3354 26.8398 18.3348 26.3572V19.3324C18.3354 18.8497 18.5274 18.3871 18.8686 18.0458C19.2099 17.7046 19.6726 17.5126 20.1552 17.512H30.6921C31.177 17.512 31.6332 17.7019 31.9782 18.0463C32.3232 18.3913 32.5125 18.848 32.5125 19.3324V26.3572C32.5119 26.8398 32.3199 27.3025 31.9787 27.6437C31.6374 27.985 31.1747 28.177 30.6921 28.1775H25.7919C25.5766 28.1775 25.3705 28.2627 25.2181 28.414Z" fill="#00FFFF"/>
<path d="M21.4699 21.7744C20.8081 21.7744 20.2695 22.3136 20.2695 22.9748C20.2695 23.636 20.8087 24.1751 21.4699 24.1751C22.1322 24.1751 22.6713 23.636 22.6713 22.9748C22.6713 22.3136 22.1327 21.7744 21.4699 21.7744ZM25.4219 21.7744C24.7602 21.7744 24.2216 22.3136 24.2216 22.9748C24.2216 23.636 24.7607 24.1751 25.4219 24.1751C26.0848 24.1751 26.6234 23.636 26.6234 22.9748C26.6234 22.3136 26.0848 21.7744 25.4219 21.7744ZM29.374 21.7744C28.7122 21.7744 28.1736 22.3136 28.1736 22.9748C28.1736 23.636 28.7128 24.1751 29.374 24.1751C30.0363 24.1751 30.5754 23.636 30.5754 22.9748C30.5754 22.3136 30.0363 21.7744 29.374 21.7744Z" fill="#00FFFF"/>
</g>
<defs>
<clipPath id="clip0_84_1141">
<rect width="34.7146" height="34.7146" fill="white" transform="translate(8.0625 7.24414)"/>
</clipPath>
</defs>
</svg>
