<svg width="54" height="55" viewBox="0 0 54 55" fill="none" xmlns="http://www.w3.org/2000/svg">
<g clip-path="url(#clip0_2_727)">
<path d="M27 54.0191C12.0906 54.0191 0 42.0302 0 27.2463C0 12.4625 12.0906 0.473633 27 0.473633C41.9094 0.473633 54 12.4625 54 27.2463C54 42.0302 41.9094 54.0191 27 54.0191Z" fill="#0078D7"/>
</g>
<path d="M40.0843 34.376C39.2304 33.6659 34.2224 30.5214 33.39 30.6657C32.9992 30.7345 32.7003 31.0648 31.9002 32.0113C31.5301 32.4772 31.1238 32.9135 30.6848 33.3162C29.8805 33.1236 29.102 32.8374 28.3655 32.4637C25.4768 31.0692 23.1432 28.7545 21.7377 25.8898C21.3608 25.1594 21.0722 24.3875 20.8779 23.59C21.2841 23.1547 21.7241 22.7518 22.1939 22.3848C23.1474 21.5914 23.4816 21.2969 23.5509 20.9075C23.6965 20.0802 20.5223 15.1163 19.8091 14.2696C19.5102 13.9189 19.2386 13.6835 18.8908 13.6835C17.8825 13.6835 13.322 19.2752 13.322 19.9998C13.322 20.0589 13.4197 25.8801 20.834 33.3598C28.3772 40.7117 34.2478 40.8085 34.3074 40.8085C35.0382 40.8085 40.6773 36.2864 40.6773 35.2867C40.6773 34.9418 40.4399 34.6725 40.0843 34.376Z" fill="white"/>
<defs>
<clipPath id="clip0_2_727">
<rect width="54" height="53.5454" fill="white" transform="translate(0 0.473633)"/>
</clipPath>
</defs>
</svg>
