<svg width="54" height="55" viewBox="0 0 54 55" fill="none" xmlns="http://www.w3.org/2000/svg">
<g clip-path="url(#clip0_71_1007)">
<path d="M27 54.0191C12.0906 54.0191 0 42.0302 0 27.2463C0 12.4625 12.0906 0.473633 27 0.473633C41.9094 0.473633 54 12.4625 54 27.2463C54 42.0302 41.9094 54.0191 27 54.0191Z" fill="#0078D7"/>
</g>
<path d="M40.0826 34.3756C39.2287 33.6655 34.2207 30.5209 33.3883 30.6653C32.9975 30.7341 32.6986 31.0644 31.8984 32.0109C31.5284 32.4767 31.122 32.9131 30.6831 33.3158C29.8788 33.1231 29.1003 32.837 28.3638 32.4633C25.4751 31.0688 23.1415 28.7541 21.736 25.8894C21.3591 25.159 21.0705 24.387 20.8762 23.5895C21.2824 23.1543 21.7224 22.7513 22.1922 22.3844C23.1457 21.591 23.4799 21.2965 23.5492 20.9071C23.6948 20.0798 20.5206 15.1159 19.8074 14.2692C19.5085 13.9185 19.2369 13.6831 18.8891 13.6831C17.8808 13.6831 13.3203 19.2747 13.3203 19.9994C13.3203 20.0584 13.418 25.8797 20.8323 33.3594C28.3755 40.7112 34.2461 40.8081 34.3057 40.8081C35.0365 40.8081 40.6756 36.286 40.6756 35.2862C40.6756 34.9414 40.4382 34.672 40.0826 34.3756Z" fill="white"/>
<defs>
<clipPath id="clip0_71_1007">
<rect width="54" height="53.5454" fill="white" transform="translate(0 0.473633)"/>
</clipPath>
</defs>
</svg>
