<svg width="25" height="25" viewBox="0 0 25 25" fill="none" xmlns="http://www.w3.org/2000/svg">
<g id="Group">
<path id="Vector" d="M23.7787 18.6929C23.0419 18.075 18.7206 15.3386 18.0023 15.4642C17.6651 15.524 17.4071 15.8115 16.7167 16.6351C16.3974 17.0405 16.0467 17.4202 15.668 17.7707C14.974 17.603 14.3022 17.354 13.6666 17.0288C11.1741 15.8153 9.16038 13.801 7.94758 11.3081C7.62238 10.6725 7.37336 10.0007 7.20572 9.30673C7.55619 8.92796 7.93588 8.57731 8.34127 8.25801C9.16406 7.56758 9.45238 7.3113 9.51223 6.9724C9.63784 6.25246 6.89886 1.93282 6.28346 1.19602C6.02549 0.890844 5.79113 0.685989 5.49102 0.685989C4.62102 0.685989 0.685791 5.55191 0.685791 6.18249C0.685791 6.23392 0.770093 11.2996 7.16779 17.8086C13.6768 24.2063 18.7425 24.2906 18.7939 24.2906C19.4245 24.2906 24.2904 20.3554 24.2904 19.4854C24.2904 19.1853 24.0856 18.9509 23.7787 18.6929Z" fill="white"/>
</g>
</svg>
