<svg width="31" height="27" viewBox="0 0 31 27" fill="none" xmlns="http://www.w3.org/2000/svg">
<g id="Black">
<g id="Vector">
<mask id="path-1-outside-1_481_2350" maskUnits="userSpaceOnUse" x="-0.476562" y="0.0859375" width="32" height="27" fill="black">
<rect fill="white" x="-0.476562" y="0.0859375" width="32" height="27"/>
<path d="M12.1241 1.04973C11.9177 1.28043 11.9177 1.30471 12.1726 1.81466C12.5976 2.61601 12.549 3.30809 11.9784 4.37656C11.517 5.22648 11.4927 5.31147 11.4927 6.37994V7.50912H10.8735C10.2785 7.50912 10.23 7.48484 9.74429 6.90204C9.08864 6.12497 8.38442 5.65144 7.41308 5.32361C6.74529 5.09292 6.4296 5.06864 5.17901 5.10506C3.91627 5.14149 3.62487 5.19006 3.02992 5.46931C2.1193 5.89428 1.31794 6.6592 0.905125 7.49698C0.589441 8.12835 0.565158 8.29833 0.528732 9.96175C0.455882 12.6936 1.14796 17.5625 1.79147 18.8738C2.4107 20.1729 3.66129 20.9986 5.15472 21.0836C6.01678 21.1321 6.15034 21.1078 6.87885 20.7557C8.08087 20.1608 8.51798 19.5173 9.00364 17.5867C9.14935 17.0161 9.34361 16.2633 9.44075 15.9112L9.62287 15.2798H12.1483H14.686L15.0502 16.6397C15.2566 17.3925 15.4752 18.2303 15.548 18.4974C15.8516 19.6751 16.8836 20.695 18.0856 21.0228C18.5349 21.1443 18.6442 21.2414 18.8384 21.6906L19.0691 22.2127L18.6806 22.7591L18.3042 23.3055L19.1055 24.1068L19.919 24.9203L20.4776 24.5197L21.0239 24.1311L21.7524 24.4104C22.3474 24.6411 22.4809 24.7503 22.5416 25.0296C22.5781 25.2117 22.6388 25.5274 22.6752 25.7217L22.7481 26.0859H23.8772H25.0186L25.1035 25.491C25.14 25.1632 25.2128 24.8475 25.2614 24.7868C25.2978 24.7261 25.6499 24.5561 26.0263 24.3982L26.7184 24.119L27.2526 24.4832L27.7869 24.8596L28.6004 24.034L29.4139 23.2205L29.0375 22.7105C28.8432 22.4313 28.6732 22.152 28.6732 22.0913C28.6732 22.0306 28.8068 21.6906 28.9646 21.3142C29.2682 20.6586 29.2803 20.6465 29.8874 20.5615L30.5066 20.4765L30.4702 19.3109L30.4338 18.1331L29.8024 18.0238C29.2074 17.9267 29.171 17.9024 28.9646 17.356C28.8553 17.0525 28.7218 16.7368 28.6611 16.6761C28.6125 16.6033 28.7339 16.2876 28.9403 15.9598C29.3896 15.2798 29.3774 15.2555 28.394 14.3813L27.7019 13.7864L27.1676 14.1628L26.6455 14.5392L25.9292 14.2478C25.1885 13.9442 25.2128 13.9928 24.9821 12.9365C24.9093 12.6329 24.8607 12.6086 24.3265 12.6086H23.7437L23.7922 10.751C23.8287 9.29395 23.8044 8.73544 23.6587 8.22548C23.0395 6.13711 21.4125 5.08078 18.7899 5.08078C16.8715 5.08078 15.6937 5.59073 14.5645 6.90204L14.0425 7.50912H13.1804H12.3062L12.1726 6.96275C12.0026 6.28281 12.1362 5.65144 12.7069 4.46155C13.3018 3.19882 13.2654 1.98464 12.5976 1.13473C12.3426 0.81904 12.3305 0.81904 12.1241 1.04973ZM7.27952 5.97927C8.04445 6.24639 8.83366 6.84133 9.33147 7.52127L9.78071 8.11621H10.7642C11.2984 8.12835 12.3426 8.15263 13.0833 8.18906L14.4431 8.26191L14.8195 7.71553C15.7666 6.34352 16.9079 5.77286 18.7777 5.76072C20.854 5.74858 22.0196 6.35566 22.7481 7.83695C23.1487 8.65044 23.1487 8.67473 23.1245 10.3017C23.088 13.1914 22.3474 17.866 21.7767 18.8009C21.0604 19.9665 19.6034 20.6586 18.4013 20.3915C17.5878 20.2094 16.8472 19.6751 16.5194 19.0195C16.3737 18.7281 16.0216 17.6232 15.7544 16.5547L15.2445 14.612H12.1605H9.0765L8.51798 16.6883C7.91089 18.9466 7.66806 19.4566 6.97598 19.9301C5.38542 21.0107 3.15134 20.2822 2.33785 18.4367C1.80361 17.2225 1.00226 10.9331 1.14796 9.23325C1.36651 6.90204 3.09063 5.60287 5.78609 5.74858C6.32033 5.77286 6.98812 5.88213 7.27952 5.97927ZM24.4722 13.9685C24.5693 14.5149 24.5936 14.5513 25.0793 14.6849C25.3464 14.7577 25.8199 14.952 26.1113 15.1098L26.6334 15.4012L27.1312 15.037L27.629 14.6727L28.0297 15.0613C28.394 15.4134 28.4061 15.4741 28.2604 15.6926C27.7504 16.494 27.7504 16.4697 27.9811 16.8582C28.1026 17.0646 28.2968 17.5139 28.4182 17.866C28.6246 18.4731 28.6489 18.4974 29.2317 18.6188L29.8267 18.7523L29.8631 19.3109L29.8995 19.8572L29.256 19.9665C28.7582 20.0515 28.6004 20.1244 28.5761 20.3186C28.5518 20.4522 28.3697 20.9257 28.1633 21.375L27.7869 22.2006L28.1147 22.6134C28.2847 22.8441 28.4304 23.0869 28.4304 23.1355C28.4304 23.1962 28.2725 23.4026 28.0661 23.5969L27.714 23.9369L27.2162 23.609L26.7184 23.2812L26.087 23.5847C25.7349 23.7547 25.2857 23.9369 25.0671 23.9733C24.715 24.0461 24.6664 24.1068 24.545 24.7018L24.4115 25.3574H23.8651C23.3916 25.3574 23.3309 25.321 23.258 25.0175C23.0759 24.1675 23.0395 24.119 22.3595 23.9126C21.9953 23.7912 21.546 23.609 21.3518 23.4876C21.0239 23.2691 21.0118 23.2691 20.6233 23.5605C20.004 24.034 19.9919 24.034 19.5791 23.609L19.2027 23.2205L19.5669 22.7105L19.9312 22.2006L19.6883 21.8121C19.5548 21.5935 19.4455 21.3507 19.4455 21.2778C19.4455 21.205 19.7369 21.0593 20.089 20.9379C20.429 20.8286 20.7811 20.695 20.8661 20.6707C20.9389 20.6343 21.0361 20.7072 21.0725 20.8407C21.1939 21.205 22.0074 21.9699 22.5416 22.2127C22.8573 22.3584 23.3066 22.4434 23.8287 22.4434C25.7349 22.4434 27.1191 20.95 26.9369 19.0437C26.7912 17.4289 25.5407 16.2512 23.9137 16.2147L23.1852 16.1904L23.258 15.8505C23.2944 15.6562 23.3916 15.0127 23.4766 14.4056L23.6223 13.325L23.9865 13.3614C24.3265 13.3979 24.375 13.4464 24.4722 13.9685ZM24.8729 17.1496C25.7349 17.5503 26.1599 18.206 26.2206 19.2137C26.257 19.8208 26.2084 20.0515 25.9778 20.5008C25.2007 21.9456 23.1973 22.2127 22.1045 21.0228C21.4975 20.3672 21.4853 20.2579 21.9588 19.7237C22.4688 19.153 22.8209 18.4124 22.9302 17.6474C22.9788 17.2225 23.0637 17.0525 23.258 16.9797C23.7073 16.7975 24.2293 16.8582 24.8729 17.1496Z"/>
</mask>
<path d="M12.1241 1.04973C11.9177 1.28043 11.9177 1.30471 12.1726 1.81466C12.5976 2.61601 12.549 3.30809 11.9784 4.37656C11.517 5.22648 11.4927 5.31147 11.4927 6.37994V7.50912H10.8735C10.2785 7.50912 10.23 7.48484 9.74429 6.90204C9.08864 6.12497 8.38442 5.65144 7.41308 5.32361C6.74529 5.09292 6.4296 5.06864 5.17901 5.10506C3.91627 5.14149 3.62487 5.19006 3.02992 5.46931C2.1193 5.89428 1.31794 6.6592 0.905125 7.49698C0.589441 8.12835 0.565158 8.29833 0.528732 9.96175C0.455882 12.6936 1.14796 17.5625 1.79147 18.8738C2.4107 20.1729 3.66129 20.9986 5.15472 21.0836C6.01678 21.1321 6.15034 21.1078 6.87885 20.7557C8.08087 20.1608 8.51798 19.5173 9.00364 17.5867C9.14935 17.0161 9.34361 16.2633 9.44075 15.9112L9.62287 15.2798H12.1483H14.686L15.0502 16.6397C15.2566 17.3925 15.4752 18.2303 15.548 18.4974C15.8516 19.6751 16.8836 20.695 18.0856 21.0228C18.5349 21.1443 18.6442 21.2414 18.8384 21.6906L19.0691 22.2127L18.6806 22.7591L18.3042 23.3055L19.1055 24.1068L19.919 24.9203L20.4776 24.5197L21.0239 24.1311L21.7524 24.4104C22.3474 24.6411 22.4809 24.7503 22.5416 25.0296C22.5781 25.2117 22.6388 25.5274 22.6752 25.7217L22.7481 26.0859H23.8772H25.0186L25.1035 25.491C25.14 25.1632 25.2128 24.8475 25.2614 24.7868C25.2978 24.7261 25.6499 24.5561 26.0263 24.3982L26.7184 24.119L27.2526 24.4832L27.7869 24.8596L28.6004 24.034L29.4139 23.2205L29.0375 22.7105C28.8432 22.4313 28.6732 22.152 28.6732 22.0913C28.6732 22.0306 28.8068 21.6906 28.9646 21.3142C29.2682 20.6586 29.2803 20.6465 29.8874 20.5615L30.5066 20.4765L30.4702 19.3109L30.4338 18.1331L29.8024 18.0238C29.2074 17.9267 29.171 17.9024 28.9646 17.356C28.8553 17.0525 28.7218 16.7368 28.6611 16.6761C28.6125 16.6033 28.7339 16.2876 28.9403 15.9598C29.3896 15.2798 29.3774 15.2555 28.394 14.3813L27.7019 13.7864L27.1676 14.1628L26.6455 14.5392L25.9292 14.2478C25.1885 13.9442 25.2128 13.9928 24.9821 12.9365C24.9093 12.6329 24.8607 12.6086 24.3265 12.6086H23.7437L23.7922 10.751C23.8287 9.29395 23.8044 8.73544 23.6587 8.22548C23.0395 6.13711 21.4125 5.08078 18.7899 5.08078C16.8715 5.08078 15.6937 5.59073 14.5645 6.90204L14.0425 7.50912H13.1804H12.3062L12.1726 6.96275C12.0026 6.28281 12.1362 5.65144 12.7069 4.46155C13.3018 3.19882 13.2654 1.98464 12.5976 1.13473C12.3426 0.81904 12.3305 0.81904 12.1241 1.04973ZM7.27952 5.97927C8.04445 6.24639 8.83366 6.84133 9.33147 7.52127L9.78071 8.11621H10.7642C11.2984 8.12835 12.3426 8.15263 13.0833 8.18906L14.4431 8.26191L14.8195 7.71553C15.7666 6.34352 16.9079 5.77286 18.7777 5.76072C20.854 5.74858 22.0196 6.35566 22.7481 7.83695C23.1487 8.65044 23.1487 8.67473 23.1245 10.3017C23.088 13.1914 22.3474 17.866 21.7767 18.8009C21.0604 19.9665 19.6034 20.6586 18.4013 20.3915C17.5878 20.2094 16.8472 19.6751 16.5194 19.0195C16.3737 18.7281 16.0216 17.6232 15.7544 16.5547L15.2445 14.612H12.1605H9.0765L8.51798 16.6883C7.91089 18.9466 7.66806 19.4566 6.97598 19.9301C5.38542 21.0107 3.15134 20.2822 2.33785 18.4367C1.80361 17.2225 1.00226 10.9331 1.14796 9.23325C1.36651 6.90204 3.09063 5.60287 5.78609 5.74858C6.32033 5.77286 6.98812 5.88213 7.27952 5.97927ZM24.4722 13.9685C24.5693 14.5149 24.5936 14.5513 25.0793 14.6849C25.3464 14.7577 25.8199 14.952 26.1113 15.1098L26.6334 15.4012L27.1312 15.037L27.629 14.6727L28.0297 15.0613C28.394 15.4134 28.4061 15.4741 28.2604 15.6926C27.7504 16.494 27.7504 16.4697 27.9811 16.8582C28.1026 17.0646 28.2968 17.5139 28.4182 17.866C28.6246 18.4731 28.6489 18.4974 29.2317 18.6188L29.8267 18.7523L29.8631 19.3109L29.8995 19.8572L29.256 19.9665C28.7582 20.0515 28.6004 20.1244 28.5761 20.3186C28.5518 20.4522 28.3697 20.9257 28.1633 21.375L27.7869 22.2006L28.1147 22.6134C28.2847 22.8441 28.4304 23.0869 28.4304 23.1355C28.4304 23.1962 28.2725 23.4026 28.0661 23.5969L27.714 23.9369L27.2162 23.609L26.7184 23.2812L26.087 23.5847C25.7349 23.7547 25.2857 23.9369 25.0671 23.9733C24.715 24.0461 24.6664 24.1068 24.545 24.7018L24.4115 25.3574H23.8651C23.3916 25.3574 23.3309 25.321 23.258 25.0175C23.0759 24.1675 23.0395 24.119 22.3595 23.9126C21.9953 23.7912 21.546 23.609 21.3518 23.4876C21.0239 23.2691 21.0118 23.2691 20.6233 23.5605C20.004 24.034 19.9919 24.034 19.5791 23.609L19.2027 23.2205L19.5669 22.7105L19.9312 22.2006L19.6883 21.8121C19.5548 21.5935 19.4455 21.3507 19.4455 21.2778C19.4455 21.205 19.7369 21.0593 20.089 20.9379C20.429 20.8286 20.7811 20.695 20.8661 20.6707C20.9389 20.6343 21.0361 20.7072 21.0725 20.8407C21.1939 21.205 22.0074 21.9699 22.5416 22.2127C22.8573 22.3584 23.3066 22.4434 23.8287 22.4434C25.7349 22.4434 27.1191 20.95 26.9369 19.0437C26.7912 17.4289 25.5407 16.2512 23.9137 16.2147L23.1852 16.1904L23.258 15.8505C23.2944 15.6562 23.3916 15.0127 23.4766 14.4056L23.6223 13.325L23.9865 13.3614C24.3265 13.3979 24.375 13.4464 24.4722 13.9685ZM24.8729 17.1496C25.7349 17.5503 26.1599 18.206 26.2206 19.2137C26.257 19.8208 26.2084 20.0515 25.9778 20.5008C25.2007 21.9456 23.1973 22.2127 22.1045 21.0228C21.4975 20.3672 21.4853 20.2579 21.9588 19.7237C22.4688 19.153 22.8209 18.4124 22.9302 17.6474C22.9788 17.2225 23.0637 17.0525 23.258 16.9797C23.7073 16.7975 24.2293 16.8582 24.8729 17.1496Z" fill="#9C9C9C"/>
<path d="M12.1241 1.04973C11.9177 1.28043 11.9177 1.30471 12.1726 1.81466C12.5976 2.61601 12.549 3.30809 11.9784 4.37656C11.517 5.22648 11.4927 5.31147 11.4927 6.37994V7.50912H10.8735C10.2785 7.50912 10.23 7.48484 9.74429 6.90204C9.08864 6.12497 8.38442 5.65144 7.41308 5.32361C6.74529 5.09292 6.4296 5.06864 5.17901 5.10506C3.91627 5.14149 3.62487 5.19006 3.02992 5.46931C2.1193 5.89428 1.31794 6.6592 0.905125 7.49698C0.589441 8.12835 0.565158 8.29833 0.528732 9.96175C0.455882 12.6936 1.14796 17.5625 1.79147 18.8738C2.4107 20.1729 3.66129 20.9986 5.15472 21.0836C6.01678 21.1321 6.15034 21.1078 6.87885 20.7557C8.08087 20.1608 8.51798 19.5173 9.00364 17.5867C9.14935 17.0161 9.34361 16.2633 9.44075 15.9112L9.62287 15.2798H12.1483H14.686L15.0502 16.6397C15.2566 17.3925 15.4752 18.2303 15.548 18.4974C15.8516 19.6751 16.8836 20.695 18.0856 21.0228C18.5349 21.1443 18.6442 21.2414 18.8384 21.6906L19.0691 22.2127L18.6806 22.7591L18.3042 23.3055L19.1055 24.1068L19.919 24.9203L20.4776 24.5197L21.0239 24.1311L21.7524 24.4104C22.3474 24.6411 22.4809 24.7503 22.5416 25.0296C22.5781 25.2117 22.6388 25.5274 22.6752 25.7217L22.7481 26.0859H23.8772H25.0186L25.1035 25.491C25.14 25.1632 25.2128 24.8475 25.2614 24.7868C25.2978 24.7261 25.6499 24.5561 26.0263 24.3982L26.7184 24.119L27.2526 24.4832L27.7869 24.8596L28.6004 24.034L29.4139 23.2205L29.0375 22.7105C28.8432 22.4313 28.6732 22.152 28.6732 22.0913C28.6732 22.0306 28.8068 21.6906 28.9646 21.3142C29.2682 20.6586 29.2803 20.6465 29.8874 20.5615L30.5066 20.4765L30.4702 19.3109L30.4338 18.1331L29.8024 18.0238C29.2074 17.9267 29.171 17.9024 28.9646 17.356C28.8553 17.0525 28.7218 16.7368 28.6611 16.6761C28.6125 16.6033 28.7339 16.2876 28.9403 15.9598C29.3896 15.2798 29.3774 15.2555 28.394 14.3813L27.7019 13.7864L27.1676 14.1628L26.6455 14.5392L25.9292 14.2478C25.1885 13.9442 25.2128 13.9928 24.9821 12.9365C24.9093 12.6329 24.8607 12.6086 24.3265 12.6086H23.7437L23.7922 10.751C23.8287 9.29395 23.8044 8.73544 23.6587 8.22548C23.0395 6.13711 21.4125 5.08078 18.7899 5.08078C16.8715 5.08078 15.6937 5.59073 14.5645 6.90204L14.0425 7.50912H13.1804H12.3062L12.1726 6.96275C12.0026 6.28281 12.1362 5.65144 12.7069 4.46155C13.3018 3.19882 13.2654 1.98464 12.5976 1.13473C12.3426 0.81904 12.3305 0.81904 12.1241 1.04973ZM7.27952 5.97927C8.04445 6.24639 8.83366 6.84133 9.33147 7.52127L9.78071 8.11621H10.7642C11.2984 8.12835 12.3426 8.15263 13.0833 8.18906L14.4431 8.26191L14.8195 7.71553C15.7666 6.34352 16.9079 5.77286 18.7777 5.76072C20.854 5.74858 22.0196 6.35566 22.7481 7.83695C23.1487 8.65044 23.1487 8.67473 23.1245 10.3017C23.088 13.1914 22.3474 17.866 21.7767 18.8009C21.0604 19.9665 19.6034 20.6586 18.4013 20.3915C17.5878 20.2094 16.8472 19.6751 16.5194 19.0195C16.3737 18.7281 16.0216 17.6232 15.7544 16.5547L15.2445 14.612H12.1605H9.0765L8.51798 16.6883C7.91089 18.9466 7.66806 19.4566 6.97598 19.9301C5.38542 21.0107 3.15134 20.2822 2.33785 18.4367C1.80361 17.2225 1.00226 10.9331 1.14796 9.23325C1.36651 6.90204 3.09063 5.60287 5.78609 5.74858C6.32033 5.77286 6.98812 5.88213 7.27952 5.97927ZM24.4722 13.9685C24.5693 14.5149 24.5936 14.5513 25.0793 14.6849C25.3464 14.7577 25.8199 14.952 26.1113 15.1098L26.6334 15.4012L27.1312 15.037L27.629 14.6727L28.0297 15.0613C28.394 15.4134 28.4061 15.4741 28.2604 15.6926C27.7504 16.494 27.7504 16.4697 27.9811 16.8582C28.1026 17.0646 28.2968 17.5139 28.4182 17.866C28.6246 18.4731 28.6489 18.4974 29.2317 18.6188L29.8267 18.7523L29.8631 19.3109L29.8995 19.8572L29.256 19.9665C28.7582 20.0515 28.6004 20.1244 28.5761 20.3186C28.5518 20.4522 28.3697 20.9257 28.1633 21.375L27.7869 22.2006L28.1147 22.6134C28.2847 22.8441 28.4304 23.0869 28.4304 23.1355C28.4304 23.1962 28.2725 23.4026 28.0661 23.5969L27.714 23.9369L27.2162 23.609L26.7184 23.2812L26.087 23.5847C25.7349 23.7547 25.2857 23.9369 25.0671 23.9733C24.715 24.0461 24.6664 24.1068 24.545 24.7018L24.4115 25.3574H23.8651C23.3916 25.3574 23.3309 25.321 23.258 25.0175C23.0759 24.1675 23.0395 24.119 22.3595 23.9126C21.9953 23.7912 21.546 23.609 21.3518 23.4876C21.0239 23.2691 21.0118 23.2691 20.6233 23.5605C20.004 24.034 19.9919 24.034 19.5791 23.609L19.2027 23.2205L19.5669 22.7105L19.9312 22.2006L19.6883 21.8121C19.5548 21.5935 19.4455 21.3507 19.4455 21.2778C19.4455 21.205 19.7369 21.0593 20.089 20.9379C20.429 20.8286 20.7811 20.695 20.8661 20.6707C20.9389 20.6343 21.0361 20.7072 21.0725 20.8407C21.1939 21.205 22.0074 21.9699 22.5416 22.2127C22.8573 22.3584 23.3066 22.4434 23.8287 22.4434C25.7349 22.4434 27.1191 20.95 26.9369 19.0437C26.7912 17.4289 25.5407 16.2512 23.9137 16.2147L23.1852 16.1904L23.258 15.8505C23.2944 15.6562 23.3916 15.0127 23.4766 14.4056L23.6223 13.325L23.9865 13.3614C24.3265 13.3979 24.375 13.4464 24.4722 13.9685ZM24.8729 17.1496C25.7349 17.5503 26.1599 18.206 26.2206 19.2137C26.257 19.8208 26.2084 20.0515 25.9778 20.5008C25.2007 21.9456 23.1973 22.2127 22.1045 21.0228C21.4975 20.3672 21.4853 20.2579 21.9588 19.7237C22.4688 19.153 22.8209 18.4124 22.9302 17.6474C22.9788 17.2225 23.0637 17.0525 23.258 16.9797C23.7073 16.7975 24.2293 16.8582 24.8729 17.1496Z" stroke="#9C9C9C" stroke-width="0.4" mask="url(#path-1-outside-1_481_2350)"/>
</g>
<path id="Vector_2" d="M6.13519 9.8439L6.13519 9.8439L6.13422 9.8444C5.86207 9.98364 5.61086 10.0461 5.36455 10.0155C5.1181 9.9849 4.89053 9.86294 4.66236 9.66013C4.49676 9.51293 4.38336 9.3924 4.31502 9.24697C4.24625 9.10061 4.22812 8.9399 4.22812 8.72333C4.22812 8.50676 4.24625 8.34604 4.31502 8.19969C4.3833 8.05438 4.49657 7.93393 4.66195 7.78689C4.94242 7.53207 5.24753 7.39702 5.55444 7.39702C5.8623 7.39702 6.15673 7.53293 6.41436 7.79056L6.41436 7.79055L6.41508 7.79129C7.04111 8.43036 6.91537 9.43397 6.13519 9.8439ZM5.88043 8.53011L5.88041 8.53012L5.87937 8.5282C5.79209 8.36742 5.6033 8.31177 5.41917 8.35748C5.23521 8.40314 5.09592 8.53991 5.09592 8.72333C5.09592 8.90675 5.23521 9.04351 5.41917 9.08918C5.6033 9.13488 5.79209 9.07924 5.87937 8.91845L5.87935 8.91844L5.88043 8.91655C5.92281 8.84239 5.94011 8.7805 5.94011 8.72333C5.94011 8.66615 5.92281 8.60427 5.88043 8.53011Z" fill="#9C9C9C" stroke="#9C9C9C" stroke-width="0.2"/>
<path id="Vector_3" d="M18.3736 11.6159H17.1987H15.9238H15.8238V11.5159V11.1517V10.7874V10.6874H15.9238H17.1987H18.3736V9.57325V8.35908V8.25908H18.4736H18.8378H19.2021H19.3021V8.35908V9.57325V10.6874H20.4163H21.6304H21.7304V10.7874V11.1517V11.5159V11.6159H21.6304H20.4163H19.3113L19.2778 12.7573L19.2778 12.7573L19.2413 14.0079L19.2388 14.0948L19.1524 14.1044L18.8246 14.1408L18.8242 14.1408L18.4842 14.1773L18.3736 14.1891V14.0778V12.8029V11.6159Z" fill="#9C9C9C" stroke="#9C9C9C" stroke-width="0.2"/>
<path id="Vector_4" d="M2.48574 11.7207L2.48574 11.7207L2.48526 11.7202C1.83668 11.0716 2.09198 9.95606 2.94203 9.60254C3.25053 9.47228 3.62507 9.52707 3.94065 9.68405C4.25685 9.84135 4.53468 10.1113 4.64224 10.4406C4.85309 11.08 4.55389 11.6421 4.08532 11.9206C3.6169 12.199 2.97113 12.1995 2.48574 11.7207ZM3.55177 11.2285L3.55384 11.2277C3.63977 11.1964 3.72099 11.0834 3.75602 10.9265C3.79064 10.7714 3.76827 10.6242 3.70621 10.5488C3.67451 10.5129 3.62296 10.4751 3.56382 10.4462C3.50355 10.4168 3.44613 10.4018 3.40589 10.4018C3.36606 10.4018 3.31415 10.4192 3.2557 10.4585C3.19833 10.4971 3.14166 10.5523 3.09421 10.6153C3.04667 10.6785 3.01118 10.7458 2.99285 10.8069C2.97409 10.8694 2.97624 10.9147 2.9881 10.9429L2.98878 10.9445C3.02515 11.0355 3.12061 11.1263 3.24035 11.1848C3.3617 11.2441 3.47939 11.2566 3.55177 11.2285Z" fill="#9C9C9C" stroke="#9C9C9C" stroke-width="0.2"/>
<path id="Vector_5" d="M7.80123 11.2285L7.80331 11.2277C7.88924 11.1964 7.97046 11.0834 8.00548 10.9265C8.04011 10.7714 8.01774 10.6242 7.95567 10.5488C7.92398 10.5129 7.87243 10.4751 7.81329 10.4462C7.75301 10.4168 7.6956 10.4017 7.65535 10.4017C7.61553 10.4017 7.56361 10.4192 7.50517 10.4585C7.44779 10.4971 7.39113 10.5523 7.34368 10.6153C7.29614 10.6785 7.26064 10.7458 7.24232 10.8069C7.22355 10.8694 7.22571 10.9147 7.23757 10.9429L7.23825 10.9445C7.27462 11.0355 7.37008 11.1262 7.48981 11.1848C7.61117 11.2441 7.72885 11.2566 7.80123 11.2285ZM7.6675 12.1016C6.98522 12.1016 6.52712 11.6464 6.39429 11.1184C6.26137 10.59 6.4526 9.981 7.06394 9.67823C7.29135 9.56141 7.52061 9.51374 7.754 9.54228C7.9864 9.5707 8.21476 9.67369 8.44308 9.84478C9.4392 10.563 8.88377 12.1016 7.6675 12.1016Z" fill="#9C9C9C" stroke="#9C9C9C" stroke-width="0.2"/>
<path id="Vector_6" d="M4.23123 13.2153L4.23123 13.2153L4.23115 13.215C4.17507 12.9836 4.23908 12.68 4.35547 12.4205C4.47144 12.1619 4.65438 11.9138 4.86885 11.8138L4.91113 11.9044L4.86799 11.8142C5.76104 11.3871 6.79597 11.9524 6.79597 12.9121C6.79597 13.2065 6.75231 13.4417 6.64003 13.6373C6.52723 13.8338 6.35189 13.9788 6.11117 14.1055C5.35774 14.5021 4.43997 14.0633 4.23123 13.2153ZM5.62644 13.3132L5.62831 13.3127C5.78204 13.2756 5.87395 13.1975 5.91445 13.1089C5.95468 13.0208 5.9531 12.9028 5.88004 12.7664C5.82798 12.6764 5.71176 12.6118 5.57164 12.5973C5.43173 12.5827 5.29485 12.6213 5.21254 12.7036C5.06526 12.8509 5.06834 13.0257 5.15242 13.153C5.23793 13.2824 5.41263 13.3692 5.62644 13.3132Z" fill="#9C9C9C" stroke="#9C9C9C" stroke-width="0.2"/>
</g>
</svg>
