<svg width="75" height="62" viewBox="0 0 75 62" fill="none" xmlns="http://www.w3.org/2000/svg">
<g id="Group">
<path id="Vector" d="M0.392578 57.4457C0.392578 59.4478 2.02092 61.077 4.02247 61.077H70.4836C72.4852 61.077 74.1135 59.4478 74.1135 57.4457V20.2206H0.392578V57.4457ZM47.2843 35.1965C46.3923 34.4042 46.3106 33.0385 47.1026 32.1461C47.8945 31.2529 49.2595 31.1719 50.1516 31.9643L58.1126 39.0326C58.3409 39.2354 58.5237 39.4843 58.6488 39.7629C58.7739 40.0414 58.8386 40.3434 58.8386 40.6488C58.8386 40.9542 58.7739 41.2562 58.6488 41.5348C58.5237 41.8134 58.3409 42.0622 58.1126 42.265L50.1516 49.3339C49.7571 49.6853 49.2472 49.8792 48.719 49.8786C48.1228 49.8786 47.5296 49.6333 47.1026 49.1521C46.3106 48.2597 46.3923 46.894 47.2843 46.1017L53.425 40.6488L47.2843 35.1965ZM31.5515 46.6373L39.2137 33.3592C39.8098 32.3256 41.1312 31.9716 42.1643 32.568C43.1969 33.1651 43.5509 34.4864 42.9546 35.5201L35.2924 48.7982C34.8924 49.4915 34.1664 49.8792 33.42 49.8792C33.0533 49.8792 32.6821 49.7859 32.3418 49.5894C31.3092 48.993 30.9552 47.6711 31.5515 46.6373ZM16.3938 39.0326L24.3546 31.9643C25.2466 31.1719 26.6117 31.2529 27.4037 32.1461C28.1956 33.0385 28.114 34.4042 27.222 35.1965L21.0812 40.6494L27.222 46.1021C28.114 46.894 28.1956 48.2597 27.4037 49.1527C27.2011 49.3815 26.9522 49.5647 26.6735 49.6899C26.3948 49.8152 26.0927 49.8797 25.7871 49.8792C25.2776 49.8792 24.7657 49.6997 24.3546 49.3345L16.3936 42.2656C16.1652 42.0628 15.9824 41.8139 15.8572 41.5353C15.732 41.2566 15.6673 40.9546 15.6673 40.6491C15.6673 40.3436 15.732 40.0416 15.8572 39.7629C15.9824 39.4843 16.1654 39.2354 16.3938 39.0326ZM74.1135 3.80016C74.1135 1.79776 72.4852 0.168457 70.4836 0.168457H4.02247C2.02106 0.168457 0.392578 1.79761 0.392578 3.80016V15.8989H74.1135V3.80016ZM9.12059 11.1203C7.41694 11.1203 6.03554 9.73839 6.03554 8.03389C6.03554 6.3294 7.41694 4.9473 9.12059 4.9473C10.8242 4.9473 12.2056 6.3294 12.2056 8.03389C12.2056 9.73839 10.8242 11.1203 9.12059 11.1203ZM18.0765 11.1203C16.3727 11.1203 14.9921 9.73839 14.9921 8.03389C14.9921 6.3294 16.3729 4.9473 18.0764 4.9473C19.7806 4.9473 21.1614 6.3294 21.1614 8.03389C21.1614 9.73839 19.7808 11.1203 18.0765 11.1203ZM66.1527 10.1948H45.0427C43.8498 10.1948 42.8829 9.22741 42.8829 8.03389C42.8829 6.84037 43.8498 5.87302 45.0427 5.87302H66.1525C67.3449 5.87302 68.3123 6.84037 68.3123 8.03389C68.3123 9.22741 67.3454 10.1948 66.1525 10.1948H66.1527Z" fill="white"/>
</g>
</svg>
