<svg width="20" height="21" viewBox="0 0 20 21" fill="none" xmlns="http://www.w3.org/2000/svg">
<g id="Black">
<path id="Vector" d="M5.73372 0.985518C5.45646 1.12163 5.33043 1.35857 5.33043 1.73162V2.04921L3.85335 2.06434L2.37628 2.07946L1.99819 2.26598C1.57472 2.47771 1.17647 2.84572 0.97482 3.20869C0.677388 3.75818 0.692512 3.39017 0.692512 11.2393C0.692512 16.3763 0.707635 18.5088 0.747965 18.7003C0.929449 19.5473 1.65034 20.2682 2.49727 20.4496C2.87536 20.5303 17.8175 20.5303 18.1956 20.4496C19.0425 20.2682 19.7634 19.5473 19.9449 18.7003C19.9852 18.5088 20.0004 16.3763 20.0004 11.2393C20.0004 3.39017 20.0155 3.75818 19.718 3.20869C19.5164 2.84572 19.1181 2.47771 18.6947 2.26598L18.3166 2.07946L16.6631 2.06434L15.0096 2.04921V1.7669C15.0096 1.41906 14.8684 1.14684 14.6063 1.00064C14.0568 0.693127 13.4468 1.09642 13.4468 1.77195V2.05425H10.1448H6.84279V1.73162C6.84279 1.4846 6.81758 1.37369 6.72684 1.24262C6.59073 1.03593 6.32859 0.894775 6.08661 0.894775C5.99083 0.894775 5.82951 0.935104 5.73372 0.985518ZM5.33043 3.90438C5.33043 4.45387 5.58249 4.7261 6.08661 4.7261C6.59073 4.7261 6.84279 4.45387 6.84279 3.90438V3.56662H10.1448H13.4468V3.85397C13.4468 4.40346 13.7392 4.7261 14.2282 4.7261C14.7172 4.7261 15.0096 4.40346 15.0096 3.85397V3.56158L16.4362 3.5767C17.752 3.59182 17.873 3.59686 18.0292 3.69265C18.3972 3.90942 18.4124 3.95479 18.4275 5.15964L18.4426 6.23846H10.3515H2.25529V5.23022C2.25529 4.16148 2.28553 3.99008 2.49727 3.80355C2.72412 3.60191 2.93585 3.57166 4.16087 3.56662H5.33043V3.90438ZM18.4376 13.0693C18.4376 18.2517 18.4376 18.3424 18.3368 18.539C18.2712 18.6701 18.1654 18.776 18.0343 18.8415C17.8377 18.9423 17.752 18.9423 10.3464 18.9423C2.94089 18.9423 2.85519 18.9423 2.65858 18.8415C2.52751 18.776 2.42165 18.6701 2.35611 18.539C2.25529 18.3424 2.25529 18.2517 2.25529 13.0693V7.80124H10.3464H18.4376V13.0693Z" fill="#9C9C9C"/>
<path id="Vector_2" d="M4.68513 10.2513C4.57926 10.3269 4.57422 10.3572 4.57422 11.1537C4.57422 11.8342 4.58934 11.9905 4.65488 12.0561C4.72041 12.1216 4.87669 12.1367 5.55221 12.1367C6.28319 12.1367 6.38401 12.1266 6.45459 12.046C6.52517 11.9653 6.54029 11.8242 6.54029 11.1386C6.54029 10.1102 6.60079 10.1706 5.55726 10.1706C4.95231 10.1706 4.77587 10.1858 4.68513 10.2513Z" fill="#9C9C9C"/>
<path id="Vector_3" d="M7.91169 10.2512C7.80582 10.3269 7.80078 10.3571 7.80078 11.1536C7.80078 11.8342 7.8159 11.9905 7.88144 12.056C7.94698 12.1215 8.10325 12.1367 8.77878 12.1367C9.50975 12.1367 9.61058 12.1266 9.68115 12.0459C9.75173 11.9653 9.76685 11.8241 9.76685 11.1385C9.76685 10.1101 9.82735 10.1706 8.78382 10.1706C8.17887 10.1706 8.00243 10.1857 7.91169 10.2512Z" fill="#9C9C9C"/>
<path id="Vector_4" d="M11.1383 10.2512C11.0324 10.3269 11.0273 10.3571 11.0273 11.1536C11.0273 11.8342 11.0425 11.9905 11.108 12.056C11.1735 12.1215 11.3298 12.1367 12.0053 12.1367C12.7363 12.1367 12.8371 12.1266 12.9077 12.0459C12.9783 11.9653 12.9934 11.8241 12.9934 11.1385C12.9934 10.1101 13.0539 10.1706 12.0104 10.1706C11.4054 10.1706 11.229 10.1857 11.1383 10.2512Z" fill="#9C9C9C"/>
<path id="Vector_5" d="M14.3648 10.2513C14.2589 10.3269 14.2539 10.3572 14.2539 11.1537C14.2539 11.8342 14.269 11.9905 14.3346 12.0561C14.4001 12.1216 14.5564 12.1367 15.2319 12.1367C15.9629 12.1367 16.0637 12.1266 16.1343 12.046C16.2049 11.9653 16.22 11.8242 16.22 11.1386C16.22 10.1102 16.2805 10.1706 15.2369 10.1706C14.632 10.1706 14.4556 10.1858 14.3648 10.2513Z" fill="#9C9C9C"/>
<path id="Vector_6" d="M4.68513 14.8388C4.57926 14.9144 4.57422 14.9447 4.57422 15.7412C4.57422 16.4218 4.58934 16.578 4.65488 16.6436C4.72041 16.7091 4.87669 16.7242 5.55221 16.7242C6.28319 16.7242 6.38401 16.7142 6.45459 16.6335C6.52517 16.5528 6.54029 16.4117 6.54029 15.7261C6.54029 14.6977 6.60079 14.7582 5.55726 14.7582C4.95231 14.7582 4.77587 14.7733 4.68513 14.8388Z" fill="#9C9C9C"/>
<path id="Vector_7" d="M7.91169 14.8388C7.80582 14.9144 7.80078 14.9446 7.80078 15.7411C7.80078 16.4217 7.8159 16.578 7.88144 16.6435C7.94698 16.7091 8.10325 16.7242 8.77878 16.7242C9.50975 16.7242 9.61058 16.7141 9.68115 16.6334C9.75173 16.5528 9.76685 16.4116 9.76685 15.726C9.76685 14.6976 9.82735 14.7581 8.78382 14.7581C8.17887 14.7581 8.00243 14.7732 7.91169 14.8388Z" fill="#9C9C9C"/>
<path id="Vector_8" d="M11.1383 14.8388C11.0324 14.9144 11.0273 14.9446 11.0273 15.7411C11.0273 16.4217 11.0425 16.578 11.108 16.6435C11.1735 16.7091 11.3298 16.7242 12.0053 16.7242C12.7363 16.7242 12.8371 16.7141 12.9077 16.6334C12.9783 16.5528 12.9934 16.4116 12.9934 15.726C12.9934 14.6976 13.0539 14.7581 12.0104 14.7581C11.4054 14.7581 11.229 14.7732 11.1383 14.8388Z" fill="#9C9C9C"/>
<path id="Vector_9" d="M14.3648 14.8388C14.2589 14.9144 14.2539 14.9447 14.2539 15.7412C14.2539 16.4218 14.269 16.578 14.3346 16.6436C14.4001 16.7091 14.5564 16.7242 15.2319 16.7242C15.9629 16.7242 16.0637 16.7142 16.1343 16.6335C16.2049 16.5528 16.22 16.4117 16.22 15.7261C16.22 14.6977 16.2805 14.7582 15.2369 14.7582C14.632 14.7582 14.4556 14.7733 14.3648 14.8388Z" fill="#9C9C9C"/>
</g>
</svg>
