<svg width="18" height="21" viewBox="0 0 18 21" fill="none" xmlns="http://www.w3.org/2000/svg">
<g id="Group">
<path id="Vector" d="M6.47224 3.01295L6.47223 3.01295C5.77226 3.71289 5.4334 4.53051 5.4334 5.51931C5.4334 6.50838 5.77226 7.32599 6.47222 8.02577L6.47224 3.01295ZM6.47224 3.01295C7.17201 2.31313 7.98951 1.97442 8.97859 1.97442M6.47224 3.01295L8.97859 1.97442M16.412 12.3621C16.1866 11.9654 15.9218 11.6199 15.6245 11.3356C15.3137 11.0383 14.9332 10.7992 14.4931 10.6247L16.499 12.3127M16.412 12.3621C16.6295 12.7443 16.8051 13.1432 16.9345 13.5471M16.412 12.3621L16.499 12.3126C16.499 12.3127 16.499 12.3127 16.499 12.3127M16.412 12.3621L16.499 12.3127M16.9345 13.5471C17.0597 13.9379 17.1641 14.3654 17.2453 14.8177C17.3257 15.2666 17.3804 15.6917 17.4074 16.0814L17.5071 16.0745C17.4798 15.6807 17.4247 15.2519 17.3437 14.8001L17.3437 14.8C17.2619 14.3439 17.1564 13.912 17.0297 13.5166L16.9345 13.5471ZM16.9345 13.5471L17.0297 13.5166C16.8982 13.1059 16.7197 12.7008 16.499 12.3127M10.3641 11.591L10.3641 11.591C10.7979 11.4509 11.1441 11.2976 11.3964 11.1369C11.6688 10.963 11.9404 10.7879 12.2112 10.6116L12.2658 10.6954L10.3641 11.591ZM10.3641 11.591C9.94586 11.7263 9.52198 11.7947 9.10414 11.7947C8.68666 11.7947 8.26274 11.7263 7.84417 11.591L7.84414 11.591M10.3641 11.591L7.84414 11.591M7.84414 11.591C7.41085 11.451 7.0645 11.2978 6.81271 11.1371C6.50938 10.9432 6.23503 10.7664 5.99713 10.6114C5.61544 10.3627 5.3961 10.2632 5.15992 10.2632C4.62857 10.2632 4.1301 10.3532 3.67883 10.5319C3.22826 10.7103 2.83628 10.9561 2.51493 11.2635L2.58406 11.3358L2.51493 11.2635C2.20996 11.5554 1.93928 11.9085 1.70977 12.3127C1.48938 12.7007 1.31077 13.1057 1.17918 13.5167L1.17917 13.5168M7.84414 11.591L1.17917 13.5168M1.17917 13.5168C1.05268 13.9122 0.947181 14.3439 0.865322 14.8L1.17917 13.5168ZM1.67911 19.8478L1.67908 19.8478C1.00169 19.2027 0.661719 18.3297 0.661719 17.2629C0.661719 16.8591 0.675188 16.4593 0.701918 16.075C0.701919 16.075 0.70192 16.075 0.701921 16.0749L0.80168 16.0819L1.67911 19.8478ZM1.67911 19.8478C2.34713 20.4836 3.22843 20.8024 4.28969 20.8024H13.9198C14.9808 20.8024 15.8621 20.4836 16.5303 19.8479L16.4613 19.7754L1.67911 19.8478ZM15.5843 18.8538C15.5868 18.8515 15.5893 18.8491 15.5917 18.8467C15.9811 18.4722 16.1757 17.9591 16.1758 17.2629C16.1757 16.8893 16.1632 16.5217 16.1385 16.1704L16.138 16.1634H16.1381C16.1141 15.8214 16.0653 15.4443 15.9934 15.0422C15.922 14.6445 15.831 14.272 15.7231 13.935L15.8184 13.9045L15.7231 13.9349C15.6207 13.6148 15.4804 13.2969 15.3062 12.9906L15.3061 12.9906C15.141 12.6999 14.9521 12.4526 14.7452 12.2547C14.5549 12.0727 14.3131 11.9216 14.025 11.8075C13.7682 11.7059 13.4788 11.6483 13.1625 11.6372C13.1215 11.66 13.0567 11.6983 12.9604 11.7609L12.9059 11.6771M15.5843 18.8538L7.45305 12.8012L7.42228 12.8964C7.4223 12.8964 7.42231 12.8964 7.42233 12.8964C7.97642 13.0756 8.5422 13.1667 9.10434 13.1667C9.66652 13.1667 10.2324 13.0756 10.7863 12.8965C11.3248 12.7225 11.7788 12.5202 12.1347 12.2934L12.1347 12.2933C12.4491 12.0924 12.7193 11.9183 12.9605 11.7609L12.9059 11.6771M15.5843 18.8538L15.5843 18.8538C15.1802 19.2384 14.6403 19.4304 13.9196 19.4304H4.28973C3.56899 19.4304 3.02905 19.2384 2.62511 18.854C2.23078 18.4786 2.03379 17.9633 2.03379 17.2629C2.03379 16.8903 2.04606 16.5226 2.07066 16.1699L2.07066 16.1698C2.09443 15.8255 2.14321 15.4463 2.21581 15.0424L2.21581 15.0424C2.28729 14.6444 2.37813 14.2717 2.48586 13.9351L15.5843 18.8538ZM12.9059 11.6771C12.665 11.8343 12.3951 12.0083 12.0809 12.209M12.9059 11.6771C13.0243 11.6 13.0974 11.5583 13.1385 11.5365L12.0809 12.209M12.0809 12.209C11.7343 12.43 11.2886 12.6291 10.7555 12.8014C10.2112 12.9773 9.65566 13.0667 9.10434 13.0667L12.0809 12.209ZM8.97859 1.97442C9.96752 1.97442 10.7851 2.31313 11.4851 3.01294M8.97859 1.97442L11.4851 3.01294M11.4851 3.01294C12.1849 3.71288 12.5238 4.53051 12.5238 5.51927M11.4851 3.01294L12.5238 5.51927M12.5238 5.51927C12.5238 6.50834 12.1849 7.32585 11.4851 8.02579M12.5238 5.51927L11.4851 8.02579M11.4851 8.02579C10.7851 8.72575 9.96752 9.06446 8.97859 9.06446M11.4851 8.02579L8.97859 9.06446M8.97859 9.06446C7.9898 9.06446 7.17237 8.72561 6.47222 8.02577L8.97859 9.06446ZM12.4552 2.04266L12.4552 2.04265C11.4999 1.08762 10.3285 0.602393 8.97859 0.602393C7.62835 0.602393 6.4571 1.08762 5.50194 2.04282C4.5468 2.998 4.06137 4.16936 4.06137 5.51931C4.06137 6.86952 4.54676 8.04089 5.50199 8.99607L5.502 8.99609C6.45745 9.9511 7.62881 10.4365 8.97855 10.4365H8.97859C10.3286 10.4365 11.5 9.95122 12.4554 8.99588L12.3846 8.92517L12.4554 8.99587C13.4104 8.04073 13.8958 6.86952 13.8958 5.51931C13.8958 4.16949 13.4105 2.99816 12.4552 2.04266Z" fill="#9C9C9C" stroke="#9C9C9C" stroke-width="0.2"/>
</g>
</svg>
