<svg width="30" height="30" viewBox="0 0 30 30" fill="none" xmlns="http://www.w3.org/2000/svg">
<ellipse cx="14.9217" cy="15.2351" rx="14.7537" ry="14.7537" fill="#21232F" fill-opacity="0.05"/>
<path d="M16.0428 9.17849C15.9123 9.1912 15.6121 9.25731 15.4268 9.31325C14.5838 9.56496 13.947 10.1879 13.6703 11.0295C13.5215 11.4846 13.5059 11.6423 13.4928 12.8271L13.4798 13.9153H12.4645H11.4492V15.0849V16.2545H12.4671H13.485V19.2166V22.1787H14.7247H15.9645V19.2166V16.2545H16.9902H18.0133L18.1647 15.1027C18.2482 14.4721 18.316 13.9458 18.3134 13.9331C18.3134 13.9229 17.7836 13.9153 17.1363 13.9153H15.9592L15.9697 13.0051C15.9801 12.1406 15.9827 12.0897 16.0401 11.9194C16.0871 11.777 16.1289 11.716 16.2359 11.6117C16.4812 11.3727 16.7527 11.3219 17.8254 11.3219H18.3917V10.282V9.24205L18.243 9.2268C17.7131 9.17086 16.3977 9.14035 16.0428 9.17849Z" fill="#21232F"/>
</svg>
