<svg width="22" height="21" viewBox="0 0 22 21" fill="none" xmlns="http://www.w3.org/2000/svg">
<g id="Group">
<path id="Vector" d="M20.605 15.7409C19.9655 15.2046 16.2152 12.8297 15.5919 12.9387C15.2992 12.9907 15.0753 13.2402 14.4761 13.955C14.199 14.3068 13.8947 14.6363 13.566 14.9405C12.9637 14.795 12.3807 14.5789 11.8291 14.2966C9.66588 13.2435 7.91827 11.4953 6.86573 9.33181C6.58349 8.78021 6.36738 8.19721 6.22189 7.59492C6.52605 7.2662 6.85557 6.96188 7.2074 6.68477C7.92147 6.08557 8.17169 5.86315 8.22363 5.56904C8.33264 4.94423 5.95558 1.19536 5.42149 0.555917C5.19761 0.291067 4.99422 0.113281 4.73376 0.113281C3.97872 0.113281 0.563477 4.33624 0.563477 4.8835C0.563477 4.92813 0.636639 9.32449 6.18897 14.9734C11.8379 20.5257 16.2342 20.5989 16.2789 20.5989C16.8261 20.5989 21.0491 17.1836 21.0491 16.4286C21.0491 16.1681 20.8713 15.9648 20.605 15.7409Z" fill="#00FFFF"/>
</g>
</svg>
