<svg width="31" height="31" viewBox="0 0 31 31" fill="none" xmlns="http://www.w3.org/2000/svg">
<g id="Group">
<path id="Layer 2" d="M26.6281 0.0166016H4.44457C3.34143 0.0166016 2.28346 0.454858 1.50342 1.23496C0.723379 2.01506 0.285156 3.07311 0.285156 4.17634L0.285156 26.3616C0.285156 27.4648 0.723379 28.5229 1.50342 29.303C2.28346 30.0831 3.34143 30.5213 4.44457 30.5213H26.6281C27.7313 30.5213 28.7893 30.0831 29.5693 29.303C30.3493 28.5229 30.7876 27.4648 30.7876 26.3616V4.17634C30.7876 3.07311 30.3493 2.01506 29.5693 1.23496C28.7893 0.454858 27.7313 0.0166016 26.6281 0.0166016ZM10.6837 24.1569C10.6839 24.2415 10.6675 24.3253 10.6353 24.4035C10.603 24.4818 10.5557 24.5529 10.496 24.6127C10.4363 24.6726 10.3653 24.7202 10.2872 24.7526C10.2091 24.785 10.1253 24.8017 10.0407 24.8017H7.30071C7.21598 24.8019 7.13204 24.7854 7.05372 24.7531C6.9754 24.7208 6.90423 24.6733 6.84432 24.6134C6.78441 24.5534 6.73693 24.4823 6.70461 24.4039C6.67229 24.3256 6.65577 24.2417 6.656 24.1569V12.6691C6.656 12.4981 6.72392 12.3341 6.84483 12.2132C6.96574 12.0923 7.12972 12.0244 7.30071 12.0244H10.0407C10.2114 12.0248 10.375 12.093 10.4955 12.2138C10.616 12.3347 10.6837 12.4984 10.6837 12.6691V24.1569ZM8.66985 10.9359C8.15569 10.9359 7.65308 10.7834 7.22557 10.4978C6.79806 10.2121 6.46486 9.80604 6.2681 9.33099C6.07134 8.85593 6.01986 8.33319 6.12017 7.82887C6.22047 7.32455 6.46806 6.86131 6.83163 6.49771C7.1952 6.13412 7.65841 5.88651 8.16269 5.78619C8.66697 5.68588 9.18967 5.73736 9.66469 5.93414C10.1397 6.13091 10.5457 6.46414 10.8314 6.89168C11.117 7.31922 11.2695 7.82187 11.2695 8.33607C11.2695 9.02559 10.9956 9.68687 10.5081 10.1744C10.0205 10.662 9.35932 10.9359 8.66985 10.9359ZM25.006 24.202C25.0062 24.2799 24.991 24.3571 24.9613 24.4291C24.9316 24.5011 24.888 24.5666 24.8329 24.6217C24.7778 24.6767 24.7124 24.7204 24.6403 24.7501C24.5683 24.7798 24.4911 24.795 24.4132 24.7948H21.467C21.3891 24.795 21.3119 24.7798 21.2399 24.7501C21.1679 24.7204 21.1025 24.6767 21.0474 24.6217C20.9923 24.5666 20.9486 24.5011 20.9189 24.4291C20.8892 24.3571 20.8741 24.2799 20.8743 24.202V18.8203C20.8743 18.0161 21.11 15.2984 18.772 15.2984C16.961 15.2984 16.5918 17.1582 16.519 17.9936V24.2089C16.519 24.3647 16.4578 24.5141 16.3485 24.625C16.2392 24.736 16.0907 24.7994 15.935 24.8017H13.0892C13.0115 24.8017 12.9345 24.7864 12.8627 24.7565C12.7909 24.7267 12.7256 24.683 12.6707 24.628C12.6158 24.5729 12.5723 24.5075 12.5427 24.4356C12.5131 24.3637 12.498 24.2867 12.4982 24.2089V12.6189C12.498 12.5411 12.5131 12.4641 12.5427 12.3922C12.5723 12.3203 12.6158 12.2549 12.6707 12.1998C12.7256 12.1448 12.7909 12.1011 12.8627 12.0713C12.9345 12.0415 13.0115 12.0261 13.0892 12.0261H15.935C16.0922 12.0261 16.2429 12.0886 16.3541 12.1997C16.4652 12.3109 16.5277 12.4617 16.5277 12.6189V13.6207C17.2001 12.6102 18.1967 11.8337 20.3232 11.8337C25.0337 11.8337 25.0025 16.2326 25.0025 18.6488L25.006 24.202Z" fill="white"/>
</g>
</svg>
