<svg width="50" height="50" viewBox="0 0 50 50" fill="none" xmlns="http://www.w3.org/2000/svg">
<rect opacity="0.2" x="0.25" y="0.166016" width="49.4683" height="49.4683" rx="6.94292" fill="white"/>
<g clip-path="url(#clip0_98_1142)">
<path d="M27.9052 22.6107L23.6857 26.8302L22.9376 26.0821C22.8284 25.9767 22.6823 25.9184 22.5306 25.9197C22.3789 25.921 22.2338 25.9819 22.1265 26.0892C22.0192 26.1964 21.9584 26.3415 21.9571 26.4932C21.9557 26.6449 22.0141 26.7911 22.1194 26.9002L23.2766 28.0574C23.3851 28.1658 23.5322 28.2268 23.6857 28.2268C23.8391 28.2268 23.9862 28.1658 24.0947 28.0574L28.7233 23.4288C28.8287 23.3196 28.887 23.1735 28.8857 23.0218C28.8844 22.8701 28.8235 22.725 28.7163 22.6177C28.609 22.5104 28.4639 22.4496 28.3122 22.4483C28.1605 22.4469 28.0143 22.5053 27.9052 22.6107Z" fill="#00FFFF"/>
<path d="M34.677 26.4913H34.5966C34.7833 25.0901 34.6446 23.6648 34.1913 22.3259C33.738 20.9871 32.9823 19.7707 31.9828 18.7712C30.9833 17.7716 29.7669 17.0159 28.428 16.5626C27.0891 16.1093 25.6638 15.9706 24.2626 16.1573V16.0769C24.2645 14.7054 23.9181 13.3559 23.2559 12.1548C22.5936 10.9538 21.6373 9.94054 20.4764 9.21011C19.3156 8.47968 17.9883 8.05597 16.619 7.97869C15.2496 7.90141 13.8831 8.1731 12.6474 8.76829C11.4118 9.36348 10.3475 10.2627 9.55436 11.3816C8.76121 12.5005 8.26515 13.8025 8.1127 15.1655C7.96025 16.5285 8.15639 17.9079 8.68273 19.1745C9.20908 20.441 10.0484 21.5531 11.122 22.4065C11.1313 22.4164 11.1446 22.4216 11.1544 22.4308C11.8897 23.0135 12.7208 23.4638 13.6105 23.7616C13.622 23.7668 13.6342 23.7702 13.6463 23.7749C14.4587 24.041 15.308 24.177 16.1626 24.177H16.243C16.0563 25.5781 16.1949 27.0035 16.6482 28.3423C17.1015 29.6812 17.8573 30.8976 18.8568 31.8971C19.8563 32.8966 21.0727 33.6524 22.4116 34.1057C23.7505 34.559 25.1758 34.6977 26.5769 34.5109V34.5914C26.5775 35.8087 26.853 37.0101 27.3828 38.1061C27.9125 39.2021 28.6829 40.1643 29.6365 40.921C29.6457 40.9308 29.659 40.936 29.6689 40.9453C30.4042 41.5279 31.2352 41.9782 32.1249 42.276C32.1365 42.2812 32.1486 42.2847 32.1608 42.2893C33.7952 42.8296 35.56 42.8296 37.1944 42.2893C37.2065 42.2847 37.2187 42.2812 37.2303 42.276C38.1198 41.9784 38.9507 41.5281 39.6857 40.9453C39.6962 40.936 39.7095 40.9308 39.7187 40.921C41.0344 39.8761 41.9922 38.4476 42.4593 36.8338C42.9265 35.2199 42.8797 33.5006 42.3255 31.9146C41.7713 30.3285 40.7372 28.9542 39.3667 27.9824C37.9962 27.0106 36.3571 26.4895 34.677 26.4913ZM34.677 35.7485C34.2123 35.7512 33.7537 35.6414 33.3407 35.4284C32.9276 35.2153 32.5723 34.9054 32.305 34.5252C32.0378 34.1449 31.8666 33.7056 31.8062 33.2448C31.7457 32.7839 31.7977 32.3153 31.9577 31.879C32.4055 31.4297 32.806 30.9357 33.153 30.4048C33.6089 30.1161 34.1374 29.9628 34.677 29.9627C35.4443 29.9627 36.1801 30.2675 36.7226 30.8101C37.2651 31.3526 37.5699 32.0884 37.5699 32.8556C37.5699 33.6229 37.2651 34.3587 36.7226 34.9012C36.1801 35.4437 35.4443 35.7485 34.677 35.7485ZM9.21965 16.0769C9.21965 12.2427 12.3283 9.134 16.1626 9.134C19.9968 9.134 23.1055 12.2427 23.1055 16.0769C23.1055 16.1851 23.102 16.2852 23.098 16.3836C21.8757 16.7009 20.7317 17.2661 19.737 18.0441C19.4249 17.8083 19.0796 17.6202 18.7124 17.4857C19.3629 16.9589 19.8342 16.2433 20.0614 15.4376C20.2887 14.6319 20.2606 13.7755 19.9811 12.9864C19.7017 12.1972 19.1845 11.5141 18.5009 11.0309C17.8172 10.5478 17.0006 10.2884 16.1634 10.2884C15.3263 10.2884 14.5097 10.5478 13.826 11.0309C13.1423 11.5141 12.6252 12.1972 12.3457 12.9864C12.0663 13.7755 12.0382 14.6319 12.2654 15.4376C12.4926 16.2433 12.9639 16.9589 13.6145 17.4857C12.9296 17.7378 12.3254 18.1699 11.8656 18.7365C11.4057 19.3032 11.1073 19.9834 11.0017 20.7055C9.85518 19.4364 9.22022 17.7872 9.21965 16.0769ZM13.2697 14.3412C13.2697 13.5739 13.5745 12.8381 14.117 12.2956C14.6595 11.7531 15.3953 11.4483 16.1626 11.4483C16.9298 11.4483 17.6656 11.7531 18.2081 12.2956C18.7507 12.8381 19.0554 13.5739 19.0554 14.3412C19.0554 15.1084 18.7507 15.8442 18.2081 16.3868C17.6656 16.9293 16.9298 17.2341 16.1626 17.2341C15.3953 17.2341 14.6595 16.9293 14.117 16.3868C13.5745 15.8442 13.2697 15.1084 13.2697 14.3412ZM16.1626 23.0198C15.5766 23.0177 14.9934 22.9409 14.4268 22.7913V21.2841C14.4268 21.1307 14.3659 20.9835 14.2574 20.875C14.1489 20.7665 14.0017 20.7055 13.8483 20.7055C13.6948 20.7055 13.5476 20.7665 13.4391 20.875C13.3306 20.9835 13.2697 21.1307 13.2697 21.2841V22.3834C12.8631 22.196 12.4756 21.9697 12.1125 21.7076V21.2841C12.1134 20.5171 12.4185 19.7819 12.9609 19.2395C13.5032 18.6972 14.2385 18.3921 15.0054 18.3912H17.3197C17.8584 18.3912 18.386 18.5428 18.842 18.8304C17.6964 19.9909 16.8781 21.4336 16.4698 23.0123C16.3703 23.0164 16.2702 23.0198 16.1626 23.0198ZM17.3197 25.3341C17.3197 20.8606 20.9462 17.2341 25.4198 17.2341C29.8933 17.2341 33.5199 20.8606 33.5199 25.3341C33.5199 29.8077 29.8933 33.4342 25.4198 33.4342C20.948 33.4296 17.3243 29.806 17.3197 25.3341ZM27.7341 34.5914C27.7341 34.4832 27.7376 34.3831 27.7416 34.2847C28.7744 34.0199 29.7533 33.5774 30.6345 32.9771C30.6517 33.559 30.7943 34.1303 31.0527 34.6519C31.311 35.1736 31.6789 35.6333 32.1313 35.9996C31.4459 36.2513 30.8412 36.6834 30.3809 37.2502C29.9206 37.817 29.6218 38.4975 29.5161 39.22C28.3696 37.9509 27.7347 36.3016 27.7341 34.5914ZM32.9413 41.3028V39.7985C32.9413 39.6451 32.8803 39.4979 32.7718 39.3894C32.6633 39.2809 32.5162 39.22 32.3627 39.22C32.2093 39.22 32.0621 39.2809 31.9536 39.3894C31.8451 39.4979 31.7841 39.6451 31.7841 39.7985V40.8978C31.3775 40.7104 30.99 40.4841 30.627 40.2221V39.7985C30.6279 39.0316 30.933 38.2963 31.4753 37.754C32.0176 37.2117 32.7529 36.9066 33.5199 36.9057H35.8342C36.6011 36.9066 37.3364 37.2117 37.8787 37.754C38.421 38.2963 38.7261 39.0316 38.727 39.7985V40.2192C38.3641 40.4822 37.9766 40.7095 37.5699 40.8978V39.7985C37.5699 39.6451 37.5089 39.4979 37.4004 39.3894C37.2919 39.2809 37.1448 39.22 36.9913 39.22C36.8379 39.22 36.6907 39.2809 36.5822 39.3894C36.4737 39.4979 36.4127 39.6451 36.4127 39.7985V41.3028C35.2756 41.6076 34.0784 41.6076 32.9413 41.3028ZM39.8379 39.22C39.7322 38.4975 39.4334 37.817 38.9731 37.2502C38.5129 36.6834 37.9081 36.2513 37.2227 35.9996C37.8718 35.4726 38.3418 34.7576 38.5683 33.9527C38.7948 33.1479 38.7666 32.2927 38.4877 31.5045C38.2088 30.7164 37.6928 30.0338 37.0105 29.5506C36.3282 29.0673 35.5131 28.8071 34.677 28.8056C34.4398 28.8073 34.2037 28.8305 33.9706 28.8744C34.132 28.4781 34.2656 28.0708 34.3704 27.656C35.7363 27.5932 37.0902 27.9357 38.2619 28.6406C39.4335 29.3455 40.3705 30.3811 40.955 31.6173C41.5394 32.8534 41.7452 34.2348 41.5464 35.5876C41.3477 36.9404 40.7532 38.2042 39.8379 39.22ZM28.7217 8.72494C28.6132 8.61648 28.4661 8.55555 28.3127 8.55555C28.1593 8.55555 28.0121 8.61648 27.9036 8.72494L26.1679 10.4607C26.0594 10.5692 25.9985 10.7163 25.9985 10.8697C25.9985 11.0231 26.0594 11.1703 26.1679 11.2788L27.9036 13.0145C28.0127 13.1199 28.1589 13.1782 28.3106 13.1769C28.4623 13.1756 28.6074 13.1147 28.7147 13.0075C28.822 12.9002 28.8828 12.7551 28.8841 12.6034C28.8854 12.4517 28.8271 12.3055 28.7217 12.1964L28.002 11.4767C35.3239 11.932 41.0315 17.9984 41.0414 25.3341C41.0414 25.4876 41.1023 25.6347 41.2108 25.7433C41.3193 25.8518 41.4665 25.9127 41.6199 25.9127C41.7734 25.9127 41.9205 25.8518 42.029 25.7433C42.1375 25.6347 42.1985 25.4876 42.1985 25.3341C42.1892 17.3394 35.9348 10.7453 27.9522 10.3126L28.7217 9.54305C28.8302 9.43455 28.8911 9.28742 28.8911 9.134C28.8911 8.98058 28.8302 8.83344 28.7217 8.72494ZM9.79822 25.3341C9.79822 25.1807 9.73727 25.0335 9.62876 24.925C9.52026 24.8165 9.3731 24.7556 9.21965 24.7556C9.0662 24.7556 8.91904 24.8165 8.81053 24.925C8.70203 25.0335 8.64107 25.1807 8.64107 25.3341C8.65033 33.3289 14.9047 39.9229 22.8874 40.3557L22.1179 41.1252C22.0626 41.1786 22.0185 41.2424 21.9882 41.313C21.9579 41.3836 21.9419 41.4595 21.9412 41.5364C21.9406 41.6132 21.9552 41.6894 21.9843 41.7605C22.0134 41.8316 22.0564 41.8962 22.1107 41.9505C22.165 42.0048 22.2296 42.0478 22.3007 42.0769C22.3718 42.106 22.448 42.1206 22.5248 42.1199C22.6016 42.1193 22.6776 42.1033 22.7482 42.073C22.8187 42.0427 22.8826 41.9986 22.936 41.9433L24.6717 40.2076C24.7802 40.0991 24.8411 39.952 24.8411 39.7985C24.8411 39.6451 24.7802 39.498 24.6717 39.3895L22.936 37.6538C22.8268 37.5484 22.6807 37.4901 22.529 37.4914C22.3773 37.4927 22.2322 37.5535 22.1249 37.6608C22.0176 37.7681 21.9568 37.9132 21.9555 38.0649C21.9541 38.2166 22.0125 38.3628 22.1179 38.4719L22.8376 39.1916C15.5157 38.7363 9.80806 32.6699 9.79822 25.3341Z" fill="#00FFFF"/>
</g>
<defs>
<clipPath id="clip0_98_1142">
<rect width="34.7146" height="34.7146" fill="white" transform="translate(8.0625 7.97656)"/>
</clipPath>
</defs>
</svg>
