<svg width="50" height="51" viewBox="0 0 50 51" fill="none" xmlns="http://www.w3.org/2000/svg">
<rect opacity="0.2" x="0.25" y="0.621094" width="49.4683" height="49.4683" rx="6.94292" fill="white"/>
<g clip-path="url(#clip0_98_1144)">
<path d="M20.2515 25.7824L20.2515 25.7824C20.3382 26.2156 20.0571 26.6371 19.6239 26.7238L19.6238 26.7238C19.1908 26.8105 18.7691 26.5297 18.6825 26.0962L18.6825 26.0962L18.0324 22.8456L17.9975 22.6712H17.8196H15.0122H14.8344L14.7995 22.8456L14.1494 26.0961L14.1494 26.0961C14.0628 26.5294 13.6412 26.8104 13.208 26.7237L13.208 26.7237C12.7747 26.6371 12.4937 26.2157 12.5804 25.7824L12.3862 25.7435L12.5804 25.7823L14.6144 15.6121L14.6144 15.6121C14.6507 15.4307 14.7487 15.2675 14.8917 15.1503C15.0347 15.033 15.2139 14.9689 15.3989 14.9689H17.433C17.6179 14.9689 17.7971 15.033 17.9402 15.1503C18.0832 15.2675 18.1812 15.4307 18.2174 15.6121L18.2174 15.6121L20.2515 25.7824ZM15.2063 20.8116L15.1544 21.0711H15.419H17.4128H17.6775L17.6256 20.8116L16.8119 16.7435L16.7771 16.569H16.5992H16.2327H16.0548L16.0199 16.7435L15.2063 20.8116ZM33.4884 22.8882V23.1051H33.7054H36.7565C37.1983 23.1051 37.5566 23.4634 37.5566 23.9052C37.5566 24.3471 37.1983 24.7053 36.7565 24.7053H36.5104H36.3504L36.3031 24.8581C35.733 26.7 34.8755 28.112 33.9317 29.244L33.799 29.4032L33.9519 29.543C34.5453 30.0858 35.1467 30.5573 35.7039 30.9942C35.8878 31.1383 36.0668 31.2787 36.2392 31.4167L36.2392 31.4167C36.5842 31.6926 36.6402 32.1962 36.3641 32.5412L36.5336 32.6767L36.3641 32.5412C36.0882 32.8862 35.5847 32.9422 35.2397 32.6661L35.1206 32.8149L35.2396 32.6661C35.0681 32.5289 34.8893 32.3886 34.7048 32.244C34.1218 31.7869 33.4822 31.2853 32.8351 30.6915L32.6884 30.5569L32.5417 30.6915C31.895 31.285 31.2562 31.7859 30.6727 32.2434C30.4882 32.3881 30.3091 32.5285 30.1371 32.6661L30.1371 32.6661C29.7923 32.942 29.2888 32.8864 29.0126 32.5412L28.8674 32.6574L29.0126 32.5412C28.7365 32.1962 28.7925 31.6927 29.1375 31.4167C29.3096 31.279 29.4882 31.139 29.6714 30.9954C30.2297 30.5577 30.8312 30.0861 31.4249 29.543L31.5778 29.4032L31.4451 29.244C30.5013 28.112 29.6438 26.7 29.0737 24.8581L29.0264 24.7053H28.8664H28.6203C28.1784 24.7053 27.8202 24.3471 27.8202 23.9052C27.8202 23.4634 28.1784 23.1051 28.6203 23.1051H31.6714H31.8883V22.8882V21.8712C31.8883 21.4293 32.2465 21.0711 32.6884 21.0711C33.1302 21.0711 33.4884 21.4293 33.4884 21.8712V22.8882ZM32.5187 28.0234L32.6884 28.2365L32.8581 28.0234C33.5206 27.1918 34.1165 26.1991 34.5653 24.991L34.6739 24.6985H34.3619H31.0148H30.7028L30.8114 24.991C31.2603 26.1991 31.8562 27.1918 32.5187 28.0234Z" fill="#00FFFF" stroke="#545761" stroke-width="0.433932"/>
<path d="M23.9711 13.7613L23.9948 13.9514H24.1864H38.8588C40.4214 13.9514 41.6929 15.223 41.6929 16.7855V39.228C41.6929 40.7905 40.4214 42.0621 38.8588 42.0621H22.2802C20.8539 42.0621 19.6445 40.9918 19.4679 39.5797C19.4679 39.5796 19.4679 39.5796 19.4679 39.5795L19.0375 36.0826L19.0141 35.8921H18.8222H10.2464C8.68386 35.8921 7.41228 34.6205 7.41228 33.058V10.6155C7.41228 9.053 8.68386 7.78142 10.2464 7.78142H20.7229C22.149 7.78142 23.3582 8.84887 23.5351 10.2639C23.5351 10.2639 23.5351 10.264 23.5352 10.264L23.9711 13.7613ZM21.9473 10.4622L21.9473 10.4621C21.8704 9.84591 21.3441 9.38154 20.7229 9.38154H10.2464C9.56578 9.38154 9.0124 9.93492 9.0124 10.6155V33.058C9.0124 33.7386 9.56578 34.292 10.2464 34.292H24.6722H24.9179L24.8875 34.0482L21.9473 10.4622ZM20.9963 38.8985L21.056 39.3838L21.3757 39.0139L23.7643 36.251L24.0746 35.8921H23.6002H20.8716H20.6263L20.6562 36.1356L20.9963 38.8985ZM22.5493 40.1031L22.239 40.4619H22.7134H38.8588C39.5394 40.4619 40.0928 39.9086 40.0928 39.228V16.7855C40.0928 16.1049 39.5394 15.5515 38.8588 15.5515H24.44H24.1943L24.2247 15.7953L26.6159 34.9781L26.6164 34.9814C26.6325 35.0959 26.6235 35.2125 26.5901 35.3232C26.5567 35.4339 26.4996 35.536 26.4229 35.6224L26.421 35.6246L22.5493 40.1031Z" fill="#00FFFF" stroke="#545761" stroke-width="0.433932"/>
</g>
<defs>
<clipPath id="clip0_98_1144">
<rect width="34.7146" height="34.7146" fill="white" transform="translate(7.19531 7.56445)"/>
</clipPath>
</defs>
</svg>
