<svg width="50" height="51" viewBox="0 0 50 51" fill="none" xmlns="http://www.w3.org/2000/svg">
<rect opacity="0.2" x="0.507812" y="0.621094" width="49.4683" height="49.4683" rx="6.94292" fill="white"/>
<path d="M39.6053 27.9896V20.2519C39.6053 19.6765 39.3768 19.1247 38.9699 18.7178C38.563 18.3109 38.0111 18.0823 37.4357 18.0823C36.8602 18.0823 36.3084 18.3109 35.9015 18.7178C35.4946 19.1247 35.266 19.6765 35.266 20.2519V24.0458C34.8262 23.7966 34.3082 23.7239 33.8168 23.8422C33.3254 23.9605 32.8973 24.261 32.619 24.683L30.4147 27.9958L29.946 28.1607C28.7756 28.5795 27.7941 29.4042 27.1799 30.485C26.5657 31.5658 26.3594 32.8311 26.5985 34.051L26.7696 34.899C26.6874 34.9534 26.6196 35.027 26.5721 35.1134C26.5246 35.1997 26.4988 35.2964 26.4969 35.3949V38.9309C26.4969 39.0953 26.5622 39.253 26.6784 39.3692C26.7947 39.4855 26.9524 39.5508 27.1168 39.5508H34.6064C34.7708 39.5508 34.9285 39.4855 35.0448 39.3692C35.161 39.253 35.2263 39.0953 35.2263 38.9309V35.4024C35.2251 35.2507 35.1677 35.105 35.0652 34.9932L39.4962 28.333C39.5658 28.2319 39.6038 28.1123 39.6053 27.9896ZM33.9915 38.311H27.7416V36.0223H33.9915V38.311ZM33.7299 34.7738V34.7825H28.0268L27.8321 33.8105C27.6496 32.8837 27.8057 31.9222 28.2722 31.1009C28.7386 30.2795 29.4843 29.6528 30.3737 29.3348L31.037 29.0992C31.1637 29.0547 31.2724 28.9703 31.347 28.8587L33.6642 25.3736C33.778 25.2073 33.9522 25.092 34.1497 25.0522C34.3472 25.0124 34.5524 25.0512 34.7217 25.1603C34.8074 25.2165 34.8809 25.2894 34.9377 25.3746C34.9946 25.4598 35.0337 25.5556 35.0528 25.6563C35.0728 25.756 35.0729 25.8587 35.0531 25.9585C35.0333 26.0583 34.994 26.1532 34.9375 26.2377L34.8668 26.3444L34.1651 27.3982L32.2781 30.2336C32.2329 30.3014 32.2015 30.3773 32.1857 30.4572C32.1699 30.5371 32.1699 30.6192 32.1859 30.6991C32.2018 30.7789 32.2333 30.8548 32.2786 30.9225C32.3239 30.9902 32.3821 31.0482 32.4498 31.0934C32.5866 31.1847 32.754 31.2178 32.9153 31.1856C32.9951 31.1697 33.071 31.1382 33.1387 31.0929C33.2063 31.0476 33.2644 30.9894 33.3096 30.9217L35.5623 27.5383L35.9715 26.9184L36.3992 26.2749C36.467 26.1732 36.5033 26.0537 36.5033 25.9315V20.2569C36.5028 20.0738 36.5565 19.8947 36.6578 19.7422C36.7591 19.5896 36.9034 19.4706 37.0724 19.4002C37.2133 19.3409 37.3666 19.3173 37.5188 19.3316C37.6709 19.346 37.8172 19.3977 37.9445 19.4823C38.0718 19.5669 38.1762 19.6816 38.2483 19.8164C38.3205 19.9511 38.3582 20.1016 38.3581 20.2544V27.8024L33.7299 34.7738ZM23.0031 34.0547C23.2422 32.8348 23.036 31.5696 22.4217 30.4887C21.8075 29.4079 20.8261 28.5832 19.6556 28.1644L19.187 27.9995L16.9925 24.6867C16.7136 24.2637 16.284 23.9628 15.7912 23.8452C15.2984 23.7275 14.7793 23.8019 14.3393 24.0532V20.2594C14.3393 19.9745 14.2832 19.6923 14.1742 19.4291C14.0651 19.1659 13.9053 18.9267 13.7038 18.7252C13.5024 18.5237 13.2632 18.3639 13 18.2549C12.7367 18.1458 12.4546 18.0897 12.1697 18.0897C11.8847 18.0897 11.6026 18.1458 11.3394 18.2549C11.0761 18.3639 10.837 18.5237 10.6355 18.7252C10.434 18.9267 10.2742 19.1659 10.1652 19.4291C10.0561 19.6923 10 19.9745 10 20.2594V27.9958C10.0001 28.118 10.0363 28.2375 10.1041 28.3392L14.5352 34.9994C14.4327 35.1112 14.3753 35.2569 14.374 35.4086V38.9309C14.374 39.0953 14.4393 39.253 14.5556 39.3692C14.6719 39.4855 14.8295 39.5508 14.9939 39.5508H22.4849C22.6493 39.5508 22.8069 39.4855 22.9232 39.3692C23.0394 39.253 23.1048 39.0953 23.1048 38.9309V35.4024C23.1028 35.3038 23.077 35.2072 23.0295 35.1208C22.982 35.0344 22.9142 34.9609 22.832 34.9065L23.0031 34.0547ZM11.241 27.8011V20.2544C11.2407 20.1012 11.2782 19.9502 11.3505 19.815C11.4227 19.6799 11.5273 19.5647 11.6549 19.4798C11.7825 19.395 11.9291 19.3431 12.0817 19.3287C12.2343 19.3144 12.388 19.3381 12.5292 19.3977C12.6984 19.4683 12.8429 19.5875 12.9445 19.7402C13.046 19.8929 13.0999 20.0723 13.0995 20.2557V25.9303C13.0996 26.0525 13.1358 26.172 13.2037 26.2737L16.2945 30.918C16.3397 30.9857 16.3978 31.0439 16.4654 31.0892C16.5331 31.1345 16.609 31.166 16.6888 31.1819C16.7687 31.1979 16.8509 31.1979 16.9307 31.1821C17.0106 31.1663 17.0866 31.1349 17.1543 31.0897C17.222 31.0445 17.2802 30.9865 17.3255 30.9188C17.3708 30.8511 17.4023 30.7752 17.4182 30.6954C17.4342 30.6155 17.4342 30.5333 17.4184 30.4535C17.4026 30.3736 17.3712 30.2976 17.326 30.2299L15.4378 27.4007L14.6654 26.2402C14.6076 26.1552 14.5675 26.0595 14.5472 25.9587C14.527 25.858 14.5271 25.7542 14.5475 25.6535C14.568 25.5527 14.6083 25.4571 14.6663 25.3722C14.7242 25.2873 14.7985 25.2149 14.8848 25.1591C15.0559 25.0467 15.264 25.0053 15.4651 25.0438C15.5655 25.0631 15.661 25.1023 15.7462 25.1589C15.8313 25.2155 15.9043 25.2885 15.961 25.3736L18.2794 28.8587C18.354 28.9703 18.4627 29.0547 18.5894 29.0992L19.2539 29.3348C20.1431 29.653 20.8885 30.2798 21.3547 31.1012C21.8209 31.9225 21.9769 32.8839 21.7943 33.8105L21.5996 34.7825H15.8965V34.7738L11.241 27.8011ZM21.8649 38.311H15.6151V36.0223H21.8649V38.311ZM32.862 18.1294V12.3841C32.8622 12.2634 32.8271 12.1452 32.761 12.0441C32.695 11.943 32.6008 11.8634 32.4901 11.8151L25.0513 8.60644C24.973 8.57231 24.8886 8.55469 24.8033 8.55469C24.718 8.55469 24.6335 8.57231 24.5553 8.60644L17.1165 11.8151C17.0058 11.8634 16.9116 11.943 16.8456 12.0441C16.7795 12.1452 16.7444 12.2634 16.7445 12.3841V18.1294C16.7428 19.2984 16.9991 20.4535 17.495 21.5121C17.9909 22.5708 18.7142 23.507 19.6135 24.254L24.4066 28.2487C24.5179 28.3415 24.6583 28.3923 24.8033 28.3923C24.9483 28.3923 25.0886 28.3415 25.2 28.2487L29.9931 24.254C30.8924 23.507 31.6157 22.5708 32.1116 21.5121C32.6075 20.4535 32.8637 19.2984 32.862 18.1294ZM29.1984 23.3093L24.8033 26.9667L20.4069 23.3093C19.647 22.6773 19.0358 21.8853 18.617 20.99C18.1983 20.0946 17.9822 19.1178 17.9844 18.1294V12.7982L24.8033 9.85121L31.6222 12.792V18.1294C31.6244 19.118 31.4083 20.0949 30.9893 20.9903C30.5704 21.8857 29.9588 22.6776 29.1984 23.3093Z" fill="#00FFFF"/>
<path d="M27.1576 14.9357L23.8721 18.2175L22.4463 16.7954C22.3887 16.7378 22.3202 16.6921 22.2449 16.6609C22.1696 16.6297 22.0889 16.6136 22.0074 16.6136C21.9259 16.6136 21.8452 16.6297 21.7699 16.6609C21.6946 16.6921 21.6262 16.7378 21.5685 16.7954C21.5109 16.853 21.4652 16.9215 21.434 16.9968C21.4028 17.0721 21.3867 17.1528 21.3867 17.2343C21.3867 17.3158 21.4028 17.3965 21.434 17.4718C21.4652 17.5471 21.5109 17.6156 21.5685 17.6732L23.4282 19.5329C23.4858 19.5906 23.5542 19.6364 23.6295 19.6677C23.7048 19.6989 23.7856 19.715 23.8671 19.715C23.9487 19.715 24.0294 19.6989 24.1047 19.6677C24.18 19.6364 24.2484 19.5906 24.306 19.5329L28.0254 15.8135C28.1418 15.6971 28.2072 15.5392 28.2072 15.3746C28.2072 15.21 28.1418 15.0521 28.0254 14.9357C27.909 14.8193 27.7512 14.7539 27.5865 14.7539C27.4219 14.7539 27.264 14.8193 27.1476 14.9357H27.1576Z" fill="#00FFFF"/>
</svg>
