<svg width="30" height="30" viewBox="0 0 30 30" fill="none" xmlns="http://www.w3.org/2000/svg">
<ellipse cx="14.8435" cy="15.2351" rx="14.7537" ry="14.7537" fill="#21232F" fill-opacity="0.05"/>
<path d="M11.9518 8.31953C10.7904 8.38194 9.90582 8.69671 9.26271 9.26927C8.40253 10.0372 8.02535 10.9272 7.94394 12.3871C7.87068 13.7086 7.88967 17.806 7.97379 18.5468C8.08776 19.5834 8.44052 20.392 9.03749 20.9944C9.5205 21.4801 9.98723 21.7542 10.671 21.9523C11.4037 22.1639 11.9464 22.1911 15.2569 22.1748C17.9161 22.1639 18.1305 22.1558 18.6759 22.0445C20.2769 21.7216 21.3623 20.6281 21.6717 19.0298C21.7802 18.4708 21.7856 18.1751 21.7775 14.9785L21.7666 11.9122L21.7042 11.573C21.5414 10.6857 21.2212 10.0318 20.6894 9.48906C19.9377 8.72113 19.0992 8.39822 17.6584 8.31682C17.075 8.28426 12.5542 8.28697 11.9518 8.31953ZM17.9026 9.61931C18.7112 9.698 19.2702 9.91237 19.6854 10.3058C19.9947 10.5962 20.1928 10.9191 20.3285 11.3533C20.4316 11.6789 20.4777 11.9801 20.5076 12.5363C20.5428 13.1686 20.5428 17.3311 20.5076 17.9525C20.4452 19.0787 20.2389 19.6349 19.6989 20.1532C19.2702 20.5602 18.7763 20.7692 18.0247 20.8533C17.3517 20.9293 12.3344 20.9293 11.7022 20.8533C11.1757 20.7909 10.7416 20.6606 10.4241 20.4707C10.2423 20.3649 9.88411 20.0338 9.75115 19.852C9.53678 19.5617 9.36854 19.1221 9.28985 18.6553C9.21658 18.2158 9.19216 17.3366 9.19216 15.2227C9.19216 13.1442 9.21658 12.2894 9.28714 11.858C9.40653 11.1145 9.68602 10.5908 10.1609 10.2081C10.4105 10.0073 10.5923 9.90966 10.9288 9.7984C11.2843 9.68172 11.6832 9.62202 12.3181 9.59218C13.0399 9.55961 17.52 9.58132 17.9026 9.61931Z" fill="#21232F"/>
<path d="M18.3317 10.7121C17.9246 10.8288 17.6777 11.2331 17.7455 11.67C17.7754 11.86 17.8405 11.9902 17.9762 12.1232C18.1417 12.2914 18.2611 12.3403 18.5352 12.3538C18.7604 12.3647 18.7821 12.362 18.9476 12.2806C19.1349 12.1883 19.2515 12.0689 19.3492 11.8708C19.4306 11.6999 19.4334 11.3661 19.3519 11.1897C19.1729 10.8044 18.736 10.6009 18.3317 10.7121Z" fill="#21232F"/>
<path d="M14.3934 11.6843C13.848 11.7576 13.308 11.9665 12.8304 12.2867C12.5753 12.4577 12.0706 12.9624 11.8996 13.2202C11.631 13.6272 11.4275 14.1211 11.3352 14.5986C11.2782 14.8836 11.2864 15.6515 11.3488 15.9364C11.6609 17.3854 12.7137 18.441 14.1654 18.7558C14.4802 18.8236 15.2508 18.8236 15.5656 18.7558C16.2983 18.5957 16.8518 18.2972 17.3783 17.7735C17.9128 17.2443 18.2249 16.6663 18.385 15.9147C18.4528 15.5945 18.4528 14.8781 18.385 14.5579C18.0756 13.1008 17.0011 12.0208 15.5575 11.7223C15.2997 11.668 14.6566 11.6463 14.3934 11.6843ZM15.4245 13.0112C16.2413 13.2202 16.8708 13.8497 17.0933 14.68C17.1395 14.8483 17.153 14.9758 17.153 15.2363C17.153 15.6271 17.096 15.8794 16.9414 16.205C16.4475 17.247 15.2536 17.7789 14.1871 17.4316C13.4057 17.1792 12.8385 16.5687 12.6214 15.7519C12.5563 15.5077 12.559 14.9677 12.6242 14.7072C12.9009 13.6299 13.8832 12.8918 14.9632 12.9461C15.1016 12.9515 15.3078 12.9814 15.4245 13.0112Z" fill="#21232F"/>
</svg>
