<svg width="404" height="382" viewBox="0 0 404 382" fill="none" xmlns="http://www.w3.org/2000/svg">
<g clip-path="url(#clip0_103_1456)">
<mask id="path-1-inside-1_103_1456" fill="white">
<path d="M100.112 223.091L99.6826 222.642L102.374 220.075L102.803 220.524L100.112 223.091ZM105.488 217.939L105.051 217.497C105.927 216.637 106.802 215.749 107.661 214.855L108.107 215.285C107.246 216.18 106.366 217.073 105.488 217.939ZM110.655 212.561L110.196 212.144C111.02 211.241 111.848 210.306 112.659 209.366L113.128 209.772C112.312 210.718 111.481 211.655 110.655 212.563V212.561ZM115.53 206.917L115.051 206.523C115.825 205.58 116.606 204.605 117.37 203.625L117.859 204.007C117.09 204.992 116.306 205.969 115.53 206.917ZM120.119 201.04L119.623 200.671C120.35 199.693 121.086 198.681 121.806 197.666L122.312 198.026C121.587 199.046 120.851 200.06 120.121 201.043L120.119 201.04ZM124.435 194.962L123.922 194.615C124.616 193.591 125.301 192.559 125.973 191.519L126.494 191.857C125.82 192.898 125.132 193.935 124.435 194.965V194.962ZM158.414 190.663C157.27 190.663 156.114 190.443 155.072 190.026L155.303 189.45C156.273 189.837 157.347 190.043 158.414 190.043C158.568 190.028 158.682 190.041 158.816 190.033L158.846 190.653C158.702 190.661 158.531 190.653 158.414 190.663ZM162.532 189.604L162.222 189.068C163.244 188.478 164.097 187.615 164.695 186.57L165.234 186.878C164.584 188.019 163.648 188.962 162.532 189.604ZM128.491 188.709L127.965 188.381C128.618 187.329 129.26 186.27 129.893 185.206L130.426 185.523C129.791 186.592 129.146 187.654 128.491 188.709ZM151.929 187.845C151.096 186.947 150.409 185.866 149.888 184.628L150.458 184.387C150.949 185.558 151.597 186.578 152.383 187.424L151.929 187.845ZM166.261 183.181L165.64 183.169V183.003C165.64 182.073 165.452 181.162 165.095 180.368C165 180.16 164.899 179.959 164.787 179.763L165.328 179.458C165.449 179.671 165.561 179.89 165.66 180.113C166.055 180.986 166.263 181.986 166.263 183.003V183.181H166.261ZM132.545 182.532L132.069 182.132C132.872 181.172 133.763 180.269 134.711 179.448L135.117 179.917C134.195 180.716 133.329 181.596 132.545 182.532ZM148.928 180.956C148.858 180.368 148.821 179.765 148.821 179.163C148.821 178.505 148.863 177.835 148.947 177.171L149.563 177.248C149.481 177.888 149.441 178.533 149.441 179.163C149.441 179.741 149.476 180.319 149.543 180.882L148.928 180.956ZM138.074 177.746L137.747 177.218C138.799 176.565 139.923 175.982 141.086 175.481L141.332 176.052C140.195 176.541 139.101 177.111 138.074 177.746ZM162.401 177.106C161.498 176.419 160.431 175.826 159.233 175.342L159.463 174.767C160.716 175.27 161.83 175.893 162.775 176.612L162.401 177.106ZM144.802 174.841L144.638 174.243C145.849 173.913 147.092 173.668 148.33 173.514L148.407 174.129C147.199 174.281 145.985 174.519 144.802 174.841ZM155.72 174.328C154.544 174.104 153.319 173.975 152.073 173.946L152.088 173.326C153.366 173.358 154.626 173.489 155.834 173.72L155.717 174.33L155.72 174.328ZM150.419 173.7L149.836 173.492C150.26 172.316 150.811 171.17 151.473 170.086L152.001 170.411C151.359 171.458 150.828 172.564 150.419 173.703V173.7ZM154.209 167.498L153.755 167.077C153.936 166.883 154.12 166.692 154.311 166.503C155.003 165.816 155.767 165.166 156.581 164.573L156.948 165.075C156.159 165.653 155.42 166.28 154.747 166.948C154.564 167.129 154.385 167.315 154.209 167.501V167.498ZM160.079 163.174L159.803 162.619C160.924 162.063 162.103 161.594 163.303 161.227L163.485 161.82C162.314 162.177 161.168 162.634 160.079 163.174ZM167.074 160.897L166.92 160.297C168.133 159.987 169.339 159.662 170.505 159.329L170.674 159.925C169.503 160.257 168.292 160.584 167.074 160.895V160.897ZM174.248 158.858L174.062 158.265C175.258 157.888 176.444 157.496 177.585 157.097L177.791 157.682C176.645 158.081 175.452 158.478 174.251 158.855L174.248 158.858ZM181.291 156.395L181.068 155.816C182.229 155.365 183.385 154.894 184.501 154.412L184.747 154.98C183.623 155.464 182.46 155.941 181.294 156.395H181.291ZM188.143 153.435L187.875 152.877L191.222 151.252L191.492 151.81L188.143 153.437V153.435ZM194.839 150.183L194.568 149.625L197.915 147.997L198.185 148.555L194.839 150.183ZM201.532 146.928L201.261 146.37L204.608 144.742L204.878 145.301L201.532 146.928ZM208.225 143.673L207.954 143.115L211.301 141.488L211.571 142.046L208.225 143.673ZM214.918 140.419L214.647 139.86L217.994 138.233L218.264 138.791L214.918 140.419Z"/>
</mask>
<path d="M100.112 223.091L99.6826 222.642L102.374 220.075L102.803 220.524L100.112 223.091ZM105.488 217.939L105.051 217.497C105.927 216.637 106.802 215.749 107.661 214.855L108.107 215.285C107.246 216.18 106.366 217.073 105.488 217.939ZM110.655 212.561L110.196 212.144C111.02 211.241 111.848 210.306 112.659 209.366L113.128 209.772C112.312 210.718 111.481 211.655 110.655 212.563V212.561ZM115.53 206.917L115.051 206.523C115.825 205.58 116.606 204.605 117.37 203.625L117.859 204.007C117.09 204.992 116.306 205.969 115.53 206.917ZM120.119 201.04L119.623 200.671C120.35 199.693 121.086 198.681 121.806 197.666L122.312 198.026C121.587 199.046 120.851 200.06 120.121 201.043L120.119 201.04ZM124.435 194.962L123.922 194.615C124.616 193.591 125.301 192.559 125.973 191.519L126.494 191.857C125.82 192.898 125.132 193.935 124.435 194.965V194.962ZM158.414 190.663C157.27 190.663 156.114 190.443 155.072 190.026L155.303 189.45C156.273 189.837 157.347 190.043 158.414 190.043C158.568 190.028 158.682 190.041 158.816 190.033L158.846 190.653C158.702 190.661 158.531 190.653 158.414 190.663ZM162.532 189.604L162.222 189.068C163.244 188.478 164.097 187.615 164.695 186.57L165.234 186.878C164.584 188.019 163.648 188.962 162.532 189.604ZM128.491 188.709L127.965 188.381C128.618 187.329 129.26 186.27 129.893 185.206L130.426 185.523C129.791 186.592 129.146 187.654 128.491 188.709ZM151.929 187.845C151.096 186.947 150.409 185.866 149.888 184.628L150.458 184.387C150.949 185.558 151.597 186.578 152.383 187.424L151.929 187.845ZM166.261 183.181L165.64 183.169V183.003C165.64 182.073 165.452 181.162 165.095 180.368C165 180.16 164.899 179.959 164.787 179.763L165.328 179.458C165.449 179.671 165.561 179.89 165.66 180.113C166.055 180.986 166.263 181.986 166.263 183.003V183.181H166.261ZM132.545 182.532L132.069 182.132C132.872 181.172 133.763 180.269 134.711 179.448L135.117 179.917C134.195 180.716 133.329 181.596 132.545 182.532ZM148.928 180.956C148.858 180.368 148.821 179.765 148.821 179.163C148.821 178.505 148.863 177.835 148.947 177.171L149.563 177.248C149.481 177.888 149.441 178.533 149.441 179.163C149.441 179.741 149.476 180.319 149.543 180.882L148.928 180.956ZM138.074 177.746L137.747 177.218C138.799 176.565 139.923 175.982 141.086 175.481L141.332 176.052C140.195 176.541 139.101 177.111 138.074 177.746ZM162.401 177.106C161.498 176.419 160.431 175.826 159.233 175.342L159.463 174.767C160.716 175.27 161.83 175.893 162.775 176.612L162.401 177.106ZM144.802 174.841L144.638 174.243C145.849 173.913 147.092 173.668 148.33 173.514L148.407 174.129C147.199 174.281 145.985 174.519 144.802 174.841ZM155.72 174.328C154.544 174.104 153.319 173.975 152.073 173.946L152.088 173.326C153.366 173.358 154.626 173.489 155.834 173.72L155.717 174.33L155.72 174.328ZM150.419 173.7L149.836 173.492C150.26 172.316 150.811 171.17 151.473 170.086L152.001 170.411C151.359 171.458 150.828 172.564 150.419 173.703V173.7ZM154.209 167.498L153.755 167.077C153.936 166.883 154.12 166.692 154.311 166.503C155.003 165.816 155.767 165.166 156.581 164.573L156.948 165.075C156.159 165.653 155.42 166.28 154.747 166.948C154.564 167.129 154.385 167.315 154.209 167.501V167.498ZM160.079 163.174L159.803 162.619C160.924 162.063 162.103 161.594 163.303 161.227L163.485 161.82C162.314 162.177 161.168 162.634 160.079 163.174ZM167.074 160.897L166.92 160.297C168.133 159.987 169.339 159.662 170.505 159.329L170.674 159.925C169.503 160.257 168.292 160.584 167.074 160.895V160.897ZM174.248 158.858L174.062 158.265C175.258 157.888 176.444 157.496 177.585 157.097L177.791 157.682C176.645 158.081 175.452 158.478 174.251 158.855L174.248 158.858ZM181.291 156.395L181.068 155.816C182.229 155.365 183.385 154.894 184.501 154.412L184.747 154.98C183.623 155.464 182.46 155.941 181.294 156.395H181.291ZM188.143 153.435L187.875 152.877L191.222 151.252L191.492 151.81L188.143 153.437V153.435ZM194.839 150.183L194.568 149.625L197.915 147.997L198.185 148.555L194.839 150.183ZM201.532 146.928L201.261 146.37L204.608 144.742L204.878 145.301L201.532 146.928ZM208.225 143.673L207.954 143.115L211.301 141.488L211.571 142.046L208.225 143.673ZM214.918 140.419L214.647 139.86L217.994 138.233L218.264 138.791L214.918 140.419Z" fill="#17E5E8" stroke="#4E4E4E" stroke-width="1.73573" mask="url(#path-1-inside-1_103_1456)"/>
<path d="M203.487 25.0967C203.487 25.2257 203.487 25.3473 203.502 25.4763H285.061C284.85 18.7535 278.995 13.3629 271.819 13.3629C269.517 13.3629 267.358 13.9161 265.473 14.8835C265.572 9.65168 263.057 4.6406 258.425 1.95148C251.474 -2.07723 242.382 0.656538 238.125 8.06153C236.845 10.2942 236.141 12.6955 235.982 15.0795C232.591 13.5266 228.388 12.6037 223.829 12.6037C212.594 12.6037 203.484 18.1978 203.484 25.0967H203.487Z" fill="#30343E"/>
<mask id="mask0_103_1456" style="mask-type:luminance" maskUnits="userSpaceOnUse" x="199" y="111" width="189" height="113">
<path d="M199.307 208.979C199.307 216.904 205.732 223.33 213.658 223.33H373.062C380.988 223.33 387.413 216.904 387.413 208.979V111.992H199.307V208.979Z" fill="white"/>
</mask>
<g mask="url(#mask0_103_1456)">
<path opacity="0.5" d="M199.306 208.978C199.306 216.904 205.731 223.329 213.657 223.329H373.061C380.987 223.329 387.412 216.904 387.412 208.978V111.992H199.306V208.978Z" fill="#41444D"/>
<path opacity="0.2" d="M189.463 136.722C191.66 129.672 198.619 124.261 206.217 123.688C213.818 123.115 221.576 127.417 224.902 134.05C228.946 134.013 232.932 136.256 234.897 139.674C236.862 143.093 236.723 147.543 234.55 150.835C239.367 151.668 243.689 154.839 245.82 159.096C247.951 163.353 247.834 168.592 245.517 172.75C250.819 170.056 257.596 170.301 262.681 173.37C267.767 176.441 270.972 182.221 270.793 188.011C274.095 182.831 280.426 179.604 286.72 179.892C293.013 180.18 299.014 183.968 301.813 189.425C304.767 180.584 312.646 173.449 321.966 171.167C331.289 168.887 341.745 171.537 348.721 177.947C359.212 179.589 366.86 190.981 364.126 200.896C369.794 205.587 372.69 213.211 371.506 220.323C370.32 227.433 365.096 233.783 358.195 236.5L177.674 236.383L162.286 167.51L189.46 136.72L189.463 136.722Z" fill="#9C9C9C"/>
<g opacity="0.8">
<path opacity="0.2" d="M186.6 159.597C188.731 152.544 195.456 147.129 202.799 146.548C210.142 145.97 217.634 150.264 220.842 156.895C224.749 156.856 228.599 159.093 230.494 162.512C232.39 165.93 232.253 170.381 230.149 173.673C234.803 174.504 238.976 177.669 241.032 181.926C243.089 186.183 242.972 191.42 240.73 195.58C245.852 192.881 252.402 193.122 257.313 196.188C262.225 199.254 265.316 205.034 265.14 210.822C268.333 205.639 274.453 202.407 280.533 202.69C286.613 202.973 292.406 206.756 295.107 212.211C297.968 203.37 305.586 196.225 314.594 193.938C323.601 191.651 333.703 194.292 340.438 200.698C350.572 202.33 357.952 213.717 355.302 223.635C360.775 228.321 363.568 235.942 362.417 243.054C361.266 250.166 356.213 256.519 349.545 259.241L175.137 259.268L160.324 190.408L186.603 159.597H186.6Z" fill="#B5B5B5"/>
</g>
<path opacity="0.7" d="M325.258 115.098C273.011 164.231 235.961 177.478 189.286 182.216L186.186 231.831L235.18 248.576C277.973 247.336 319.061 185.387 344.441 132.242L325.255 115.1" fill="#71999A"/>
<path d="M332.616 115.735C324.122 125.785 311.311 135.397 296.201 148.382L316.819 139.979C314.291 144.169 310.609 150.031 308.545 152.547C313.296 150.354 320.944 145.529 323.477 142.969C323.477 146.538 319.175 152.51 317.3 155.772C328.297 146.36 338.299 134.872 341.532 124.777L332.618 115.735" fill="#E3E3E3"/>
<path opacity="0.4" d="M335.025 116.244C330.002 122.904 322.48 129.325 313.592 137.972L325.623 132.264C324.115 135.03 321.922 138.903 320.702 140.57C323.477 139.086 327.958 135.851 329.451 134.152C329.414 136.486 326.861 140.438 325.74 142.592C332.207 136.323 338.121 128.704 340.098 122.068L335.028 116.246" fill="white"/>
<path d="M257.007 150.378C257.074 151.931 257.007 154.553 255.454 155.451C252.864 156.952 250.825 153.31 249.875 151.48C248.742 149.294 249.032 146.583 251.597 145.608C254.985 144.321 256.883 147.478 257.007 150.378Z" fill="#9C9C9C"/>
<path d="M379.834 197.539C379.901 199.092 379.834 201.714 378.281 202.612C375.691 204.113 373.652 200.472 372.702 198.641C371.569 196.455 371.859 193.744 374.424 192.769C377.812 191.482 379.71 194.64 379.834 197.539Z" fill="#9C9C9C"/>
<path d="M243.243 134.978C244.442 134.978 245.413 134.006 245.413 132.807C245.413 131.609 244.442 130.637 243.243 130.637C242.044 130.637 241.072 131.609 241.072 132.807C241.072 134.006 242.044 134.978 243.243 134.978Z" fill="#9C9C9C"/>
<path d="M355.105 174.924C356.739 174.111 357.406 172.128 356.593 170.494C355.781 168.86 353.798 168.194 352.164 169.006C350.53 169.818 349.864 171.801 350.676 173.436C351.488 175.07 353.471 175.736 355.105 174.924Z" fill="#9C9C9C"/>
</g>
<path d="M373.063 223.64H213.658C205.574 223.64 198.997 217.063 198.997 208.979V111.682H387.724V208.979C387.724 217.063 381.147 223.64 373.063 223.64ZM199.617 112.302V208.979C199.617 216.721 205.916 223.02 213.658 223.02H373.063C380.805 223.02 387.104 216.721 387.104 208.979V112.302H199.617Z" fill="#8B8B8B"/>
<path opacity="0.5" d="M373.064 74.4186H213.66C205.734 74.4186 199.309 80.8412 199.309 88.7697V111.994H387.415V88.7697C387.415 80.8412 380.99 74.4186 373.064 74.4186Z" fill="#41444D"/>
<path d="M387.725 112.302H198.998V88.7672C198.998 80.6825 205.574 74.1061 213.659 74.1061H373.064C381.148 74.1061 387.725 80.6825 387.725 88.7672V112.302ZM199.618 111.682H387.105V88.7672C387.105 81.0248 380.806 74.7262 373.064 74.7262H213.659C205.917 74.7262 199.618 81.0248 199.618 88.7672V111.682Z" fill="#8B8B8B"/>
<path d="M217.012 101.383C212.502 101.383 208.833 97.7143 208.833 93.2046C208.833 88.6949 212.502 85.0261 217.012 85.0261C221.521 85.0261 225.19 88.6949 225.19 93.2046C225.19 97.7143 221.521 101.383 217.012 101.383ZM217.012 85.6487C212.844 85.6487 209.453 89.0397 209.453 93.207C209.453 97.3744 212.844 100.765 217.012 100.765C221.179 100.765 224.57 97.3744 224.57 93.207C224.57 89.0397 221.179 85.6487 217.012 85.6487Z" fill="#8B8B8B"/>
<path d="M276.908 101.025H245.581C241.269 101.025 237.762 97.5169 237.762 93.2053C237.762 88.8938 241.269 85.3861 245.581 85.3861H276.908C281.219 85.3861 284.727 88.8938 284.727 93.2053C284.727 97.5169 281.219 101.025 276.908 101.025ZM245.581 86.0038C241.612 86.0038 238.382 89.2337 238.382 93.2029C238.382 97.172 241.612 100.402 245.581 100.402H276.908C280.877 100.402 284.107 97.172 284.107 93.2029C284.107 89.2337 280.877 86.0038 276.908 86.0038H245.581Z" fill="#8B8B8B"/>
<path d="M365.26 57.2992C352.698 68.2963 331.031 60.7151 324.298 69.4969L343.536 84.7311L365.26 57.2992Z" fill="#00FCFF"/>
<path d="M324.298 69.4994C323.336 72.062 323.857 74.9446 325.658 77.0061L339.289 92.6198L343.536 84.7336L324.298 69.4994Z" fill="#17E5E8"/>
<path d="M393.735 79.8465C385.91 94.5945 398.254 113.947 391.249 122.513L372.011 107.278L393.735 79.8465Z" fill="#00FCFF"/>
<path d="M391.249 122.513C388.976 124.036 386.049 124.19 383.63 122.91L365.308 113.22L372.011 107.278L391.249 122.513Z" fill="#17E5E8"/>
<path d="M403.508 38.3984L386.378 44.6871L401.312 56.5127L403.508 38.3984Z" fill="white"/>
<path d="M401.313 56.5128C398.919 83.6148 378.894 108.906 354.571 122.952L332.405 105.418C341.706 76.1577 359.026 55.2178 386.376 44.6846L401.31 56.5103L401.313 56.5128Z" fill="#9C9C9C"/>
<path d="M332.408 105.418L322.792 112.076L350.291 133.852L354.571 122.952L332.408 105.418Z" fill="#00FCFF"/>
<path d="M381.164 78.3664C386.806 77.6957 390.836 72.5782 390.165 66.9363C389.495 61.2943 384.377 57.2644 378.735 57.9351C373.093 58.6059 369.063 63.7234 369.734 69.3653C370.405 75.0073 375.522 79.0372 381.164 78.3664Z" fill="white"/>
<path d="M380.727 75.4373L380.663 74.8196C381.253 74.7576 381.831 74.6162 382.387 74.4004L382.61 74.9784C382.007 75.2116 381.372 75.3654 380.727 75.4348V75.4373ZM378.79 75.3877C378.147 75.286 377.525 75.0999 376.934 74.832L377.19 74.2665C377.731 74.5096 378.301 74.6807 378.887 74.775L378.79 75.3877ZM384.304 74.0457L383.937 73.5471C384.411 73.1948 384.84 72.7806 385.21 72.3142L385.696 72.6987C385.292 73.2097 384.825 73.6612 384.304 74.0457ZM375.29 73.8076C374.786 73.3933 374.342 72.917 373.968 72.3911L374.474 72.0315C374.816 72.5127 375.223 72.9493 375.684 73.3288L375.29 73.8076ZM386.452 71.5304L385.902 71.2451C386.175 70.7192 386.378 70.1586 386.505 69.5782L387.11 69.7096C386.971 70.3447 386.75 70.9574 386.45 71.5304H386.452ZM373.065 70.6771C372.842 70.0693 372.7 69.4343 372.643 68.7869L373.261 68.7323C373.313 69.3251 373.442 69.9081 373.648 70.4637L373.065 70.6771ZM386.651 67.8095C386.621 67.2142 386.512 66.6287 386.328 66.0657L386.919 65.8746C387.12 66.4898 387.236 67.1298 387.271 67.7773L386.651 67.8095ZM373.34 66.9611L372.73 66.852C372.844 66.212 373.042 65.5919 373.32 65.0064L373.881 65.2719C373.628 65.8077 373.444 66.3757 373.34 66.9587V66.9611ZM385.562 64.4682C385.237 63.9745 384.848 63.5231 384.401 63.1262L384.813 62.6623C385.299 63.0939 385.726 63.5876 386.08 64.1283L385.562 64.4682ZM374.843 63.786L374.372 63.3841C374.794 62.8905 375.277 62.4539 375.813 62.0893L376.163 62.6028C375.674 62.9352 375.23 63.3345 374.843 63.7885V63.786ZM382.933 62.1339C382.402 61.8685 381.836 61.6775 381.256 61.5634L381.375 60.9557C382.01 61.0822 382.627 61.2905 383.208 61.5808L382.933 62.1364V62.1339ZM377.746 61.804L377.542 61.2186C378.152 61.0077 378.792 60.8763 379.44 60.8316L379.485 61.4518C378.892 61.4939 378.306 61.613 377.746 61.8065V61.804Z" fill="#9192FF"/>
<path d="M350.645 105.668L350.157 105.282C349.434 104.71 348.384 104.832 347.811 105.555L328.523 129.917C327.95 130.64 328.072 131.69 328.795 132.262L329.284 132.649C330.006 133.221 331.056 133.099 331.629 132.376L350.917 108.014C351.49 107.291 351.368 106.241 350.645 105.668Z" fill="#1B1B43"/>
<path d="M363.431 345.034H359.71V344.414H363.431V345.034ZM355.988 345.034H352.267V344.414H355.988V345.034ZM348.546 345.034H344.825V344.414H348.546V345.034ZM341.104 345.034H337.383V344.414H341.104V345.034ZM333.662 345.034H329.941V344.414H333.662V345.034ZM326.22 345.034H322.499V344.414H326.22V345.034ZM318.777 345.034H315.056V344.414H318.777V345.034ZM311.335 345.034H307.614V344.414H311.335V345.034ZM303.893 345.034H300.172V344.414H303.893V345.034ZM296.451 345.034H292.73V344.414H296.451V345.034ZM289.006 345.034C287.721 345.022 286.461 344.809 285.258 344.394L285.459 343.809C286.6 344.198 287.796 344.404 289.014 344.414L289.009 345.034H289.006ZM363.88 345.027L363.857 344.407C365.073 344.362 366.261 344.124 367.392 343.7L367.611 344.28C366.42 344.727 365.165 344.977 363.882 345.027H363.88ZM281.904 342.598C280.887 341.822 280.006 340.894 279.287 339.84L279.8 339.49C280.482 340.49 281.318 341.37 282.281 342.107L281.904 342.601V342.598ZM370.91 342.39L370.521 341.909C371.463 341.145 372.274 340.242 372.927 339.222L373.448 339.557C372.758 340.631 371.905 341.584 370.91 342.39ZM277.674 336.394C277.374 335.34 277.223 334.246 277.223 333.137V332.628H277.843V333.137C277.843 334.186 277.987 335.226 278.27 336.223L277.674 336.392V336.394ZM374.964 336.069L374.363 335.915C374.591 335.012 374.708 334.077 374.708 333.137V332.301H375.328V333.137C375.328 334.129 375.207 335.114 374.964 336.067V336.069ZM277.843 328.91H277.223V325.189H277.843V328.91ZM375.328 328.58H374.708V324.859H375.328V328.58ZM277.843 321.467H277.223V317.746H277.843V321.467ZM375.328 321.138H374.708V317.416H375.328V321.138ZM277.843 314.025H277.223V310.304H277.843V314.025ZM375.328 313.695H374.708V309.974H375.328V313.695ZM277.843 306.583H277.223V302.862H277.843V306.583ZM375.328 306.253H374.708V302.532H375.328V306.253ZM277.843 299.141H277.223V295.42H277.843V299.141ZM375.328 298.811H374.708V295.09H375.328V298.811ZM277.843 291.699H277.223V289.22C277.223 288.799 277.245 288.37 277.29 287.948L277.907 288.012C277.865 288.412 277.843 288.819 277.843 289.218V291.696V291.699ZM375.328 291.369H374.708V289.218C374.708 288.709 374.673 288.196 374.606 287.692L375.222 287.61C375.293 288.139 375.328 288.68 375.328 289.218V291.369ZM278.86 284.534L278.294 284.276C278.825 283.115 279.537 282.051 280.41 281.113L280.864 281.535C280.038 282.423 279.361 283.433 278.86 284.532V284.534ZM373.557 284.247C373.024 283.162 372.319 282.173 371.468 281.307L371.91 280.873C372.808 281.786 373.55 282.83 374.113 283.974L373.557 284.247ZM283.71 279.322L283.412 278.779C284.533 278.164 285.741 277.737 286.999 277.511L287.108 278.122C285.918 278.335 284.774 278.739 283.71 279.322ZM368.563 279.173C367.484 278.623 366.331 278.251 365.132 278.07L365.224 277.457C366.489 277.648 367.707 278.04 368.846 278.62L368.563 279.173ZM361.463 277.943H357.742V277.323H361.463V277.943ZM354.021 277.943H350.3V277.323H354.021V277.943ZM346.579 277.943H342.858V277.323H346.579V277.943ZM339.137 277.943H335.416V277.323H339.137V277.943ZM331.695 277.943H327.973V277.323H331.695V277.943ZM324.252 277.943H320.531V277.323H324.252V277.943ZM316.81 277.943H313.089V277.323H316.81V277.943ZM309.368 277.943H305.647V277.323H309.368V277.943ZM301.926 277.943H298.205V277.323H301.926V277.943ZM294.484 277.943H290.762V277.323H294.484V277.943Z" fill="#17E5E8"/>
<path d="M356.643 265.348H277.471C272.414 265.348 268.314 269.448 268.314 274.505V325.129C268.314 330.186 272.414 334.285 277.471 334.285H356.643C361.7 334.285 365.8 330.186 365.8 325.129V274.505C365.8 269.448 361.7 265.348 356.643 265.348Z" fill="#00CACC"/>
<path d="M295.82 305.616H285.265V327.052H295.82V305.616Z" fill="white"/>
<path d="M313.498 306.305H302.942V327.054H313.498V306.305Z" fill="white"/>
<path d="M331.173 295.467H320.618V327.054H331.173V295.467Z" fill="white"/>
<path d="M348.851 286.199H338.295V327.052H348.851V286.199Z" fill="white"/>
<path d="M345.376 275.058H288.738V277.534H345.376V275.058Z" fill="white"/>
<path d="M116.289 198.053C114.496 191.832 110.695 186.377 105.483 182.534L103.39 180.991L105.166 217.765L118.909 207.133L116.289 198.053Z" fill="#00CACC"/>
<path d="M160.454 242.501L157.4 236.522C156.626 235.009 155.255 233.888 153.615 233.434L144.632 230.945L121.521 216.19L118.909 207.133L105.166 217.765L105.29 220.348C105.541 225.53 108.718 230.114 113.481 232.171L135.922 241.851L146.589 242.089C150.025 243.275 151.211 246.237 153.344 245.17C154.138 244.773 151.032 239.658 151.032 239.658L156.187 245.346L160.454 242.501Z" fill="#FFC0B6"/>
<path d="M121.245 215.982L118.225 219.538L118.767 219.999L121.788 216.442L121.245 215.982Z" fill="#D28572"/>
<path d="M120.259 257.397L137.073 255.914C148.018 254.947 157.539 263.785 158.073 275.408L161.873 358.217L138.678 358.939L120.259 257.397Z" fill="#2D3234"/>
<path d="M140.545 358.115L141.257 380.988H175.625L158.677 366.885L157.61 355.863L140.545 358.115Z" fill="#363636"/>
<path d="M158.238 366.332L151.009 371.901L151.876 373.027L159.106 367.458L158.238 366.332Z" fill="white"/>
<path d="M132.722 358.115L133.431 380.988H167.802L150.853 366.885L149.787 355.863L132.722 358.115Z" fill="#363636"/>
<path d="M150.415 366.33L143.186 371.899L144.053 373.025L151.282 367.456L150.415 366.33Z" fill="white"/>
<path d="M158.32 360.365H129.876L109.603 297.987L106.765 289.255L66.2328 289.076C63.7297 289.042 61.3333 287.881 59.2991 286.169C54.9901 282.535 53.0055 276.824 53.787 271.242L57.3418 245.877L117.559 253.706C128.98 255.192 138.201 263.741 140.548 275.011L158.318 360.365H158.32Z" fill="#32383C"/>
<path d="M107.676 241.285C107.383 242.459 107.078 243.632 106.766 244.813L104.632 253.523L76.5428 252.357L56.3199 251.518C50.959 251.297 47.0767 246.321 48.1707 241.064L57.5999 195.689C58.8081 187.974 65.0744 182.035 72.8465 181.232L95.9223 178.857L103.389 180.991C110.678 184.903 110.685 191.99 111.032 196.634C112.561 216.957 110.678 229.266 107.676 241.285Z" fill="#00CACC"/>
<path opacity="0.3" d="M88.6316 239.834C88.3389 241.007 107.078 243.632 106.766 244.813L104.632 253.523L76.543 252.357C66.7293 244.954 63.0528 228.847 59.4756 208.666L88.6316 239.834Z" fill="#1B1B43"/>
<path d="M83.0498 191.983C84.2803 193.303 85.6819 194.451 87.2472 195.31C88.8076 196.168 90.5044 196.796 92.2633 197.004C94.0022 197.232 95.8405 197.083 97.3661 196.255C98.9265 195.478 99.9213 193.839 100.107 192.062L100.385 192.08C100.375 193.008 100.142 193.95 99.6782 194.786C99.2118 195.622 98.4998 196.314 97.6712 196.793C95.9992 197.761 94.0171 197.934 92.1715 197.701C90.3159 197.443 88.5297 196.796 86.9446 195.828C85.3494 194.878 83.9553 193.613 82.834 192.159L83.0473 191.981L83.0498 191.983Z" fill="#1B1B43"/>
<path d="M111.653 219.705L111.122 219.668C111.633 212.514 111.115 203.722 109.584 193.534L110.112 193.454C111.65 203.68 112.169 212.511 111.655 219.705H111.653Z" fill="#1B1B43"/>
<path d="M159.388 244.932H132.958V250.146H159.388V244.932Z" fill="#1B1B43"/>
<path d="M205.135 250.146H152.04L176.455 203.449H229.551L205.135 250.146Z" fill="#00CACC"/>
<path d="M88.8988 141.525C82.6771 135.393 70.9433 137.97 71.1219 148.28C58.3213 151.659 57.6118 165.702 62.7668 172.901L67.2122 173.256L68.1896 168.012L70.7671 173.345L83.2105 174.144L88.8988 141.522V141.525Z" fill="black"/>
<path d="M99.2973 164.457V184.047C99.2973 184.226 99.2899 184.394 99.275 184.566C98.9699 188.597 95.0652 191.45 91.0762 190.418C85.1944 188.897 81.1061 183.576 81.1557 177.503L81.2549 164.454H99.2948L99.2973 164.457Z" fill="#FFC0B6"/>
<path d="M99.2979 172.926V184.046C99.2979 184.225 99.2904 184.394 99.2755 184.565C94.0341 183.704 87.9765 177.639 86.498 171.033L99.2979 172.923V172.926Z" fill="black"/>
<path d="M109.901 165.908C109.63 167.466 109.268 169.059 108.784 170.572C107.219 175.543 104.411 179.666 99.3825 178.949C87.5643 177.257 80.9854 165.082 80.9854 165.082L89.0701 155.839L94.4954 148.543L110.759 155.568C110.759 155.568 110.843 160.54 109.898 165.908H109.901Z" fill="#FFC0B6"/>
<path d="M84.4831 161.969C89.6703 161.802 93.6817 159.16 95.3859 151.659C95.3859 151.659 107.475 162.088 113.401 156.518C118.362 151.855 109.945 141.123 96.0111 139.843C90.9355 139.377 85.8748 140.962 81.8982 144.15C75.1456 149.56 74.4981 162.147 80.8116 166.503L84.4856 161.971L84.4831 161.969Z" fill="black"/>
<path d="M78.4099 148.813C78.07 147.587 78.323 146.231 78.8712 145.062C79.4269 143.886 80.2827 142.859 81.3047 142.066C82.3267 141.269 83.5273 140.701 84.7874 140.436C86.0451 140.178 87.3797 140.218 88.5406 140.724C87.34 141.111 86.3031 141.52 85.3257 142.023C84.3509 142.522 83.4529 143.1 82.6095 143.75C81.7686 144.402 80.9872 145.127 80.2852 145.948C79.5782 146.774 78.9581 147.679 78.4074 148.81L78.4099 148.813Z" fill="#FFA121"/>
<path d="M84.7526 167.325C86.8257 166.495 87.6931 163.791 86.6899 161.285C85.6868 158.78 83.193 157.421 81.1199 158.251C79.0468 159.081 78.1794 161.785 79.1826 164.291C80.1857 166.796 82.6795 168.155 84.7526 167.325Z" fill="#FFBC96"/>
<path d="M82.9269 165.484C83.0162 164.618 83.0212 163.797 82.7707 163.045C82.5251 162.289 82.0463 161.629 81.4932 160.951L81.6668 160.736C82.4705 161.155 83.1527 161.904 83.4429 162.829C83.7356 163.755 83.6091 164.762 83.1924 165.565L82.9269 165.486V165.484Z" fill="#1B1B43"/>
<path d="M76.4269 200.606L59.4785 208.663L64.7922 221.266L82.5642 213.069L76.4269 200.606Z" fill="#00CACC"/>
<path d="M139.204 244.304C138.736 244.068 138.44 243.912 138.44 243.912L138.609 243.577C138.609 243.577 138.922 243.729 139.376 243.972L139.202 244.304H139.204Z" fill="#C5C5FF"/>
<path d="M146.232 246.056C145.684 247.137 141.489 245.225 139.534 244.264C141.05 245.103 143.659 246.753 142.498 247.656C141.566 248.375 139.504 246.844 132.749 244.044C133.774 244.527 139.809 247.4 138.289 248.489C136.632 249.67 129.522 247.068 129.522 247.068L123.357 250.382H116.247L90.6611 250.546C89.0536 250.553 87.4609 250.347 85.9179 249.948C82.8815 249.174 80.0237 247.666 77.5975 245.639C76.0694 244.359 74.7521 242.858 73.6507 241.208C72.8271 239.97 72.1226 238.641 71.5396 237.254L64.792 221.268L82.5615 213.069L91.8345 231.893L122.412 238.534L130.946 236.401C132.781 235.939 135.376 236.713 136.991 237.703C140.931 240.114 146.748 245.026 146.234 246.058L146.232 246.056Z" fill="#FFC0B6"/>
<path d="M122.368 238.4C124.489 237.695 126.637 237.088 128.83 236.629C129.927 236.403 131.035 236.219 132.167 236.152C132.732 236.12 133.305 236.133 133.883 236.197C134.169 236.254 134.454 236.329 134.739 236.396C135.01 236.492 135.275 236.601 135.543 236.703C137.622 237.646 139.435 238.995 141.189 240.382C142.94 241.779 144.595 243.28 146.203 244.842L146.277 244.914L146.292 245.006C146.349 245.344 146.309 245.654 146.123 245.969C146.009 246.1 145.89 246.247 145.736 246.309C145.587 246.403 145.439 246.44 145.292 246.462C144.704 246.559 144.188 246.438 143.695 246.306C142.705 246.033 141.824 245.582 140.934 245.148C140.063 244.681 139.204 244.197 138.373 243.677C137.527 243.175 136.724 242.615 135.9 242.081L136.277 241.481C137.731 242.344 139.147 243.25 140.499 244.277C141.172 244.798 141.837 245.331 142.407 246.028C142.544 246.214 142.682 246.4 142.777 246.653C142.829 246.772 142.859 246.924 142.861 247.088C142.849 247.259 142.797 247.44 142.677 247.574C142.454 247.832 142.184 247.921 141.956 247.976C141.717 248.038 141.497 248.05 141.271 248.072L141.201 248.08L141.125 248.048L133.404 244.813L133.635 244.269C134.851 244.83 136.034 245.433 137.163 246.175C137.714 246.569 138.292 246.924 138.698 247.604C138.79 247.775 138.857 248.038 138.763 248.283C138.666 248.521 138.478 248.673 138.304 248.755C137.947 248.936 137.587 248.973 137.242 248.993C135.858 249.025 134.558 248.7 133.271 248.382C131.986 248.043 130.72 247.643 129.473 247.189L129.567 246.929C130.815 247.346 132.085 247.715 133.362 248.02C134.637 248.306 135.95 248.588 137.217 248.524C137.823 248.499 138.542 248.234 138.249 247.834C137.972 247.368 137.398 246.971 136.873 246.621C135.781 245.924 134.593 245.339 133.402 244.81L133.633 244.267L141.38 247.432L141.234 247.408C141.425 247.385 141.621 247.375 141.789 247.326C141.963 247.288 142.104 247.212 142.152 247.152C142.261 247.11 142.114 246.728 141.871 246.44C141.38 245.842 140.73 245.314 140.078 244.815C138.76 243.823 137.346 242.925 135.917 242.089L136.295 241.489C137.113 242.012 137.905 242.578 138.738 243.074C139.559 243.592 140.398 244.071 141.249 244.53C142.107 244.954 142.975 245.398 143.873 245.649C144.315 245.775 144.784 245.865 145.158 245.8L145.295 245.775C145.337 245.763 145.362 245.738 145.399 245.723C145.481 245.698 145.506 245.634 145.563 245.594C145.632 245.487 145.662 245.289 145.639 245.145L145.729 245.309C144.156 243.758 142.499 242.27 140.792 240.863C139.08 239.469 137.294 238.117 135.325 237.194L134.573 236.897C134.317 236.835 134.062 236.763 133.804 236.706C133.275 236.639 132.732 236.621 132.186 236.644C131.092 236.688 129.996 236.84 128.907 237.041C126.729 237.445 124.573 238.003 122.452 238.656L122.365 238.393L122.368 238.4Z" fill="#D28572"/>
<path d="M64.901 221.509L64.6777 221.025L82.214 212.935L74.9083 195.843L75.3995 195.635L82.9062 213.203L64.901 221.509Z" fill="#1B1B43"/>
<path d="M67.4088 296.367H66.4785V376.485H67.4088V296.367Z" fill="white"/>
<path d="M89.3425 288.9H44.5454C41.5011 288.9 39.0332 291.368 39.0332 294.411C39.0332 297.455 41.5011 299.922 44.5454 299.922H89.3425C92.3868 299.922 94.8547 297.455 94.8547 294.411C94.8547 291.368 92.3868 288.9 89.3425 288.9Z" fill="white"/>
<path d="M56.3862 372.504H77.5022C82.0767 372.504 85.7879 376.217 85.7879 380.789V381.7H48.1006V380.789C48.1006 376.215 51.8142 372.504 56.3862 372.504Z" fill="white"/>
<path d="M121.151 255.027L120.364 255.523L199.776 381.384L200.563 380.888L121.151 255.027Z" fill="white"/>
<path d="M199.778 255.038L120.344 380.885L121.13 381.381L200.564 255.535L199.778 255.038Z" fill="white"/>
<path d="M230.023 250.146H90.8838V260.64H230.023V250.146Z" fill="white"/>
<path d="M102.548 82.8506C86.5154 82.8506 73.4717 69.8069 73.4717 53.7739C73.4717 37.7409 86.5154 24.6973 102.548 24.6973C118.581 24.6973 131.625 37.7409 131.625 53.7739C131.625 69.8069 118.581 82.8506 102.548 82.8506ZM102.548 25.315C86.8577 25.315 74.0919 38.0808 74.0919 53.7714C74.0919 69.4621 86.8577 82.2279 102.548 82.2279C118.239 82.2279 131.005 69.4621 131.005 53.7714C131.005 38.0808 118.239 25.315 102.548 25.315Z" fill="#30343E"/>
<path d="M122.211 74.0167C139.684 74.0167 153.848 59.8524 153.848 42.3799C153.848 24.9074 139.684 10.7431 122.211 10.7431C104.738 10.7431 90.5742 24.9074 90.5742 42.3799C90.5742 59.8524 104.738 74.0167 122.211 74.0167Z" fill="#30343E"/>
<path d="M122.223 42.9802L104.682 29.2295L105.257 28.4977L122.201 41.7795L131.647 33.7792L132.248 34.4911L122.223 42.9802Z" fill="#30343E"/>
<path d="M40.1116 110.608H24.0464C21.4615 110.608 19.3652 112.704 19.3652 115.289V131.354C19.3652 133.939 21.4615 136.035 24.0464 136.035H35.5123L40.4515 142.857V136.018C42.8776 135.844 44.7928 133.825 44.7928 131.354V115.289C44.7928 112.704 42.6965 110.608 40.1116 110.608Z" fill="#30343E"/>
<path d="M40.7611 143.815L35.3531 136.345H24.0459C21.2948 136.345 19.0547 134.105 19.0547 131.354V115.289C19.0547 112.538 21.2948 110.297 24.0459 110.297H40.1112C42.8623 110.297 45.1024 112.538 45.1024 115.289V131.354C45.1024 133.86 43.217 135.976 40.7611 136.298V143.815ZM24.0459 110.918C21.6347 110.918 19.6749 112.877 19.6749 115.289V131.354C19.6749 133.765 21.6347 135.725 24.0459 135.725H35.6706L40.1409 141.9V135.727L40.4287 135.708C42.701 135.544 44.4822 133.631 44.4822 131.354V115.289C44.4822 112.877 42.5224 110.918 40.1112 110.918H24.0459Z" fill="#00FFFF"/>
<path d="M31.749 131.589L25.3193 122.301L26.8474 121.242L31.5803 128.076L38.707 115.324L40.3318 116.231L31.749 131.589Z" fill="#00FFFF"/>
<path d="M394.208 380.769H13.0586V381.7H394.208V380.769Z" fill="white"/>
</g>
<defs>
<clipPath id="clip0_103_1456">
<rect width="402.963" height="381.609" fill="white" transform="translate(0.545898 0.0909271)"/>
</clipPath>
</defs>
</svg>
