<svg width="50" height="61" viewBox="0 0 50 61" fill="none" xmlns="http://www.w3.org/2000/svg">
<g id="Group">
<path id="Vector" d="M48.027 0.168457H33.3631C32.7849 0.168457 32.3156 0.638985 32.3156 1.2164V5.40819H30.2208C29.0655 5.40819 28.1259 6.3482 28.1259 7.50408C28.1259 8.65997 29.0655 9.59998 30.2208 9.59998H32.3156V14.8397H36.5053C36.5053 12.5279 38.3844 10.6479 40.695 10.6479C43.0056 10.6479 44.8847 12.5279 44.8847 14.8397H48.027C48.6051 14.8397 49.0744 14.3692 49.0744 13.7918V1.2164C49.0744 0.638985 48.6051 0.168457 48.027 0.168457ZM19.7466 60.9494C20.9532 60.9474 22.1222 60.5295 23.0569 59.766C23.9915 59.0025 24.6346 57.94 24.8779 56.7576H14.6152C14.8585 57.94 15.5016 59.0025 16.4362 59.766C17.3709 60.5295 18.5399 60.9474 19.7466 60.9494ZM11.3672 19.0315C13.6778 19.0315 15.5569 20.9115 15.5569 23.2233H19.7466V20.0794C17.4359 20.0794 15.5569 18.1994 15.5569 15.8877C15.5569 13.5759 17.4359 11.6959 19.7466 11.6959V6.45614H19.0333C9.49543 6.45614 1.65337 13.8588 0.945312 23.2233H7.17748C7.17748 20.9115 9.05655 19.0315 11.3672 19.0315Z" fill="white"/>
<path id="Vector_2" d="M12.4152 46.2782H19.7471V37.8946C17.4365 37.8946 15.5575 36.0146 15.5575 33.7028C15.5575 31.391 17.4365 29.511 19.7471 29.511V25.3192H13.4626V23.2233C13.4626 22.0674 12.5231 21.1274 11.3678 21.1274C10.2125 21.1274 9.27292 22.0674 9.27292 23.2233V25.3192H0.908203C1.00435 27.886 1.64616 30.4027 2.79087 32.7017C3.93558 35.0008 5.55689 37.0294 7.54677 38.6523L12.4152 42.6376V46.2782Z" fill="white"/>
<path id="Vector_3" d="M32.3153 23.2233C32.3153 22.0674 31.3758 21.1274 30.2205 21.1274C29.0652 21.1274 28.1256 22.0674 28.1256 23.2233V25.3192H21.8411V31.6069H19.7462C18.5909 31.6069 17.6514 32.5469 17.6514 33.7028C17.6514 34.8587 18.5909 35.7987 19.7462 35.7987H21.8411V46.2782H27.0782V42.6376L31.9466 38.6523C33.9363 37.0292 35.5575 35.0006 36.7022 32.7016C37.8469 30.4026 38.4888 27.8859 38.5852 25.3192H32.3153V23.2233ZM26.0308 52.5658H13.4617C13.192 52.5779 12.9374 52.6936 12.7508 52.8888C12.5642 53.084 12.4601 53.3437 12.4601 53.6138C12.4601 53.8839 12.5642 54.1436 12.7508 54.3388C12.9374 54.534 13.192 54.6497 13.4617 54.6617H26.0308C26.3005 54.6497 26.5551 54.534 26.7417 54.3388C26.9283 54.1436 27.0324 53.8839 27.0324 53.6138C27.0324 53.3437 26.9283 53.084 26.7417 52.8888C26.5551 52.6936 26.3005 52.5779 26.0308 52.5658ZM28.1256 48.3741H11.3669C11.0972 48.3861 10.8425 48.5018 10.6559 48.697C10.4694 48.8922 10.3652 49.1519 10.3652 49.422C10.3652 49.6921 10.4694 49.9518 10.6559 50.147C10.8425 50.3422 11.0972 50.4579 11.3669 50.4699H28.1256C28.3953 50.4579 28.6499 50.3422 28.8365 50.147C29.0231 49.9518 29.1272 49.6921 29.1272 49.422C29.1272 49.1519 29.0231 48.8922 28.8365 48.697C28.6499 48.5018 28.3953 48.3861 28.1256 48.3741Z" fill="white"/>
</g>
</svg>
