<svg width="53" height="62" viewBox="0 0 53 62" fill="none" xmlns="http://www.w3.org/2000/svg">
<g id="Group">
<path id="Vector" d="M26.46 19.6631C20.0773 19.6631 14.8848 24.8582 14.8848 31.2435C14.8848 37.6295 20.0773 42.8245 26.46 42.8245C32.8424 42.8245 38.0346 37.6295 38.0346 31.2436C38.0346 24.8581 32.8424 19.6631 26.46 19.6631ZM33.3322 29.0628L25.0398 37.3591C24.8745 37.525 24.678 37.6566 24.4616 37.7463C24.2453 37.836 24.0133 37.882 23.7791 37.8818C23.545 37.8821 23.3132 37.8361 23.0969 37.7464C22.8806 37.6567 22.6842 37.5251 22.519 37.3591L19.35 34.1887C18.6539 33.4926 18.6539 32.3634 19.35 31.667C20.0457 30.9705 21.1743 30.9705 21.8705 31.667L23.7791 33.5766L30.8117 26.5411C31.5074 25.8445 32.636 25.8445 33.3322 26.5411C34.0283 27.2371 34.0283 28.3663 33.3322 29.0628Z" fill="white"/>
<path id="Vector_2" d="M52.2657 17.3434L52.264 17.2962C52.2363 16.6669 52.2181 16.0373 52.2093 15.4075C52.1597 12.0561 49.4968 9.28393 46.1468 9.09672C39.162 8.70663 33.7587 6.42795 29.1419 1.92566L29.1025 1.88814C27.5966 0.506686 25.3251 0.506686 23.8187 1.88814L23.7793 1.92566C19.1625 6.42795 13.7591 8.70663 6.77437 9.09708C3.42479 9.28393 0.761502 12.0562 0.711905 15.4078C0.703199 16.0375 0.685004 16.6671 0.657324 17.2962L0.654476 17.406C0.518619 24.5321 0.349894 33.4007 3.31527 41.4504C4.94592 45.8772 7.41533 49.725 10.6547 52.8881C14.3441 56.4903 19.1763 59.3501 25.0173 61.3877C25.2096 61.4546 25.4062 61.5082 25.6058 61.5481C25.8895 61.6047 26.1751 61.6329 26.4606 61.6329C26.7461 61.6329 27.032 61.6047 27.3152 61.5481C27.5157 61.5079 27.7131 61.4539 27.9061 61.3866C33.7401 59.3453 38.5674 56.4843 42.2534 52.8825C45.4915 49.7186 47.9609 45.8697 49.5928 41.4421C52.5694 33.3682 52.4011 24.4828 52.2657 17.3434ZM26.4596 46.3908C18.1112 46.3908 11.3197 39.596 11.3197 31.2435C11.3197 22.8909 18.1113 16.096 26.4596 16.096C34.8076 16.096 41.5995 22.8909 41.5995 31.2435C41.5995 39.5961 34.8076 46.3908 26.4596 46.3908Z" fill="white"/>
</g>
</svg>
