<svg width="62" height="62" viewBox="0 0 62 62" fill="none" xmlns="http://www.w3.org/2000/svg">
<g id="Group">
<path id="Vector" d="M23.9442 31.2471L20.6843 39.4642C20.5488 39.8058 20.3137 40.0989 20.0097 40.3054C19.7056 40.5119 19.3465 40.6224 18.9788 40.6224H2.25785C1.95837 40.6224 1.66343 40.5492 1.39879 40.409C1.13415 40.2689 0.907839 40.0661 0.739626 39.8184C0.571413 39.5707 0.466407 39.2856 0.433776 38.988C0.401145 38.6903 0.44188 38.3893 0.552425 38.111L2.9655 32.028C3.15173 31.5567 3.60847 31.2471 4.11519 31.2471H23.9442ZM59.5601 40.6224H28.9046C28.5369 40.6223 28.1777 40.5117 27.8736 40.305C27.5695 40.0983 27.3345 39.805 27.1992 39.4632L23.9452 31.2471H57.7028C58.2095 31.2471 58.6652 31.5567 58.8524 32.028L61.2655 38.111C61.3761 38.3893 61.4168 38.6903 61.3842 38.988C61.3515 39.2856 61.2465 39.5707 61.0783 39.8184C60.9101 40.0661 60.6838 40.2689 60.4192 40.409C60.1545 40.5492 59.8596 40.6224 59.5601 40.6224Z" fill="white"/>
<path id="Vector_2" d="M22.0488 40.0069C21.8074 40.6234 21.3853 41.1525 20.8378 41.525C20.2904 41.8974 19.6431 42.0958 18.981 42.094H3.2793V57.9776C3.2793 59.9961 4.90631 61.6325 6.92538 61.6325C6.92538 61.6325 9.16301 61.6276 23.2092 61.6276V37.0771L22.0488 40.0069ZM51.236 52.4757H41.469C41.3503 52.4775 41.2371 52.5263 41.1543 52.6113C41.0715 52.6963 41.0257 52.8107 41.027 52.9294V55.5907C41.027 55.8386 41.2211 56.0336 41.469 56.0336H51.236C51.2943 56.0341 51.3521 56.023 51.406 56.0009C51.4599 55.9788 51.5089 55.9462 51.5501 55.905C51.5913 55.8637 51.6238 55.8147 51.6458 55.7607C51.6677 55.7067 51.6787 55.6489 51.678 55.5907V52.9294C51.6791 52.8109 51.6332 52.6967 51.5504 52.6119C51.4676 52.5271 51.3546 52.4785 51.236 52.4767V52.4757Z" fill="white"/>
<path id="Vector_3" d="M28.91 42.0945C27.5378 42.0945 26.3322 41.2714 25.8324 40.0074L24.6797 37.1021V61.6281C31.7024 61.6281 41.4341 61.63 54.8922 61.633C56.9113 61.633 58.5383 60.0064 58.5383 57.9879V42.0945H28.91ZM53.1486 55.5911C53.148 56.0981 52.9464 56.5841 52.588 56.9427C52.2295 57.3013 51.7434 57.503 51.2363 57.5038H41.4693C40.9623 57.503 40.4762 57.3013 40.1177 56.9427C39.7592 56.5841 39.5576 56.0981 39.5571 55.5911V52.9298C39.5566 52.4216 39.7575 51.934 40.116 51.5736C40.4744 51.2133 40.961 51.0097 41.4693 51.0073H51.2363C51.7446 51.0097 52.2313 51.2133 52.5897 51.5736C52.9481 51.934 53.1491 52.4216 53.1486 52.9298V55.5911ZM43.4551 0.852051H18.3638C16.0703 0.852051 14.1982 2.71379 14.1982 5.01647V18.8227C14.1982 21.1254 16.0703 22.9872 18.3638 22.9872H26.44C26.8811 22.9872 27.283 23.2321 27.4888 23.6241L29.6784 27.5533C30.2184 28.5234 31.6151 28.5204 32.1532 27.5494L34.3291 23.6241C34.5251 23.2321 34.9368 22.9872 35.3778 22.9872H43.4443C44.5491 22.9872 45.6086 22.5484 46.3898 21.7674C47.171 20.9865 47.6099 19.9272 47.6099 18.8227V5.00667C47.6099 4.46108 47.5024 3.92083 47.2935 3.41677C47.0847 2.9127 46.7786 2.4547 46.3927 2.06891C46.0068 1.68312 45.5486 1.37709 45.0444 1.1683C44.5402 0.959513 44.0008 0.852051 43.4551 0.852051ZM37.1088 7.7738L29.0472 15.8322C28.9094 15.9698 28.7225 16.0471 28.5277 16.0471C28.3329 16.0471 28.1461 15.9698 28.0083 15.8322L24.7052 12.5301C24.635 12.4622 24.5791 12.3811 24.5406 12.2914C24.5021 12.2018 24.4819 12.1053 24.4811 12.0077C24.4803 11.9102 24.4989 11.8134 24.5359 11.7231C24.5729 11.6328 24.6276 11.5508 24.6966 11.4818C24.7657 11.4128 24.8478 11.3583 24.9381 11.3214C25.0285 11.2845 25.1253 11.2659 25.2229 11.2668C25.3205 11.2677 25.4169 11.288 25.5066 11.3266C25.5963 11.3652 25.6774 11.4212 25.7451 11.4914L28.5277 14.2732L36.0698 6.73417C36.1371 6.66197 36.2183 6.60405 36.3084 6.56389C36.3986 6.52372 36.4959 6.50212 36.5946 6.50038C36.6933 6.49864 36.7914 6.51679 36.8829 6.55375C36.9745 6.59072 37.0576 6.64573 37.1274 6.71552C37.1972 6.7853 37.2522 6.86842 37.2892 6.95993C37.3262 7.05144 37.3443 7.14946 37.3426 7.24813C37.3409 7.34681 37.3193 7.44412 37.2791 7.53427C37.2389 7.62441 37.181 7.70653 37.1088 7.7738Z" fill="white"/>
</g>
</svg>
