<svg width="54" height="55" viewBox="0 0 54 55" fill="none" xmlns="http://www.w3.org/2000/svg">
<g id="Group">
<path id="Vector" d="M27 54.4741C12.0906 54.4741 0 42.4853 0 27.7014C0 12.9175 12.0906 0.928711 27 0.928711C41.9094 0.928711 54 12.9175 54 27.7014C54 42.4853 41.9094 54.4741 27 54.4741Z" fill="#25D366"/>
<g id="Group_2">
<g id="WA_Logo">
<g id="Group_3">
<path id="Vector_2" fill-rule="evenodd" clip-rule="evenodd" d="M39.6288 15.236C36.2808 11.9108 31.8204 10.0796 27.0738 10.0742C17.2944 10.0742 9.32939 17.9668 9.32939 27.6692C9.32939 30.7695 10.1448 33.8002 11.7 36.4668L9.18359 45.5856L18.5904 43.1385C21.1824 44.5414 24.0984 45.2803 27.0684 45.2803H27.0738C36.8532 45.2803 44.8128 37.3877 44.8182 27.6853C44.8236 22.984 42.9822 18.5612 39.6288 15.236ZM27.0792 42.3086H27.0738C24.4278 42.3086 21.8304 41.6018 19.5678 40.2685L19.0278 39.9526L13.4442 41.4037L14.9346 36.0063L14.5836 35.4548C13.1094 33.1255 12.3264 30.4375 12.3264 27.6692C12.3318 19.6053 18.9468 13.046 27.0846 13.046C31.0266 13.046 34.7256 14.572 37.512 17.335C40.2984 20.0979 41.832 23.7765 41.8266 27.68C41.8266 35.7493 35.2062 42.3086 27.0792 42.3086ZM35.1684 31.3532C34.7256 31.1336 32.544 30.0681 32.139 29.9235C31.734 29.7789 31.437 29.704 31.14 30.143C30.843 30.5821 29.9952 31.5727 29.736 31.8672C29.4768 32.1617 29.2176 32.1992 28.7748 31.9797C28.332 31.7601 26.901 31.2943 25.2108 29.795C23.8932 28.6277 23.0022 27.1873 22.743 26.7483C22.4838 26.3092 22.716 26.0682 22.9374 25.8487C23.1372 25.6506 23.3802 25.3347 23.6016 25.0777C23.823 24.8206 23.8986 24.6386 24.0444 24.3441C24.1902 24.0496 24.12 23.7926 24.0066 23.573C23.8932 23.3535 23.0076 21.1903 22.6404 20.3068C22.2786 19.45 21.9168 19.5678 21.6414 19.5518C21.3822 19.5411 21.0852 19.5357 20.7936 19.5357C20.4966 19.5357 20.016 19.6481 19.611 20.0872C19.206 20.5263 18.0612 21.5918 18.0612 23.7551C18.0612 25.9183 19.6488 28.0119 19.8702 28.3011C20.0916 28.5956 22.9968 33.0345 27.4464 34.9407C28.5048 35.3959 29.331 35.6636 29.9736 35.8671C31.0374 36.2044 32.004 36.1562 32.7654 36.0438C33.6186 35.9152 35.3898 34.9782 35.757 33.9555C36.1242 32.9274 36.1242 32.0493 36.0162 31.8672C35.9082 31.6852 35.6112 31.5781 35.1684 31.3532Z" fill="white"/>
</g>
</g>
</g>
</g>
</svg>
