<svg width="54" height="55" viewBox="0 0 54 55" fill="none" xmlns="http://www.w3.org/2000/svg">
<g clip-path="url(#clip0_481_1721)">
<path d="M27 54.4741C12.0906 54.4741 0 42.4853 0 27.7014C0 12.9175 12.0906 0.928711 27 0.928711C41.9094 0.928711 54 12.9175 54 27.7014C54 42.4853 41.9094 54.4741 27 54.4741Z" fill="#25D366"/>
<path fill-rule="evenodd" clip-rule="evenodd" d="M39.6305 15.2361C36.2825 11.9109 31.8221 10.0797 27.0755 10.0743C17.2961 10.0743 9.3311 17.9669 9.3311 27.6693C9.3311 30.7696 10.1465 33.8003 11.7017 36.4669L9.1853 45.5856L18.5921 43.1386C21.1841 44.5415 24.1001 45.2804 27.0701 45.2804H27.0755C36.8549 45.2804 44.8145 37.3878 44.8199 27.6854C44.8253 22.9841 42.9839 18.5613 39.6305 15.2361ZM27.0809 42.3087H27.0755C24.4295 42.3087 21.8321 41.6019 19.5695 40.2686L19.0295 39.9527L13.4459 41.4037L14.9363 36.0064L14.5853 35.4548C13.1111 33.1256 12.3281 30.4376 12.3281 27.6693C12.3335 19.6054 18.9485 13.0461 27.0863 13.0461C31.0283 13.0461 34.7273 14.5721 37.5137 17.3351C40.3001 20.098 41.8337 23.7766 41.8283 27.68C41.8283 35.7493 35.2079 42.3087 27.0809 42.3087ZM35.1701 31.3533C34.7273 31.1337 32.5457 30.0682 32.1407 29.9236C31.7357 29.779 31.4387 29.7041 31.1417 30.1431C30.8447 30.5822 29.9969 31.5728 29.7377 31.8673C29.4785 32.1618 29.2193 32.1993 28.7765 31.9797C28.3337 31.7602 26.9027 31.2944 25.2125 29.7951C23.8949 28.6278 23.0039 27.1874 22.7447 26.7484C22.4855 26.3093 22.7177 26.0683 22.9391 25.8488C23.1389 25.6507 23.3819 25.3348 23.6033 25.0777C23.8247 24.8207 23.9003 24.6387 24.0461 24.3442C24.1919 24.0497 24.1217 23.7927 24.0083 23.5731C23.8949 23.3536 23.0093 21.1903 22.6421 20.3068C22.2803 19.4501 21.9185 19.5679 21.6431 19.5519C21.3839 19.5411 21.0869 19.5358 20.7953 19.5358C20.4983 19.5358 20.0177 19.6482 19.6127 20.0873C19.2077 20.5264 18.0629 21.5919 18.0629 23.7552C18.0629 25.9184 19.6505 28.012 19.8719 28.3012C20.0933 28.5957 22.9985 33.0346 27.4481 34.9408C28.5065 35.3959 29.3327 35.6637 29.9753 35.8671C31.0391 36.2045 32.0057 36.1563 32.7671 36.0438C33.6203 35.9153 35.3915 34.9783 35.7587 33.9556C36.1259 32.9275 36.1259 32.0494 36.0179 31.8673C35.9099 31.6852 35.6129 31.5782 35.1701 31.3533Z" fill="white"/>
</g>
<defs>
<clipPath id="clip0_481_1721">
<rect width="54" height="53.5454" fill="white" transform="translate(0 0.928711)"/>
</clipPath>
</defs>
</svg>
