<svg width="31" height="31" viewBox="0 0 31 31" fill="none" xmlns="http://www.w3.org/2000/svg">
<g id="Group">
<path id="Vector" d="M11.6832 8.09668H9.5293L14.6098 15.5297L15.2642 16.486L19.3354 22.4411H21.5786L16.4812 15.0539L15.8268 14.1025L11.6832 8.09668Z" fill="white"/>
<path id="Vector_2" d="M26.1231 0.0166016H4.99454C2.40599 0.0166016 0.307617 2.11513 0.307617 4.70388V25.8341C0.307617 28.4228 2.40599 30.5213 4.99454 30.5213H26.1231C28.7117 30.5213 30.81 28.4228 30.81 25.8341V4.70388C30.81 2.11513 28.7117 0.0166016 26.1231 0.0166016ZM18.7848 23.482L14.5664 17.3071L9.31684 23.482H7.83663L13.912 16.3508L7.55894 7.05597H12.229L16.5247 13.2815L21.8298 7.05597H23.2834L17.1791 14.233L23.5587 23.482H18.7848Z" fill="white"/>
</g>
</svg>
