<svg width="30" height="30" viewBox="0 0 30 30" fill="none" xmlns="http://www.w3.org/2000/svg">
<ellipse cx="14.7615" cy="15.2351" rx="14.7537" ry="14.7537" fill="#21232F" fill-opacity="0.05"/>
<path d="M12.4798 9.77586C10.1116 9.87117 9.18457 9.95492 8.6936 10.1195C8.07845 10.3246 7.53261 10.8473 7.28712 11.4625C7.05319 12.0516 6.94922 13.1867 6.94922 15.1303C6.94922 17.0451 7.05319 18.157 7.28712 18.7404C7.54993 19.3931 8.08422 19.8898 8.74848 20.0949C9.77085 20.4097 14.487 20.5454 17.7939 20.3548C19.6595 20.2479 20.1852 20.1266 20.7426 19.6646C21.1844 19.2978 21.4328 18.8241 21.5599 18.105C21.6841 17.4176 21.7129 16.9411 21.7274 15.4249C21.7476 13.5217 21.6841 12.5195 21.4935 11.7744C21.2884 10.9686 20.7079 10.3448 19.9368 10.108C19.5498 9.98958 18.6458 9.89138 17.2162 9.81341C16.6762 9.78453 12.9881 9.75564 12.4798 9.77586ZM16.2776 10.9715C18.0451 11.0293 18.978 11.1015 19.492 11.2199C19.8242 11.2979 20.1014 11.5174 20.2574 11.8235C20.4797 12.2654 20.5866 13.7383 20.5491 15.809C20.5231 17.1317 20.422 18.0328 20.2603 18.3823C20.1736 18.5642 19.9137 18.8241 19.7317 18.9108C19.3938 19.0667 18.4697 19.1563 16.3787 19.2313C13.6842 19.3295 9.85171 19.188 9.10659 18.9599C8.82068 18.8732 8.57519 18.6653 8.43657 18.3967C8.20841 17.9404 8.09578 16.453 8.1391 14.365C8.16509 12.9498 8.26617 12.1296 8.45678 11.7744C8.6214 11.4625 8.91598 11.2603 9.30587 11.1852C9.79395 11.0928 10.8019 11.0235 12.3643 10.9715C13.9845 10.9195 14.6026 10.9195 16.2776 10.9715Z" fill="#21232F"/>
<path d="M12.8711 15.1011C12.8711 16.3863 12.8798 17.4404 12.8884 17.4404C12.926 17.4404 16.9144 15.1213 16.9144 15.1011C16.9144 15.078 12.926 12.7618 12.8884 12.7618C12.8798 12.7618 12.8711 13.813 12.8711 15.1011Z" fill="#21232F"/>
</svg>
